<?xml version="1.0" encoding="utf-8"?>
<!-- Generator: Adobe Illustrator 18.0.0, SVG Export Plug-In . SVG Version: 6.00 Build 0)  -->
<!DOCTYPE svg PUBLIC "-//W3C//DTD SVG 1.1//EN" "http://www.w3.org/Graphics/SVG/1.1/DTD/svg11.dtd" [
	<!ENTITY ns_flows "http://ns.adobe.com/Flows/1.0/">
	<!ENTITY ns_extend "http://ns.adobe.com/Extensibility/1.0/">
	<!ENTITY ns_ai "http://ns.adobe.com/AdobeIllustrator/10.0/">
	<!ENTITY ns_graphs "http://ns.adobe.com/Graphs/1.0/">
	<!ENTITY ns_vars "http://ns.adobe.com/Variables/1.0/">
	<!ENTITY ns_imrep "http://ns.adobe.com/ImageReplacement/1.0/">
	<!ENTITY ns_sfw "http://ns.adobe.com/SaveForWeb/1.0/">
	<!ENTITY ns_custom "http://ns.adobe.com/GenericCustomNamespace/1.0/">
	<!ENTITY ns_adobe_xpath "http://ns.adobe.com/XPath/1.0/">
]>
<svg version="1.1" id="logo" xmlns:x="&ns_extend;" xmlns:i="&ns_ai;" xmlns:graph="&ns_graphs;"
	 xmlns="http://www.w3.org/2000/svg" xmlns:xlink="http://www.w3.org/1999/xlink" xmlns:a="http://ns.adobe.com/AdobeSVGViewerExtensions/3.0/"
	 x="0px" y="0px" width="134.88px" height="77px" viewBox="0 0 134.88 77" style="enable-background:new 0 0 134.88 77;"
	 xml:space="preserve">
<style type="text/css">
	.st0{fill:#154273;}
	.st1{fill:#FFFFFF;}
	.st2{fill:#1D1D1B;}
</style>
<metadata>
	<sfw  xmlns="&ns_sfw;">
		<slices></slices>
		<sliceSourceBounds  height="77" width="128.03" y="-161.7" x="183.77" bottomLeftOrigin="true"></sliceSourceBounds>
	</sfw>
</metadata>
<g>
	<g>
		<g>
			<g>
				<rect x="0" y="0" class="st0" width="44" height="77"/>
				<path class="st1" d="M22.76,57.01H22v-2.12h0.76V57.01z M26.21,47.66h-0.76v-2.12h0.76V47.66z M12.05,44
					c-0.06,0-0.45,0-0.45,0.08c0,0.08,0.18,0.04,0.45,0.09c0.61,0.1,0.85,0.41,1.28,0.41c0.39,0,0.79-0.26,0.63-0.83
					c-0.03-0.09-0.08-0.07-0.09-0.01c-0.06,0.25-0.37,0.4-0.7,0.4C12.77,44.14,12.68,44,12.05,44z M7.84,46.12
					c0.07,0.09,0.79,1.03-0.32,1.39c-0.05,0.02-0.07,0.06,0.01,0.1c0.82,0.34,1.22-0.29,1.22-0.29c0.41,0.94-0.22,1.46-0.22,1.46
					c0.09,0.17,0.48,0.45,1.07,0.59c0.22-0.12,0.54-0.35,0.67-0.71c0,0,0.16,0.41,0.01,0.8c1.67,0.15,2.26-1.18,3.55-0.94
					c0.04,0.01,0.05-0.02,0.05-0.06c0-0.82-0.5-2.33-2.1-2.64c-1.59-0.31-1.16-0.96-1.16-0.96c0.67-0.03,1.06,0.26,1.06,0.26
					c0.12-0.2-0.05-0.42-0.05-0.42c0.06-0.08,0.1-0.35,0.1-0.35c-0.75,0-0.95-0.16-0.95-0.16c-0.12-0.45,0.2-1.08,1.32-0.4
					c0.28-0.25,0.26-0.63,0.26-0.63c0.08-0.04,0.14-0.17,0.14-0.23c0-0.19-0.9-0.69-1.13-0.75c-0.06-0.27-0.4-0.66-1.46-0.52
					c-0.5,0.06-0.86-0.07-0.69-0.36c0.03-0.05-0.06-0.06-0.11-0.01c-0.12,0.12-0.27,0.44,0.16,0.66c0.48,0.24,0.51,0.73,0.52,0.8
					c0.01,0.1-0.12,0.11-0.14,0.01c-0.22-0.82-1.34-0.99-2-0.56c0.04,0.44,0.51,0.73,0.77,0.73c0.15,0,0.35-0.15,0.35-0.35
					c0-0.1,0.05-0.09,0.08-0.01c0.11,0.29-0.32,0.89-0.96,0.53c-0.65,0.65-0.39,1.46-0.33,1.75c0.12,0.53-0.14,1.05-0.62,0.81
					c-0.02-0.01-0.05-0.02-0.05,0.04C6.89,46.03,7.32,46.41,7.84,46.12z M11.42,42.84c-0.3,0.34-0.8,0.26-0.92-0.3
					C11.13,42.51,11.4,42.57,11.42,42.84z M30.82,44.14c-0.33,0-0.64-0.14-0.7-0.4c-0.01-0.06-0.07-0.09-0.09,0.01
					c-0.16,0.56,0.24,0.83,0.63,0.83c0.43,0,0.67-0.31,1.28-0.41c0.27-0.05,0.45,0,0.45-0.09c0-0.08-0.4-0.08-0.45-0.08
					C31.31,44,31.23,44.14,30.82,44.14z M37.11,45.7c0-0.06-0.02-0.05-0.05-0.04c-0.48,0.24-0.74-0.28-0.62-0.81
					c0.07-0.3,0.33-1.1-0.33-1.75c-0.64,0.37-1.07-0.24-0.96-0.53c0.03-0.08,0.08-0.09,0.08,0.01c0,0.2,0.21,0.35,0.35,0.35
					c0.26,0,0.73-0.29,0.77-0.73c-0.66-0.43-1.78-0.26-2,0.56c-0.03,0.1-0.15,0.09-0.14-0.01c0-0.07,0.03-0.56,0.52-0.8
					c0.44-0.22,0.28-0.54,0.16-0.66c-0.05-0.05-0.14-0.04-0.11,0.01c0.17,0.29-0.19,0.42-0.69,0.36c-1.05-0.14-1.4,0.25-1.46,0.52
					c-0.23,0.06-1.13,0.56-1.13,0.75c0,0.06,0.05,0.19,0.14,0.23c0,0-0.02,0.38,0.26,0.63c1.12-0.68,1.43-0.04,1.32,0.4
					c0,0-0.2,0.16-0.95,0.16c0,0,0.04,0.27,0.1,0.35c0,0-0.17,0.22-0.05,0.42c0,0,0.39-0.29,1.06-0.26c0,0,0.43,0.65-1.16,0.96
					c-1.59,0.31-2.1,1.81-2.1,2.64c0,0.04,0.02,0.06,0.05,0.06c1.29-0.24,1.88,1.1,3.55,0.94c-0.15-0.39,0.01-0.8,0.01-0.8
					c0.13,0.35,0.45,0.59,0.67,0.71c0.59-0.13,0.98-0.42,1.07-0.59c0,0-0.63-0.52-0.22-1.46c0,0,0.4,0.63,1.22,0.29
					c0.07-0.03,0.06-0.08,0.01-0.1c-1.11-0.36-0.39-1.29-0.32-1.39C36.68,46.41,37.11,46.03,37.11,45.7z M33.49,42.54
					c-0.12,0.56-0.62,0.64-0.92,0.3C32.6,42.57,32.87,42.51,33.49,42.54z M21.71,33.15c0,0.14,0.06,0.26,0.11,0.33
					c0.1,0.14,0.08,0.22,0.04,0.26c-0.05,0.05-0.12,0.06-0.26-0.04c-0.07-0.05-0.19-0.11-0.33-0.11c-0.24,0-0.36,0.16-0.36,0.29
					c0,0.14,0.12,0.29,0.36,0.29c0.14,0,0.26-0.06,0.33-0.11c0.14-0.1,0.22-0.08,0.26-0.04c0.05,0.05-0.02,0.53-0.08,0.91
					c-0.4,0.08-0.59,0.4-0.59,0.59c0,0.48,0.51,0.76,0.82,0.92c0.3-0.16,0.82-0.44,0.82-0.92c0-0.19-0.19-0.51-0.59-0.59
					c-0.05-0.38-0.12-0.87-0.08-0.91c0.05-0.05,0.12-0.06,0.26,0.04c0.07,0.05,0.19,0.11,0.33,0.11c0.24,0,0.36-0.16,0.36-0.29
					c0-0.14-0.12-0.29-0.36-0.29c-0.14,0-0.26,0.06-0.33,0.11c-0.14,0.1-0.22,0.08-0.26,0.04c-0.05-0.05-0.06-0.12,0.04-0.26
					c0.05-0.07,0.11-0.19,0.11-0.33c0-0.24-0.16-0.36-0.29-0.36C21.86,32.79,21.71,32.91,21.71,33.15z M22,36.72
					c-0.32,0-0.59,0.26-0.59,0.59c0,0.32,0.26,0.59,0.59,0.59c0.32,0,0.59-0.26,0.59-0.59C22.59,36.98,22.32,36.72,22,36.72z
					 M22,42.35c2.35,0,3.67,0.45,3.67,0.45c0.01-1.18,0-1.85,0.68-1.75c-0.37-1,1.23-1.39,1.23-2.68c0-0.85-0.6-0.95-0.78-0.95
					c-0.53,0-0.45,0.35-0.9,0.35c-0.06,0-0.11-0.01-0.11,0.03c0,0.15,0.13,0.4,0.33,0.4c0.28,0,0.28-0.28,0.49-0.28
					c0.09,0,0.22,0.07,0.22,0.36c0,0.55-0.36,1.16-0.79,1.64c-0.1-0.14-0.23-0.22-0.39-0.22c-0.25,0-0.47,0.26-0.47,0.59
					c0,0.12,0.02,0.21,0.06,0.31c-0.14,0.08-0.27,0.12-0.36,0.12c-0.19,0-0.48-0.08-0.48-0.5c0-0.94,1.26-1.77,1.26-2.96
					c0-0.57-0.38-1.14-1.17-1.14c-0.85,0-0.69,0.78-1.43,0.78c-0.03,0-0.06,0.01-0.06,0.04c0,0.05,0.13,0.48,0.51,0.48
					c0.41,0,0.52-0.71,0.88-0.71c0.14,0,0.34,0.08,0.34,0.56c0,0.37-0.18,0.97-0.45,1.55c-0.1-0.1-0.23-0.17-0.37-0.17
					c-0.32,0-0.54,0.31-0.54,0.67c0,0.23,0.09,0.45,0.25,0.6c-0.19,0.24-0.38,0.43-0.63,0.43c-0.51,0-0.73-0.29-0.73-0.6
					c0-0.34,0.62-0.46,0.62-1c0-0.36-0.23-0.57-0.46-0.57c-0.24,0-0.37,0.16-0.39,0.16c-0.03,0-0.15-0.16-0.39-0.16
					c-0.23,0-0.46,0.2-0.46,0.57c0,0.53,0.62,0.66,0.62,1c0,0.31-0.22,0.6-0.73,0.6c-0.26,0-0.45-0.19-0.63-0.43
					c0.16-0.15,0.25-0.37,0.25-0.6c0-0.37-0.23-0.67-0.54-0.67c-0.15,0-0.28,0.07-0.37,0.17c-0.26-0.58-0.45-1.18-0.45-1.55
					c0-0.48,0.2-0.56,0.34-0.56c0.36,0,0.48,0.71,0.88,0.71c0.38,0,0.51-0.43,0.51-0.48c0-0.03-0.03-0.04-0.06-0.04
					c-0.74,0-0.58-0.78-1.43-0.78c-0.79,0-1.17,0.57-1.17,1.14c0,1.19,1.26,2.02,1.26,2.96c0,0.42-0.29,0.5-0.48,0.5
					c-0.1,0-0.22-0.05-0.36-0.12c0.04-0.1,0.06-0.19,0.06-0.31c0-0.33-0.22-0.59-0.47-0.59c-0.16,0-0.29,0.08-0.39,0.22
					c-0.43-0.47-0.79-1.09-0.79-1.64c0-0.28,0.13-0.36,0.22-0.36c0.21,0,0.21,0.28,0.49,0.28c0.21,0,0.33-0.26,0.33-0.4
					c0-0.04-0.06-0.03-0.11-0.03c-0.45,0-0.37-0.35-0.9-0.35c-0.18,0-0.78,0.1-0.78,0.95c0,1.3,1.6,1.69,1.23,2.68
					c0.68-0.1,0.67,0.56,0.68,1.75C18.33,42.8,19.65,42.35,22,42.35z M17.7,44.1c-0.64,0.14-1.1,0.27-1.3,0.33
					c0.01-0.28,0.12-0.54,0.37-0.6c0.03-0.01,0.04-0.05,0.01-0.07c-0.57-0.38-0.87,0.35-0.88,0.37c-0.2-0.02-0.51,0.05-0.51,0.32
					c0,0.82-1.86,1.27-2.3,1.33c0.76,0.29,1.08,1.25,1.08,1.25c0.55-0.55,1.2-1.04,1.34-1.04c0.15,0,0.2,0.18,0.21,0.29
					c0,0.04,0.04,0.05,0.06,0.02c0.29-0.43,0.15-0.53,0.13-0.66c-0.02-0.1,0.01-0.48,0.43-0.43v5.44l-0.22,0.04
					c-0.1,0.02-0.89-0.66-1.81-1.29c-0.91-0.63-1.4-0.25-2.44,0.31c-1.36,0.74-2.73,0.07-2.73,0.07c-1.17,0.84-1.57,3.26-1.57,3.26
					c-0.23,0.1-0.62,0.21-0.99,0.21c-0.89,0-1.06-0.54-1.06-0.87c0-1.38,1.73-1.97,1.73-3.33c0-0.33-0.15-1.67-1.81-1.67
					c-0.21,0-1.48,0-1.49,0c-0.62,0-0.78-0.45-0.86-0.62C3.06,46.7,3,46.74,3.02,46.79c0.05,0.11-0.07,0.29-0.07,0.63
					c0,0.55,0.32,0.88,0.93,0.88c0.28,0,0.53-0.08,0.62-0.13c0.06-0.03,0.09,0.02,0.06,0.05c-0.26,0.31-0.28,0.88-0.18,1.02
					c0.03,0.03,0.06,0.02,0.06,0c0.15-0.58,0.69-1.14,1.43-1.14c0.9,0,0.9,0.77,0.9,0.95c0,1.11-1.95,1.92-1.95,3.44
					c0,1.55,1.63,1.88,2.58,1.63c-0.06,1.55-1.83,2.07-1.88,0.97c0-0.05-0.04-0.07-0.07,0c-0.22,0.55-0.14,1.03,0.55,1.18
					c0.05,0.01,0.02,0.04-0.02,0.07C5.31,56.79,5.68,58.5,5.71,59c0.05,0.72-0.67,0.64-0.73,0.62c-0.03-0.01-0.06,0-0.01,0.06
					c0.51,0.62,1.14,0.05,1.14,0.05c0.48,0.15,0.18,0.56-0.14,0.77c-0.05,0.03-0.05,0.07,0.01,0.07c0.07,0,0.81,0.07,0.94-0.52
					c0.33,0.39,0.81,0.25,0.91,0.2c0.14-0.07,0.83-0.32,0.9,0.45c0,0.06,0.04,0.02,0.06-0.01c0.52-0.66-0.04-1.06-0.35-1.11
					c0.03-0.04,0.44-0.38,0.82,0.1c0.03,0.03,0.05,0.04,0.05-0.03c0.04-0.83-0.63-0.91-1.07-0.55c-0.02-0.09-0.17-0.55,0.49-0.54
					c0.02,0,0.05-0.02,0.01-0.06c-0.51-0.54-0.94-0.05-1.03,0.07c-0.23,0.27-0.8,0.16-0.85,0.16c0.18-2.89,2.72-1.87,3.07-3.27
					c0.02-0.07,0.05-0.05,0.06-0.02c0.1,0.34,0.96,0.39,1.12-0.28c0.01-0.04,0-0.07-0.03-0.04c-0.74,0.74-2.4-1.56-0.13-3.43
					c1.93-1.59,3.67-0.71,4.32-0.18c0.03,0.23-0.1,0.31-0.19,0.33c-0.03,0.01-0.04,0.04,0.01,0.06c0.18,0.07,0.44,0.05,0.57-0.12
					c0.42,0.29,0.06,0.66-0.11,0.76c-0.04,0.03-0.02,0.05,0.01,0.06c0.38,0.07,0.69-0.32,0.71-0.54l0.06,0.04v1.64
					c0,2.34,2.7,2.66,5.66,4.64c2.96-1.98,5.66-2.31,5.66-4.64v-1.64l0.06-0.04c0.02,0.22,0.33,0.61,0.71,0.54
					c0.04-0.01,0.05-0.03,0.01-0.06c-0.17-0.1-0.52-0.47-0.11-0.76c0.12,0.17,0.38,0.19,0.57,0.12c0.05-0.02,0.04-0.05,0.01-0.06
					c-0.09-0.03-0.23-0.1-0.19-0.33c0.66-0.52,2.39-1.41,4.32,0.18c2.26,1.87,0.6,4.17-0.13,3.43c-0.03-0.03-0.04,0-0.03,0.04
					c0.16,0.68,1.02,0.63,1.12,0.28c0.01-0.03,0.04-0.05,0.06,0.02c0.35,1.4,2.9,0.38,3.07,3.27c-0.05,0.01-0.62,0.11-0.85-0.16
					c-0.1-0.12-0.52-0.61-1.03-0.07c-0.03,0.03,0,0.06,0.01,0.06c0.66-0.02,0.52,0.45,0.49,0.54c-0.44-0.36-1.11-0.29-1.07,0.55
					c0,0.07,0.03,0.06,0.05,0.03c0.38-0.48,0.79-0.13,0.82-0.1c-0.31,0.05-0.87,0.45-0.35,1.11c0.02,0.03,0.05,0.07,0.06,0.01
					c0.07-0.78,0.76-0.52,0.9-0.45c0.1,0.05,0.58,0.19,0.91-0.2c0.13,0.59,0.87,0.52,0.94,0.52c0.05,0,0.06-0.04,0.01-0.07
					c-0.32-0.21-0.61-0.62-0.14-0.77c0,0,0.63,0.57,1.14-0.05c0.04-0.06,0.02-0.07-0.01-0.06c-0.06,0.02-0.78,0.11-0.73-0.62
					c0.03-0.5,0.4-2.21-0.28-2.64c-0.04-0.03-0.07-0.05-0.02-0.07c0.69-0.15,0.78-0.63,0.55-1.18c-0.03-0.07-0.07-0.06-0.07,0
					c-0.05,1.11-1.82,0.58-1.88-0.97c0.95,0.24,2.58-0.09,2.58-1.63c0-1.52-1.95-2.34-1.95-3.44c0-0.19,0-0.95,0.9-0.95
					c0.74,0,1.28,0.55,1.43,1.14c0.01,0.03,0.04,0.04,0.06,0c0.11-0.14,0.09-0.72-0.18-1.02c-0.03-0.03,0-0.08,0.06-0.05
					c0.08,0.05,0.34,0.13,0.62,0.13c0.6,0,0.93-0.33,0.93-0.88c0-0.35-0.12-0.52-0.07-0.63c0.02-0.05-0.04-0.09-0.07-0.02
					c-0.09,0.17-0.24,0.62-0.86,0.62c-0.01,0-1.27,0-1.49,0c-1.66,0-1.81,1.34-1.81,1.67c0,1.36,1.73,1.95,1.73,3.33
					c0,0.32-0.16,0.87-1.06,0.87c-0.37,0-0.75-0.1-0.99-0.21c0,0-0.4-2.42-1.57-3.26c0,0-1.37,0.67-2.73-0.07
					c-1.04-0.56-1.53-0.94-2.44-0.31c-0.91,0.63-1.71,1.31-1.8,1.29l-0.22-0.04v-5.44c0.42-0.04,0.45,0.33,0.43,0.43
					c-0.02,0.13-0.16,0.23,0.13,0.66c0.02,0.03,0.06,0.02,0.06-0.02c0.01-0.11,0.07-0.29,0.21-0.29c0.14,0,0.79,0.49,1.34,1.04
					c0,0,0.32-0.96,1.08-1.25c-0.43-0.07-2.3-0.52-2.3-1.33c0-0.27-0.31-0.34-0.51-0.32c-0.01-0.02-0.31-0.75-0.88-0.37
					c-0.03,0.02-0.02,0.06,0.01,0.07c0.25,0.06,0.36,0.32,0.37,0.6c-0.54-0.17-2.86-0.82-5.6-0.82c-1.33,0-2.56,0.15-3.54,0.33v1.89
					H17.7V44.1L17.7,44.1 M12.64,63.42c-0.2-0.08-0.34-0.21-0.34-0.48v-1.17c-0.34-0.12-1.25-0.47-3.08-0.47
					c-1.52,0-2,0.34-2.02,0.46l-0.4,2.23c0,0,0.62-0.56,2.82-0.42c2.66,0.17,5.41,1.74,5.41,0.07v-0.98
					C12.94,62.66,12.64,63.32,12.64,63.42z M28.98,62.66v0.98c0,1.67,2.75,0.1,5.41-0.07c2.2-0.14,2.82,0.42,2.82,0.42l-0.4-2.23
					c-0.02-0.12-0.5-0.46-2.02-0.46c-1.83,0-2.75,0.35-3.08,0.47v1.17c0,0.27-0.13,0.4-0.34,0.48
					C31.36,63.32,31.06,62.66,28.98,62.66z M22,61.65c4.28,0,8.62,0.22,9.19,0.87c0.05,0.05,0.06,0,0.06-0.04l0-2.27
					c0-0.66-4.48-1.05-9.25-1.05c-4.77,0-9.25,0.38-9.25,1.05l0,2.27c0,0.04,0.02,0.09,0.06,0.04C13.38,61.87,17.72,61.65,22,61.65z
					 M18.19,50.96l-0.43-0.11l-0.04,0.05l-0.5-0.22c0,0,0.37,0,0.45,0c0.04,0,0.04-0.03,0.02-0.05c-0.2-0.2-0.38-0.38-0.38-0.38
					s0.2,0.08,0.5,0.18c0.03,0.01,0.05-0.01,0.03-0.03c-0.14-0.21-0.33-0.48-0.33-0.48s0.4,0.27,0.49,0.33
					c0.03,0.02,0.05,0,0.04-0.03c-0.11-0.27-0.23-0.57-0.23-0.57l0.44,0.42c0.02,0.02,0.04,0.01,0.04-0.02
					c-0.04-0.2-0.12-0.57-0.12-0.57l0.33,0.48c0.02,0.03,0.04,0.02,0.04-0.01c0-0.09,0.01-0.52,0.01-0.52s0.14,0.31,0.21,0.48
					c0.01,0.03,0.04,0.03,0.06-0.01c0.02-0.05,0.17-0.4,0.17-0.4l0.02,0.54l-0.07,0.01l-0.09,0.65c0.65-0.15,1.45-1.26,2.07-1.26
					c0.73,0,1,0.86,2.36,0.42c0.34,0.51,0.46,0.95,0.59,1.56c0.52,0.49,1.26,0.33,1.26-0.19c0-0.7-0.77-0.84-0.77-1.57
					c0-0.33,0.23-0.8,0.86-0.8c0.33,0,0.82,0.14,1.1,0.14c0.33,0,0.4-0.24,0.44-0.34c0.03-0.07,0.12-0.05,0.11,0.01
					c-0.01,0.07,0.04,0.16,0.04,0.32c0,0.46-0.68,0.52-0.76,0.47c-0.03-0.02-0.06,0.01-0.03,0.03c0.1,0.08,0.08,0.36-0.04,0.53
					c-0.01,0.02-0.03,0.02-0.04,0c-0.07-0.33-0.46-0.74-0.81-0.74c-0.13,0-0.38,0.07-0.38,0.37c0,0.42,0.84,0.8,0.84,1.66
					c0,0.9-0.89,1.11-1.79,0.89c0.03,0.85,1.3,1.36,1.33,0.75c0-0.04,0.02-0.02,0.04,0c0.19,0.26,0.1,0.46-0.14,0.56
					c0.22,0.1,0.26,0.55,0.33,0.81c0.1,0.4,0.52,0.18,0.54,0.17c0.02-0.01,0.03,0,0.02,0.02c-0.16,0.42-0.59,0.26-0.59,0.26
					c-0.22,0.16,0.05,0.3,0.25,0.36c0.03,0.01,0.03,0.03,0,0.04c-0.15,0.05-0.47,0.15-0.62-0.11c-0.11,0.28-0.35,0.27-0.44,0.27
					c-0.16,0-0.27,0.17-0.23,0.39c0,0.02-0.01,0.03-0.03,0.01c-0.39-0.26-0.17-0.56-0.01-0.64c-0.03-0.02-0.3-0.13-0.41,0.19
					c-0.01,0.02-0.02,0.03-0.03,0c-0.17-0.45,0.2-0.59,0.47-0.47c-0.02-0.06-0.16-0.29-0.51-0.21c-0.02,0-0.03,0-0.02-0.02
					c0.06-0.14,0.23-0.34,0.55-0.14c0.16,0.1,0.45-0.05,0.47-0.06c-0.57-1.13-1.67-0.18-1.92-1.07c0-0.02-0.03-0.03-0.04,0.01
					c-0.06,0.19-0.54,0.2-0.63-0.17c-0.01-0.03,0-0.03,0.02-0.01c0.07,0.07,0.22,0.14,0.42-0.15c0.13-0.19,0.15-0.44,0.15-0.62
					c0-0.69-0.69-1.84-1.76-1.84c-0.68,0-1.41,0.26-1.95,0.66l0.5,0.12c-0.05,0.51-0.54,0.81-0.99,0.68l0.08-0.58
					c-0.08,0.02-0.28,0.09-0.38,0.24c-0.01,0.01-0.02,0.01-0.03,0c-0.09-0.33,0.18-0.5,0.27-0.54c0.01-0.01,0.01-0.01-0.01-0.01
					c-0.24-0.01-0.38,0.17-0.42,0.23c-0.01,0.01-0.02,0.01-0.02,0C18.11,51.25,18.07,51.08,18.19,50.96z M19.68,54.89
					c-0.19,0.24-0.36,0.01-0.62,0.01c-0.24,0-0.28,0.2-0.28,0.28c0,0.01-0.01,0.02-0.02,0c-0.27-0.37,0.03-0.57,0.21-0.6
					c-0.03-0.03-0.29-0.2-0.46,0.04c-0.01,0.02-0.03,0.01-0.03-0.01c-0.01-0.46,0.35-0.49,0.59-0.29c0.04-0.17-0.07-0.29-0.26-0.3
					c-0.02,0-0.03-0.02-0.02-0.03c0.08-0.09,0.16-0.13,0.24-0.13c0.25,0,0.29,0.32,0.45,0.32c0.25,0,0.6-0.34,0.64-0.37
					c-0.01-0.02-0.25-0.66-0.2-1.05c0-0.02-0.01-0.02-0.02-0.01c-0.12,0.07-0.43,0.07-0.43-0.31c0-0.03,0.01-0.03,0.03-0.01
					c0.13,0.19,0.35-0.02,0.46-0.15c0.12-0.13,0.75-1.04,1.58-1.04c0.18,0,0.42,0.1,0.61,0.23c-0.29,0.35,0,0.69,0.21,0.65
					c0.03,0,0.03,0.02,0.01,0.03c-1.11,0.42-1.6,0.58-1.6,1.51c0,0.48,0.17,0.75,0.45,0.69c0.02-0.01,0.03,0,0.01,0.02
					c-0.1,0.12-0.22,0.16-0.32,0.16c-0.23,0-0.27-0.13-0.39-0.13c-0.13,0-0.54,0.24-0.54,0.45c0,0.08,0.05,0.18,0.19,0.28
					c0.01,0.01,0,0.01,0,0.02C20.08,55.18,19.76,55.2,19.68,54.89z M22.6,45.88c-0.35-0.02-0.57,0.06-0.56,0.17
					C22.21,46.23,22.43,46.21,22.6,45.88z M21.32,46.74c0.24-0.06,0.51-0.03,0.54-0.02c0.04,0.01,0.04,0.07-0.01,0.08
					c-0.51,0.07-0.53,0.3-0.86,0.3c-0.21,0-0.45-0.22-0.36-0.53c0.01-0.04,0.04-0.04,0.05,0C20.72,46.69,20.92,46.84,21.32,46.74z
					 M14.7,58.04c0.34,0.43,0.66,0.03,1.1,0.03c0.22,0,0.48,0.07,0.53,0.51c0,0.02,0.02,0.03,0.04,0c0.48-0.66-0.07-1.03-0.38-1.08
					c0.07-0.06,0.54-0.35,0.84,0.08c0.02,0.02,0.05,0.02,0.05-0.02c0-0.83-0.63-0.89-1.08-0.53c-0.09-0.33,0.16-0.54,0.48-0.54
					c0.04,0,0.05-0.03,0.03-0.05c-0.56-0.6-0.98,0.15-1.07,0.27c-0.22,0.3-1.02-0.26-1.34-0.59c0,0,0.71-0.74,0.71-1.42
					c0-0.04,0-0.1,0-0.12c0-0.02,0.01-0.03,0.03-0.02c0.07,0.04,0.17,0.07,0.26,0.07c0.16,0,0.47-0.05,0.47-0.62
					c0-0.04-0.02-0.04-0.04-0.02c-0.08,0.12-0.18,0.15-0.25,0.15c-0.57,0-1.76-1.9-3.16-1.9c-0.37,0-1.06,0.26-1.41,0.64
					c0.17,0.1,0.2,0.31,0.18,0.46c-0.03,0.24-0.22,0.36-0.41,0.42c-0.03,0.01-0.04,0.03,0,0.05c0.71,0.27,2,0.76,2.29,1.01
					c0.35,0.3,0.28,0.87,0.08,1.65c-0.19,0.75-0.61,0.65-0.76,0.62c-0.02,0-0.03,0.01-0.02,0.03c0.18,0.23,0.41,0.31,0.6,0.31
					c0.37,0,0.51-0.23,0.7-0.23c0.32,0,0.99,0.46,0.99,0.81c0,0.2-0.15,0.37-0.35,0.5c-0.01,0.01-0.01,0.02,0.01,0.03
					C13.95,58.55,14.58,58.6,14.7,58.04z M30.2,58.53c0.02,0,0.02-0.02,0.01-0.03c-0.2-0.13-0.35-0.31-0.35-0.5
					c0-0.35,0.67-0.81,0.99-0.81c0.19,0,0.33,0.23,0.7,0.23c0.19,0,0.41-0.08,0.6-0.31c0.01-0.02,0.01-0.03-0.02-0.03
					c-0.15,0.02-0.57,0.13-0.76-0.62c-0.2-0.78-0.27-1.35,0.08-1.65c0.29-0.25,1.58-0.74,2.29-1.01c0.04-0.02,0.03-0.04,0-0.05
					c-0.2-0.05-0.39-0.17-0.41-0.42c-0.02-0.15,0.01-0.36,0.18-0.46c-0.35-0.38-1.04-0.64-1.41-0.64c-1.4,0-2.59,1.9-3.16,1.9
					c-0.07,0-0.16-0.03-0.25-0.15c-0.02-0.03-0.04-0.03-0.04,0.02c0,0.57,0.3,0.62,0.47,0.62c0.09,0,0.19-0.03,0.26-0.07
					c0.02-0.01,0.03,0,0.03,0.02c0,0.02,0,0.08,0,0.12c0,0.68,0.71,1.42,0.71,1.42c-0.32,0.33-1.12,0.89-1.34,0.59
					c-0.1-0.12-0.51-0.87-1.07-0.27c-0.02,0.02-0.01,0.05,0.03,0.05c0.31,0,0.56,0.21,0.48,0.54c-0.45-0.36-1.08-0.3-1.08,0.53
					c0,0.03,0.03,0.04,0.05,0.02c0.3-0.43,0.77-0.14,0.84-0.08c-0.32,0.05-0.87,0.42-0.38,1.08c0.02,0.03,0.04,0.02,0.04,0
					c0.05-0.43,0.31-0.51,0.53-0.51c0.44,0,0.77,0.41,1.1-0.03C29.42,58.6,30.05,58.55,30.2,58.53z M18.85,47.56
					c-0.04,0.06-0.19,0-0.25-0.03c-0.01-0.01-0.02,0-0.01,0.01c0.04,0.08,0.18,0.32,0.39,0.32c0.1,0,0.23-0.06,0.27-0.12
					c0,0,0.83,0.27,1.23,0.38c-0.16,0.21-0.26,0.47-0.28,0.74c-0.33-0.2-1.65-0.91-1.65-0.91l-0.41,0.56
					c-0.07,0.09-0.39-0.15-0.33-0.24l0.31-0.43c-0.1-0.11-0.35-0.04-0.42-0.02c-0.01,0-0.02,0-0.01-0.02
					c0.04-0.08,0.19-0.34,0.58-0.23c0-0.24-0.35-0.16-0.44-0.14c-0.01,0-0.01,0,0-0.01c0.1-0.1,0.38-0.33,0.7-0.14l0.14-0.19
					l-0.28-0.3l0.18-0.24l0.2,0.27l1.52-2.08c0.04-0.05,0.34-0.14,0.45-0.16c0.01,0.12,0.02,0.43-0.01,0.48l-1.5,2.1l0.32,0.1
					l-0.17,0.24l-0.37-0.17L18.85,47.56z M24.18,47.22c0,0.19,0.12,0.47,0.37,0.39c0.01-0.01,0.02,0,0.02,0.01
					c-0.04,0.21-0.42,0.41-0.59,0.16c-0.15,0.33-0.12,0.63,0.21,0.81c0.02,0.01,0.02,0.03,0,0.05c-0.2,0.14-0.51,0.11-0.65-0.17
					c-0.27,0.21-0.23,0.64-0.07,0.79c0,0-0.76,0.45-1.44,0.13c-0.45-0.22-0.82-0.5-1.41-0.45c0.08-0.82,0.49-1.04,1.25-1.16
					c0.6-0.1,0.68-0.38,0.59-0.59c-0.21-0.05-0.58,0.13-0.58,0.13c-0.07-0.11,0.03-0.23,0.03-0.23c-0.04-0.05-0.06-0.2-0.06-0.2
					c0.42,0,0.5-0.09,0.5-0.09c0.08-0.44-0.37-0.49-0.71-0.25c-0.16-0.14-0.13-0.33-0.13-0.33c-0.05-0.02-0.08-0.1-0.08-0.13
					c0-0.1,0.5-0.39,0.63-0.42c0.03-0.15,0.21-0.35,0.75-0.3c0.06-0.14-0.04-0.66-0.1-0.79c-0.02-0.04,0.01-0.07,0.06-0.04
					c0.19,0.12,0.37,0.55,0.5,0.56c0,0,0.6-0.31,0.63-0.3c0.03,0.02,0.11,0.68,0.11,0.68c0.08,0.1,0.54,0,0.74,0.09
					c0.05,0.02,0.05,0.06,0,0.07c-0.15,0.03-0.63,0.23-0.71,0.37C24.31,46.44,24.18,47.05,24.18,47.22z"/>
			</g>
		</g>
	</g>
</g>
<g>
	<path class="st2" d="M60.65,46.08c-0.17,0.06-0.37,0.08-0.59,0.08c-0.15,0-0.29-0.01-0.41-0.04c-0.12-0.04-0.25-0.08-0.36-0.17
		c-0.12-0.08-0.23-0.18-0.34-0.3c-0.11-0.12-0.23-0.28-0.36-0.47l-1.81-2.75h-0.65v2.9l0.87,0.22v0.3
		c-0.23,0.07-0.47,0.12-0.73,0.17c-0.25,0.04-0.54,0.07-0.84,0.07c-0.23,0-0.47-0.01-0.67-0.03c-0.22-0.03-0.41-0.05-0.62-0.11
		v-0.26c0.26-0.08,0.47-0.19,0.6-0.34c0.12-0.15,0.19-0.38,0.19-0.7V37.9l-0.87-0.27v-0.3c0.22-0.04,0.43-0.07,0.63-0.1
		c0.22-0.03,0.43-0.04,0.65-0.07c0.23-0.01,0.45-0.03,0.7-0.03c0.23-0.01,0.48-0.01,0.76-0.01c1.04,0,1.81,0.19,2.31,0.59
		c0.51,0.4,0.76,0.97,0.76,1.73c0,0.34-0.04,0.65-0.14,0.94c-0.1,0.27-0.22,0.52-0.4,0.74c-0.17,0.22-0.37,0.41-0.62,0.56
		c-0.25,0.17-0.52,0.29-0.82,0.38l1.94,2.6c0.17,0.22,0.36,0.41,0.58,0.58c0.22,0.15,0.45,0.28,0.7,0.36v0.26
		C60.98,45.95,60.83,46.02,60.65,46.08z M58.11,38.35c-0.33-0.32-0.8-0.47-1.39-0.47c-0.1,0-0.19,0.01-0.3,0.01
		c-0.1,0.01-0.21,0.03-0.29,0.04v3.85h0.54c0.26,0,0.52-0.04,0.76-0.14c0.23-0.08,0.44-0.22,0.62-0.4c0.18-0.17,0.32-0.4,0.43-0.66
		c0.1-0.26,0.15-0.58,0.15-0.93C58.61,39.09,58.45,38.65,58.11,38.35z"/>
	<path class="st2" d="M63.91,45.95c-0.12,0.03-0.23,0.06-0.37,0.07c-0.12,0.01-0.26,0.03-0.4,0.04c-0.15,0-0.3,0.01-0.48,0.01
		c-0.15,0-0.33-0.01-0.51-0.03c-0.19-0.01-0.37-0.04-0.52-0.1v-0.23c0.1-0.03,0.18-0.07,0.27-0.12c0.08-0.05,0.17-0.11,0.23-0.18
		c0.07-0.05,0.12-0.12,0.17-0.21c0.04-0.07,0.05-0.15,0.05-0.23v-4.64l-0.88-0.37v-0.29c0.32-0.1,0.62-0.15,0.91-0.19
		c0.29-0.06,0.54-0.07,0.73-0.07h0.44l-0.07,0.74v5.22l0.77,0.21v0.26C64.13,45.89,64.02,45.93,63.91,45.95z M63.65,37.64
		c-0.04,0.1-0.1,0.19-0.16,0.26c-0.07,0.08-0.15,0.14-0.25,0.18c-0.1,0.05-0.19,0.07-0.3,0.07c-0.1,0-0.19-0.01-0.29-0.05
		c-0.08-0.04-0.17-0.1-0.23-0.17c-0.06-0.07-0.11-0.15-0.15-0.25c-0.04-0.1-0.06-0.21-0.06-0.32c0-0.11,0.01-0.21,0.06-0.3
		c0.03-0.1,0.08-0.18,0.15-0.26c0.07-0.08,0.15-0.14,0.25-0.18c0.1-0.04,0.21-0.07,0.33-0.07c0.1,0,0.19,0.01,0.28,0.05
		c0.08,0.03,0.16,0.08,0.23,0.15c0.07,0.05,0.11,0.14,0.15,0.23c0.04,0.08,0.06,0.19,0.06,0.3C63.71,37.42,63.69,37.53,63.65,37.64z
		"/>
	<path class="st2" d="M67.1,40.19v6.17c0,0.56-0.04,1.03-0.12,1.42c-0.08,0.37-0.19,0.67-0.33,0.91c-0.14,0.23-0.3,0.4-0.49,0.5
		c-0.19,0.1-0.4,0.14-0.6,0.14c-0.16,0-0.3-0.03-0.44-0.08c-0.14-0.05-0.25-0.14-0.34-0.25v-0.22c0.15,0,0.3-0.04,0.45-0.12
		c0.14-0.1,0.27-0.22,0.38-0.4c0.11-0.18,0.21-0.4,0.26-0.66c0.07-0.26,0.11-0.56,0.11-0.91v-6.33l-0.88-0.37v-0.29
		c0.32-0.1,0.62-0.15,0.91-0.19c0.29-0.06,0.54-0.07,0.73-0.07h0.45L67.1,40.19z M67.26,37.64c-0.04,0.1-0.08,0.19-0.15,0.26
		c-0.08,0.08-0.15,0.14-0.25,0.18c-0.1,0.05-0.19,0.07-0.3,0.07c-0.11,0-0.21-0.01-0.29-0.05c-0.1-0.04-0.17-0.1-0.23-0.17
		c-0.07-0.07-0.12-0.15-0.15-0.25c-0.04-0.1-0.05-0.21-0.05-0.32c0-0.11,0.01-0.21,0.04-0.3c0.04-0.1,0.1-0.18,0.17-0.26
		c0.07-0.08,0.15-0.14,0.25-0.18c0.1-0.04,0.21-0.07,0.33-0.07c0.08,0,0.18,0.01,0.26,0.05c0.1,0.03,0.17,0.08,0.23,0.15
		c0.07,0.05,0.11,0.14,0.15,0.23c0.04,0.08,0.05,0.19,0.05,0.3C67.31,37.42,67.3,37.53,67.26,37.64z"/>
	<path class="st2" d="M74.29,46.01c-0.17,0.04-0.34,0.07-0.55,0.07c-0.19,0-0.37-0.04-0.54-0.12c-0.16-0.08-0.3-0.22-0.44-0.4
		l-2.24-2.95v2.78l0.71,0.22v0.26c-0.12,0.04-0.25,0.08-0.37,0.1c-0.11,0.03-0.23,0.06-0.36,0.07c-0.12,0.03-0.25,0.04-0.38,0.04
		c-0.12,0.01-0.27,0.01-0.44,0.01c-0.15,0-0.33-0.01-0.51-0.03c-0.19-0.01-0.37-0.04-0.52-0.1v-0.23c0.1-0.03,0.19-0.07,0.27-0.12
		c0.1-0.05,0.17-0.11,0.23-0.18c0.07-0.05,0.12-0.12,0.18-0.21c0.04-0.07,0.05-0.15,0.05-0.23v-7.97l-0.91-0.37v-0.3
		c0.32-0.1,0.63-0.15,0.92-0.19c0.29-0.03,0.54-0.05,0.73-0.05h0.47l-0.08,0.77v5.49l0.75-0.66c0.18-0.16,0.37-0.33,0.54-0.52
		c0.17-0.19,0.32-0.38,0.45-0.58c0.12-0.19,0.23-0.4,0.3-0.58c0.08-0.19,0.12-0.37,0.12-0.52c0.12-0.04,0.25-0.07,0.36-0.08
		c0.11-0.01,0.23-0.03,0.37-0.03c0.11,0,0.21,0.01,0.29,0.03c0.08,0.03,0.18,0.06,0.26,0.1c0,0.15-0.06,0.32-0.12,0.49
		c-0.08,0.19-0.19,0.4-0.34,0.61c-0.15,0.21-0.36,0.43-0.58,0.65c-0.23,0.22-0.51,0.45-0.82,0.67l-0.48,0.34l2.12,2.57
		c0.19,0.23,0.37,0.4,0.55,0.51c0.16,0.1,0.33,0.15,0.47,0.15v0.29C74.6,45.89,74.44,45.97,74.29,46.01z"/>
	<path class="st2" d="M79.36,44.91c-0.12,0.23-0.3,0.45-0.52,0.63c-0.22,0.19-0.49,0.34-0.81,0.45c-0.3,0.11-0.66,0.16-1.04,0.16
		c-0.6,0-1.04-0.1-1.32-0.29c-0.29-0.18-0.43-0.47-0.43-0.84c0-0.1,0.01-0.19,0.03-0.3c0.03-0.1,0.05-0.18,0.1-0.26
		c0.3,0.29,0.62,0.51,0.92,0.65c0.32,0.15,0.65,0.22,1.02,0.22c0.38,0,0.67-0.08,0.88-0.25c0.19-0.16,0.29-0.36,0.29-0.6
		c0-0.12-0.01-0.23-0.05-0.33c-0.04-0.1-0.11-0.19-0.19-0.29c-0.1-0.1-0.22-0.18-0.37-0.28c-0.14-0.08-0.33-0.18-0.56-0.28
		l-0.69-0.29c-0.4-0.16-0.7-0.4-0.92-0.69c-0.21-0.29-0.32-0.62-0.32-1.02c0-0.28,0.05-0.54,0.17-0.77
		c0.12-0.25,0.29-0.47,0.49-0.64c0.21-0.18,0.45-0.33,0.76-0.44c0.29-0.11,0.62-0.17,0.98-0.17c0.27,0,0.51,0.03,0.7,0.07
		c0.19,0.03,0.36,0.1,0.48,0.16c0.12,0.07,0.22,0.17,0.28,0.26c0.05,0.11,0.08,0.23,0.08,0.36c0,0.11,0,0.21-0.01,0.29
		c-0.01,0.1-0.04,0.19-0.05,0.29c-0.22-0.15-0.47-0.28-0.76-0.37c-0.27-0.1-0.55-0.15-0.81-0.15c-0.22,0-0.41,0.03-0.58,0.07
		c-0.16,0.04-0.29,0.11-0.4,0.18c-0.11,0.08-0.19,0.18-0.25,0.28c-0.04,0.11-0.07,0.22-0.07,0.33c0,0.12,0.01,0.23,0.04,0.33
		c0.04,0.11,0.1,0.19,0.18,0.28c0.08,0.1,0.19,0.18,0.33,0.25c0.14,0.08,0.32,0.15,0.52,0.23l0.74,0.29
		c0.25,0.1,0.45,0.21,0.63,0.32c0.17,0.11,0.32,0.23,0.43,0.37c0.1,0.15,0.18,0.3,0.23,0.47c0.04,0.17,0.07,0.36,0.07,0.55
		C79.54,44.4,79.48,44.66,79.36,44.91z"/>
	<path class="st2" d="M86.36,44.02c-0.18,0.45-0.41,0.84-0.71,1.17c-0.3,0.32-0.65,0.56-1.03,0.73c-0.4,0.18-0.8,0.26-1.2,0.26
		c-0.41,0-0.81-0.07-1.17-0.22c-0.37-0.14-0.69-0.34-0.96-0.62c-0.26-0.26-0.48-0.6-0.65-0.99c-0.15-0.4-0.23-0.84-0.23-1.35
		c0-0.56,0.1-1.07,0.26-1.53c0.18-0.45,0.43-0.85,0.71-1.17c0.3-0.31,0.65-0.56,1.03-0.74c0.38-0.18,0.8-0.26,1.22-0.26
		c0.43,0,0.81,0.08,1.18,0.23c0.37,0.15,0.69,0.36,0.95,0.65c0.27,0.28,0.48,0.61,0.63,0.99c0.16,0.4,0.23,0.83,0.23,1.31
		C86.63,43.04,86.55,43.56,86.36,44.02z M85.23,41.53c-0.1-0.3-0.23-0.56-0.4-0.78c-0.18-0.21-0.37-0.37-0.59-0.48
		c-0.22-0.11-0.45-0.16-0.7-0.16c-0.23,0-0.47,0.07-0.69,0.18c-0.23,0.12-0.44,0.29-0.6,0.52c-0.18,0.23-0.33,0.52-0.43,0.87
		c-0.11,0.34-0.16,0.74-0.16,1.2c0,0.41,0.05,0.78,0.15,1.08c0.1,0.32,0.23,0.58,0.4,0.8c0.18,0.21,0.37,0.37,0.59,0.48
		c0.22,0.1,0.45,0.15,0.7,0.15c0.23,0,0.45-0.06,0.69-0.17c0.22-0.11,0.43-0.29,0.6-0.52c0.18-0.22,0.32-0.51,0.43-0.87
		c0.11-0.34,0.17-0.76,0.17-1.22C85.39,42.2,85.33,41.85,85.23,41.53z"/>
	<path class="st2" d="M92.86,40.06l-2.43,6.06l-0.48,0.03l-2.32-6l-0.56-0.4v-0.33h2.61v0.33l-0.78,0.33l1.5,4.35h0.01l1.52-4.31
		l-0.8-0.37v-0.33h2.13v0.33L92.86,40.06z"/>
	<path class="st2" d="M98.93,42.77h-4.05c0,0.38,0.05,0.73,0.15,1.03c0.11,0.3,0.26,0.55,0.44,0.76c0.18,0.21,0.4,0.37,0.65,0.48
		c0.25,0.11,0.51,0.16,0.8,0.16c0.17,0,0.33-0.01,0.51-0.04c0.18-0.03,0.34-0.07,0.51-0.12c0.18-0.04,0.33-0.11,0.49-0.18
		c0.15-0.08,0.3-0.17,0.43-0.25c0.01,0.03,0.03,0.08,0.04,0.15c0.01,0.07,0.01,0.14,0.01,0.21c0,0.17-0.06,0.32-0.17,0.45
		c-0.11,0.14-0.26,0.27-0.47,0.38c-0.21,0.11-0.45,0.19-0.74,0.26c-0.3,0.07-0.63,0.1-0.99,0.1c-0.4,0-0.76-0.07-1.1-0.22
		c-0.36-0.15-0.65-0.36-0.91-0.63c-0.26-0.28-0.47-0.61-0.62-0.99c-0.14-0.38-0.22-0.82-0.22-1.3c0-0.59,0.08-1.13,0.25-1.6
		c0.16-0.45,0.38-0.84,0.66-1.15c0.26-0.3,0.56-0.55,0.91-0.7c0.34-0.16,0.7-0.25,1.06-0.25c0.37,0,0.7,0.06,1,0.18
		c0.29,0.12,0.54,0.29,0.74,0.51c0.21,0.23,0.36,0.5,0.47,0.81c0.11,0.33,0.16,0.67,0.16,1.07c0,0.14,0,0.26,0,0.41
		C98.95,42.44,98.95,42.6,98.93,42.77z M97.74,41.17c-0.07-0.25-0.17-0.45-0.29-0.62c-0.12-0.16-0.26-0.29-0.44-0.37
		c-0.17-0.08-0.36-0.12-0.55-0.12c-0.19,0-0.37,0.06-0.56,0.17c-0.19,0.1-0.36,0.25-0.49,0.43c-0.15,0.18-0.26,0.4-0.36,0.63
		c-0.1,0.25-0.14,0.49-0.14,0.77h2.94C97.85,41.71,97.81,41.42,97.74,41.17z"/>
	<path class="st2" d="M104.11,40.35c-0.04,0.15-0.1,0.29-0.17,0.41c-0.12-0.1-0.26-0.18-0.41-0.23s-0.29-0.08-0.44-0.08
		c-0.43,0-0.82,0.19-1.21,0.56v4.37l0.95,0.21v0.26c-0.11,0.04-0.23,0.08-0.36,0.11c-0.11,0.03-0.23,0.06-0.37,0.07
		c-0.14,0.01-0.29,0.03-0.44,0.04c-0.16,0-0.34,0.01-0.54,0.01c-0.21,0-0.4-0.01-0.58-0.03c-0.19-0.01-0.37-0.04-0.52-0.1v-0.23
		c0.1-0.03,0.18-0.07,0.26-0.12c0.1-0.05,0.16-0.11,0.23-0.18c0.07-0.05,0.12-0.12,0.18-0.21c0.04-0.07,0.05-0.15,0.05-0.23v-4.64
		l-0.89-0.37v-0.3c0.32-0.1,0.62-0.15,0.91-0.19c0.29-0.04,0.54-0.06,0.74-0.06h0.33v0.96h0.01l0.38-0.43
		c0.18-0.21,0.38-0.36,0.58-0.45c0.19-0.1,0.4-0.15,0.63-0.15c0.48,0,0.71,0.19,0.71,0.59C104.16,40.06,104.15,40.2,104.11,40.35z"
		/>
	<path class="st2" d="M110.73,46.02c-0.25,0.03-0.51,0.05-0.81,0.05c-0.14,0-0.29-0.01-0.44-0.03c-0.17-0.01-0.3-0.04-0.44-0.1
		v-0.23c0.16-0.08,0.29-0.18,0.37-0.33c0.08-0.14,0.12-0.33,0.12-0.58v-2.62c0-0.33-0.03-0.62-0.1-0.85
		c-0.07-0.25-0.17-0.44-0.27-0.58c-0.12-0.15-0.28-0.26-0.44-0.33c-0.18-0.07-0.37-0.1-0.59-0.1c-0.12,0-0.26,0.01-0.4,0.03
		c-0.12,0.03-0.26,0.05-0.37,0.1c-0.12,0.04-0.23,0.08-0.34,0.14c-0.1,0.05-0.19,0.11-0.27,0.16v4.62l0.77,0.21v0.26
		c-0.12,0.04-0.23,0.08-0.34,0.11c-0.12,0.03-0.23,0.06-0.37,0.07c-0.12,0.01-0.26,0.03-0.4,0.04c-0.15,0-0.3,0.01-0.48,0.01
		c-0.15,0-0.33-0.01-0.51-0.03c-0.19-0.01-0.37-0.04-0.52-0.1v-0.23c0.1-0.03,0.18-0.07,0.27-0.12c0.08-0.05,0.17-0.11,0.23-0.18
		c0.07-0.05,0.12-0.12,0.17-0.21c0.04-0.07,0.05-0.15,0.05-0.23v-7.97l-0.89-0.37v-0.3c0.32-0.1,0.6-0.15,0.88-0.19
		c0.27-0.03,0.54-0.05,0.77-0.05h0.44l-0.07,0.77v3.28c0.25-0.23,0.54-0.43,0.87-0.56c0.32-0.12,0.7-0.19,1.13-0.19
		c0.29,0,0.56,0.04,0.8,0.14c0.23,0.1,0.44,0.23,0.6,0.41c0.17,0.18,0.3,0.4,0.38,0.66c0.1,0.28,0.14,0.59,0.14,0.93v3.85l0.71,0.21
		v0.26C111.18,45.93,110.96,45.98,110.73,46.02z"/>
	<path class="st2" d="M117.51,42.77h-4.05c0,0.38,0.05,0.73,0.15,1.03c0.11,0.3,0.26,0.55,0.44,0.76c0.18,0.21,0.4,0.37,0.65,0.48
		c0.25,0.11,0.51,0.16,0.8,0.16c0.17,0,0.33-0.01,0.51-0.04c0.18-0.03,0.34-0.07,0.51-0.12c0.18-0.04,0.33-0.11,0.49-0.18
		c0.15-0.08,0.3-0.17,0.43-0.25c0.01,0.03,0.03,0.08,0.04,0.15c0.01,0.07,0.01,0.14,0.01,0.21c0,0.17-0.06,0.32-0.17,0.45
		c-0.11,0.14-0.26,0.27-0.47,0.38c-0.21,0.11-0.45,0.19-0.74,0.26c-0.3,0.07-0.63,0.1-0.99,0.1c-0.4,0-0.76-0.07-1.1-0.22
		c-0.36-0.15-0.65-0.36-0.91-0.63c-0.26-0.28-0.47-0.61-0.62-0.99c-0.14-0.38-0.22-0.82-0.22-1.3c0-0.59,0.08-1.13,0.25-1.6
		c0.16-0.45,0.38-0.84,0.66-1.15c0.26-0.3,0.56-0.55,0.91-0.7c0.34-0.16,0.7-0.25,1.06-0.25c0.37,0,0.7,0.06,1,0.18
		c0.29,0.12,0.54,0.29,0.74,0.51c0.21,0.23,0.36,0.5,0.47,0.81c0.11,0.33,0.16,0.67,0.16,1.07c0,0.14,0,0.26,0,0.41
		C117.52,42.44,117.52,42.6,117.51,42.77z M116.32,41.17c-0.07-0.25-0.17-0.45-0.29-0.62c-0.12-0.16-0.26-0.29-0.44-0.37
		c-0.17-0.08-0.36-0.12-0.55-0.12c-0.19,0-0.37,0.06-0.56,0.17c-0.19,0.1-0.36,0.25-0.49,0.43c-0.15,0.18-0.26,0.4-0.36,0.63
		c-0.1,0.25-0.14,0.49-0.14,0.77h2.94C116.43,41.71,116.38,41.42,116.32,41.17z"/>
	<path class="st2" d="M120.89,45.95c-0.12,0.03-0.23,0.06-0.37,0.07c-0.12,0.01-0.26,0.03-0.4,0.04c-0.15,0-0.3,0.01-0.48,0.01
		c-0.15,0-0.33-0.01-0.51-0.03c-0.19-0.01-0.37-0.04-0.52-0.1v-0.23c0.1-0.03,0.18-0.07,0.27-0.12c0.08-0.05,0.17-0.11,0.23-0.18
		c0.07-0.05,0.12-0.12,0.17-0.21c0.04-0.07,0.05-0.15,0.05-0.23v-4.64l-0.88-0.37v-0.29c0.32-0.1,0.62-0.15,0.91-0.19
		c0.29-0.06,0.54-0.07,0.73-0.07h0.44l-0.07,0.74v5.22l0.77,0.21v0.26C121.11,45.89,121,45.93,120.89,45.95z M120.63,37.64
		c-0.04,0.1-0.1,0.19-0.16,0.26c-0.07,0.08-0.15,0.14-0.25,0.18c-0.1,0.05-0.19,0.07-0.3,0.07c-0.1,0-0.19-0.01-0.29-0.05
		c-0.08-0.04-0.17-0.1-0.23-0.17c-0.06-0.07-0.11-0.15-0.15-0.25c-0.04-0.1-0.06-0.21-0.06-0.32c0-0.11,0.01-0.21,0.06-0.3
		c0.03-0.1,0.08-0.18,0.15-0.26c0.07-0.08,0.15-0.14,0.25-0.18c0.1-0.04,0.21-0.07,0.33-0.07c0.1,0,0.19,0.01,0.28,0.05
		c0.08,0.03,0.16,0.08,0.23,0.15c0.07,0.05,0.11,0.14,0.15,0.23c0.04,0.08,0.06,0.19,0.06,0.3
		C120.68,37.42,120.67,37.53,120.63,37.64z"/>
	<path class="st2" d="M127.59,45.87c-0.15,0.1-0.33,0.21-0.52,0.3c-0.14-0.11-0.26-0.23-0.38-0.38c-0.11-0.15-0.21-0.3-0.27-0.44
		c-0.11,0.11-0.23,0.22-0.38,0.32c-0.14,0.1-0.29,0.18-0.44,0.25c-0.17,0.07-0.32,0.12-0.48,0.16c-0.16,0.04-0.32,0.06-0.45,0.06
		c-0.34,0-0.67-0.07-0.98-0.21c-0.3-0.14-0.56-0.34-0.8-0.59c-0.22-0.26-0.4-0.58-0.54-0.95c-0.12-0.37-0.19-0.78-0.19-1.24
		c0-0.62,0.08-1.17,0.26-1.63c0.18-0.48,0.41-0.88,0.71-1.2c0.29-0.33,0.65-0.58,1.04-0.74c0.4-0.17,0.81-0.25,1.26-0.25
		c0.17,0,0.33,0.01,0.51,0.03c0.18,0.01,0.33,0.04,0.44,0.07v-2.42l-0.93-0.37v-0.3c0.32-0.1,0.63-0.15,0.93-0.19
		c0.32-0.03,0.56-0.05,0.77-0.05h0.44l-0.08,0.77v7.87c0.05,0.14,0.12,0.28,0.21,0.41c0.08,0.14,0.18,0.27,0.32,0.38
		C127.89,45.65,127.74,45.76,127.59,45.87z M126.39,40.26c-0.11-0.04-0.26-0.07-0.45-0.11c-0.18-0.03-0.36-0.04-0.55-0.04
		c-0.29,0-0.56,0.05-0.81,0.18c-0.25,0.11-0.47,0.29-0.66,0.52c-0.18,0.23-0.32,0.52-0.43,0.88c-0.1,0.36-0.15,0.77-0.15,1.25
		c0,0.37,0.04,0.7,0.14,0.99c0.1,0.29,0.22,0.54,0.37,0.73c0.15,0.19,0.32,0.34,0.52,0.44c0.19,0.11,0.4,0.15,0.62,0.15
		c0.14,0,0.26-0.01,0.4-0.03c0.14-0.03,0.26-0.05,0.38-0.1c0.12-0.04,0.23-0.08,0.34-0.14c0.11-0.05,0.19-0.11,0.27-0.18V40.26z"/>
</g>
</svg>
