<?xml version="1.0" standalone="no"?>
<!DOCTYPE svg PUBLIC "-//W3C//DTD SVG 1.1//EN" "http://www.w3.org/Graphics/SVG/1.1/DTD/svg11.dtd" >
<svg>
<metadata>
Created by FontForge 20090914 at Wed Dec  3 14:03:03 2014
 By www-data
Copyright 2008. OurType &#38; Peter Verheul. www.ourtype.com
</metadata>
<defs>
<font id="ROSerif-Bold" horiz-adv-x="520" >
  <font-face 
    font-family="ROSerif-Bold"
    font-weight="700"
    font-stretch="normal"
    units-per-em="1000"
    panose-1="0 0 0 0 0 0 0 0 0 0"
    ascent="740"
    descent="-260"
    x-height="480"
    cap-height="647.001"
    bbox="-269 -264 1059 925.998"
    underline-thickness="0"
    underline-position="0"
    unicode-range="U+0020-U+1F6B2"
  />
<missing-glyph horiz-adv-x="629" 
d="M0 0v635h629v-635h-629zM175 147l141 141l140 -141l37 37l-141 140l141 141l-37 37l-140 -142l-141 142l-38 -37l142 -141l-141 -139z" />
    <glyph glyph-name="fi" unicode="fi" horiz-adv-x="593" 
d="M390 406l-179.999 0.00195312v-359l60 -16v-23c-19.333 -6 -39.833 -10.333 -61.5 -13s-48.5 -4 -80.5 -4c-14.667 0 -30.5 0.833008 -47.5 2.5s-32.167 3.83398 -45.5 6.50098v20c12.667 5.33301 24.5 13.5 35.5 24.5s16.5 23.167 16.5 36.5v319h-56v45l56 25l-1 68
c-0.666992 51.333 17 94.5 53 129.5s94.667 52.5 176 52.5c66 0 109.5 -5.33301 130.5 -16s31.5 -25.334 31.5 -44.001c0 -12.667 -1.5 -23.834 -4.5 -33.501s-6.83301 -18.834 -11.5 -27.501c-24 14.667 -52.667 26.667 -86 36s-64 14 -92 14
c-26.667 0 -46.167 -8.33301 -58.5 -25s-18.5 -44.334 -18.5 -83.001c0 -8.66699 0.333008 -21.667 1 -39s1.33398 -30.333 2.00098 -39h146c20.667 4.66699 41 8.5 61 11.5s37.667 4.5 53 4.5l51 -1l-7 -71v-360l56 -16v-23c-18.667 -6 -38.834 -10.333 -60.501 -13
s-47.834 -4 -78.501 -4c-14.667 0 -30.5 0.833008 -47.5 2.5s-31.833 3.83398 -44.5 6.50098v20c12.667 5.33301 24.5 13.5 35.5 24.5s16.5 23.167 16.5 36.5v325z" />
    <glyph glyph-name="fl" unicode="fl" horiz-adv-x="595" 
d="M392 81l-0.00195312 546.997c-14.667 7.33301 -33 12.833 -55 16.5s-44.667 5.5 -68 5.5c-20 0 -35.333 -8 -46 -24s-16 -43 -16 -81c0 -9.33301 0.5 -23 1.5 -41s1.83301 -31.667 2.5 -41h105l-8 -63h-98v-353l60 -16v-23c-19.333 -6 -39.833 -10.333 -61.5 -13
s-48.5 -4 -80.5 -4c-14.667 0 -30.5 0.833008 -47.5 2.5s-32.167 3.83398 -45.5 6.50098v20c12.667 5.33301 24.5 13.5 35.5 24.5s16.5 23.167 16.5 36.5v319h-56v45l56 25l-1 61c-0.666992 56 16.333 101.5 51 136.5s85 52.5 151 52.5c18.667 0 36 -1.5 52 -4.5
s28.333 -6.83301 37 -11.5c16.667 4.66699 32.834 8.33398 48.501 11.001s30.834 4 45.501 4h51l-7 -73v-599l55 -16v-23c-18.667 -6 -38.667 -10.333 -60 -13s-47.333 -4 -78 -4c-14.667 0 -30.5 0.833008 -47.5 2.5s-31.833 3.83398 -44.5 6.50098v20
c12.667 5.33301 24.5 13.5 35.5 24.5s16.5 23.167 16.5 36.5z" />
    <glyph glyph-name=".notdef" horiz-adv-x="629" 
d="M0 0v635h629v-635h-629zM175 147l141 141l140 -141l37 37l-141 140l141 141l-37 37l-140 -142l-141 142l-38 -37l142 -141l-141 -139z" />
    <glyph glyph-name="space" unicode=" " horiz-adv-x="192" 
 />
    <glyph glyph-name="exclam" unicode="!" horiz-adv-x="321" 
d="M290 677l-36 -74.999l-36 -172c-3.33301 -16.667 -6 -36.834 -8 -60.501s-3 -43.834 -3 -60.501c0 -18.667 1.5 -38.667 4.5 -60s6.83301 -40.666 11.5 -57.999c-38.667 0 -70 11.833 -94 35.5s-36 55.834 -36 96.501c0 39.333 5.16699 82.666 15.5 129.999
s15.5 89.333 15.5 126c0 14 -1.16699 28 -3.5 42s-5.83301 27.333 -10.5 40c30 5.33301 58.5 9.33301 85.5 12s58.5 4 94.5 4zM82 62.001c0 20 7 37 21 51s31 21 51 21s37 -7 51 -21s21 -31 21 -51s-7 -37 -21 -51s-31 -21 -51 -21s-37 7 -51 21s-21 31 -21 51z" />
    <glyph glyph-name="quotedbl" unicode="&#x22;" horiz-adv-x="439" 
d="M79 644l108.001 -0.000976562l-4 -83c-0.666992 -20.667 -4.83398 -52 -12.501 -94l-11.5 -63h-51l-12 62.5c-8 41.667 -12.333 72.834 -13 93.501zM256.001 643.999l107.001 -0.000976562l-4 -83c-0.666992 -20.667 -4.83398 -52 -12.501 -94l-11.5 -63h-51l-12 62.5
c-8 41.667 -12.333 72.834 -13 93.501z" />
    <glyph glyph-name="numbersign" unicode="#" 
d="M194 222h126l26 209h-126zM384 224h106l-8 -63h-106l-21 -170h-65l21 170h-123l-22 -170h-65l21 170h-107l8 63h107l25 205h-106l7 63h107l22 172h65l-21 -172h123l22 172h65l-21 -172h106l-8 -63h-106z" />
    <glyph glyph-name="dollar" unicode="$" 
d="M180 495c0 -17.333 5.33105 -33.167 15.998 -47.5s29.334 -28.166 56.001 -41.499v163c-23.333 -5.33301 -41.166 -14.833 -53.499 -28.5s-18.5 -28.834 -18.5 -45.501zM351.998 145.999c0 20 -5.83301 37.167 -17.5 51.5s-32.5 29.5 -62.5 45.5v-177
c24.667 4.66699 44.167 14.167 58.5 28.5s21.5 31.5 21.5 51.5zM299.998 652.999c36.667 0 66.168 -1.83594 88.501 -5.50293s44.833 -10.5 67.5 -20.5l-11 -162h-37l-5 26c-5.33301 28.667 -16.5 49.667 -33.5 63s-43.5 20 -79.5 20h-2v-185l71 -33
c42 -20 72.333 -42.667 91 -68s28 -57 28 -95c0 -50 -19.333 -94.5 -58 -133.5s-87 -63.167 -145 -72.5v-74h-39v70h-10c-36 0 -67.5 2.33301 -94.5 7s-52.167 11.334 -75.5 20.001v164h37l7 -30c6.66699 -28.667 20.167 -49.5 40.5 -62.5s51.166 -19.5 92.499 -19.5h3v200
l-67 35c-34 17.333 -59.833 39.833 -77.5 67.5s-26.5 60.167 -26.5 97.5c0 46.667 17.167 87.334 51.5 122.001s78.5 56.334 132.5 65.001v76h39v-72h12z" />
    <glyph glyph-name="percent" unicode="%" horiz-adv-x="740" 
d="M560 690l43 -24l-431 -718l-42 24zM177 314c-43.333 0 -78.334 12.667 -105.001 38s-40 65.333 -40 120s14.833 97.5 44.5 128.5s66.5 46.5 110.5 46.5c42.667 0 77.334 -12.667 104.001 -38s40 -65.333 40 -120s-14.833 -97.5 -44.5 -128.5s-66.167 -46.5 -109.5 -46.5z
M179.999 360c15.333 0 28.333 8.66699 39 26s16 48.666 16 93.999c0 48.667 -4.5 80.834 -13.5 96.501s-21.833 23.5 -38.5 23.5c-15.333 0 -28.333 -9.66699 -39 -29s-16 -49.666 -16 -90.999c0 -48.667 5 -80.834 15 -96.501s22.333 -23.5 37 -23.5zM552.999 -11
c-43.333 0 -78.334 12.667 -105.001 38s-40 65.333 -40 120s14.833 97.5 44.5 128.5s66.5 46.5 110.5 46.5c42.667 0 77.334 -12.667 104.001 -38s40 -65.333 40 -120s-14.833 -97.5 -44.5 -128.5s-66.167 -46.5 -109.5 -46.5zM555.998 35c15.333 0 28.333 8.66699 39 26
s16 48.666 16 93.999c0 48.667 -4.5 80.834 -13.5 96.501s-21.833 23.5 -38.5 23.5c-15.333 0 -28.333 -9.66699 -39 -29s-16 -49.666 -16 -90.999c0 -48.667 5 -80.834 15 -96.501s22.333 -23.5 37 -23.5z" />
    <glyph glyph-name="ampersand" unicode="&#x26;" horiz-adv-x="641" 
d="M349 490c0 32.667 -6.83301 57.168 -20.5 73.501s-30.5 24.5 -50.5 24.5c-22 0 -40.833 -8.33301 -56.5 -25s-23.5 -40 -23.5 -70c0 -20 3.16699 -37.333 9.5 -52s16.5 -29 30.5 -43l40 -41c20.667 13.333 37.667 31.666 51 54.999s20 49.333 20 78zM409 87.001
l-185.001 179.999c-17.333 -11.333 -31.166 -27 -41.499 -47s-15.5 -42 -15.5 -66c0 -32 11.5 -57.667 34.5 -77s50.167 -29 81.5 -29c29.333 0 54 3.33301 74 10s37.333 16.334 52 29.001zM636.999 348l-0.000976562 -22.0049c-23.333 -7.33301 -39 -14.666 -47 -21.999
s-12 -16.666 -12 -27.999c0 -26 -4.16699 -51 -12.5 -75s-21.166 -46.333 -38.499 -67c18.667 -13.333 35.834 -24.5 51.501 -33.5s34.5 -18.167 56.5 -27.5c-1.33301 -26.667 -9.5 -47.667 -24.5 -63s-31.833 -23 -50.5 -23c-12 0 -23.5 2.5 -34.5 7.5
s-22.833 12.833 -35.5 23.5l-31 28c-28 -22.667 -57.5 -39.5 -88.5 -50.5s-65.833 -16.5 -104.5 -16.5c-74.667 0 -130.834 15 -168.501 45s-56.5 68 -56.5 114c0 36.667 12.833 70.334 38.5 101.001s61.167 53.334 106.5 68.001v1l-27 27
c-26.667 26.667 -45.167 50.334 -55.5 71.001s-15.5 43.334 -15.5 68.001c0 48 18.667 89.333 56 124s85.333 52 144 52c52 0 92.833 -14 122.5 -42s44.5 -61.333 44.5 -100s-13 -74.834 -39 -108.501s-57 -58.5 -93 -74.5v-1l156 -149c8.66699 18 15 36 19 54
s6 38.333 6 61l-73 25v27c23.333 6 43.5 10.167 60.5 12.5s33.833 3.5 50.5 3.5c18 0 33.833 -0.666992 47.5 -2s29.5 -4 47.5 -8z" />
    <glyph glyph-name="quotesingle" unicode="'" horiz-adv-x="262" 
d="M79 644l108.001 -0.000976562l-4 -83c-0.666992 -20.667 -4.83398 -52 -12.501 -94l-11.5 -63h-51l-12 62.5c-8 41.667 -12.333 72.834 -13 93.501z" />
    <glyph glyph-name="parenleft" unicode="(" horiz-adv-x="300" 
d="M313 -215c-5.33301 -9.33301 -13.6689 -16.832 -25.002 -22.499s-24.333 -8.5 -39 -8.5c-38.667 0 -81.5 39 -128.5 117s-70.5 190.333 -70.5 337c0 143.333 28 262.666 84 357.999s98.667 143 128 143c6.66699 0 12.334 -1.5 17.001 -4.5s8.33398 -7.5 11.001 -13.5
c-40 -32 -76.5 -89.333 -109.5 -172s-49.5 -179 -49.5 -289c0 -134 22.167 -241.667 66.5 -323s82.833 -122 115.5 -122z" />
    <glyph glyph-name="parenright" unicode=")" horiz-adv-x="300" 
d="M-13 679c5.33301 8.66699 13.6689 15.832 25.002 21.499s24.333 8.5 39 8.5c38.667 0 81.5 -39 128.5 -117s70.5 -190 70.5 -336c0 -144 -28 -263.667 -84 -359s-98.667 -143 -128 -143c-6.66699 0 -12.334 1.5 -17.001 4.5s-8.33398 7.5 -11.001 13.5
c40 32 76.5 89.333 109.5 172s49.5 179.334 49.5 290.001c0 134 -22.167 241.667 -66.5 323s-82.833 122 -115.5 122z" />
    <glyph glyph-name="asterisk" unicode="*" horiz-adv-x="500" 
d="M175 615c9.33301 12.667 18.498 22.1699 27.498 28.5029s18.167 9.5 27.5 9.5c14 0 25.667 -7.16699 35 -21.5s14 -34.833 14 -61.5c0 -15.333 -0.833008 -29.333 -2.5 -42s-4.5 -24.667 -8.5 -36l2 -1c14.667 10.667 30.834 25 48.501 43s31.834 34.667 42.501 50
c18.667 -6.66699 32.5 -14.5 41.5 -23.5s13.5 -18.833 13.5 -29.5c0 -20.667 -14.333 -38 -43 -52s-62 -21 -100 -21l-1 -2c15.333 -10.667 34.166 -21.834 56.499 -33.501s42.5 -19.834 60.5 -24.501c0 -24 -4.16699 -41.833 -12.5 -53.5s-19.5 -17.5 -33.5 -17.5
c-16.667 0 -35 10.833 -55 32.5s-35.333 49.5 -46 83.5l-2 -1c-5.33301 -18 -9.83301 -38.5 -13.5 -61.5s-5.5 -45.5 -5.5 -67.5c-6.66699 -2.66699 -13.167 -4.5 -19.5 -5.5s-11.833 -1.5 -16.5 -1.5c-14.667 0 -26.334 4.16699 -35.001 12.5s-13 19.166 -13 32.499
s7.83301 32 23.5 56s34.834 44 57.501 60l-1 2c-18.667 0 -40.667 -2 -66 -6s-46.333 -9.33301 -63 -16c-7.33301 10.667 -12.666 20.167 -15.999 28.5s-5 15.833 -5 22.5c0 12.667 4.66699 23.167 14 31.5s21.666 12.5 36.999 12.5c14.667 0 33.5 -4.33301 56.5 -13
s42.5 -19 58.5 -31l2 1c-6 18 -14.667 38.167 -26 60.5s-22.666 40.833 -33.999 55.5z" />
    <glyph glyph-name="plus" unicode="+" 
d="M294 258h178v-65h-178v-193h-68v193h-178v65h178v192h68v-192z" />
    <glyph glyph-name="comma" unicode="," horiz-adv-x="275" 
d="M208 64c0 -48 -15 -91.667 -45 -131s-60.333 -64.666 -91 -75.999l-39 9c22.667 25.333 40 51.666 52 78.999s18 56.333 18 87l-43 52c10.667 15.333 23.167 27.5 37.5 36.5s28.5 13.5 42.5 13.5c19.333 0 35.5 -6.16699 48.5 -18.5s19.5 -29.5 19.5 -51.5z" />
    <glyph glyph-name="hyphen" unicode="-" horiz-adv-x="314" 
d="M291 325l-21 -96l-243 -14l23 95z" />
    <glyph glyph-name="period" unicode="." horiz-adv-x="275" 
d="M66 62c0 20 7 37 21 51s31 21 51 21s37 -7 51 -21s21 -31 21 -51s-7 -37 -21 -51s-31 -21 -51 -21s-37 7 -51 21s-21 31 -21 51z" />
    <glyph glyph-name="slash" unicode="/" horiz-adv-x="325" 
d="M244 720l60 -12l-221 -951l-61 12z" />
    <glyph glyph-name="zero" unicode="0" 
d="M28 301c0 112.667 21.667 199.167 65 259.5s104.666 90.5 183.999 90.5c69.333 0 122.5 -26.167 159.5 -78.5s55.5 -132.833 55.5 -241.5c0 -112.667 -21.667 -199.167 -65 -259.5s-104.666 -90.5 -183.999 -90.5c-69.333 0 -122.5 26.167 -159.5 78.5
s-55.5 132.833 -55.5 241.5zM165 315c0 -89.333 8.33301 -155.333 25 -198s39.334 -64 68.001 -64s52 22.167 70 66.5s27 110.166 27 197.499c0 89.333 -8.33301 155.333 -25 198s-39.334 64 -68.001 64s-52 -22.167 -70 -66.5s-27 -110.166 -27 -197.499z" />
    <glyph glyph-name="one" unicode="1" 
d="M442 33l-0.000976562 -25.002c-24 -5.33301 -52.167 -9.66602 -84.5 -12.999s-69.166 -5 -110.499 -5c-20.667 0 -45.167 1 -73.5 3s-51.833 4.33301 -70.5 7v23c30.667 7.33301 54.834 19.333 72.501 36s26.5 34.334 26.5 53.001v454l-111 -7v42
c27.333 13.333 59.666 24 96.999 32s72 12 104 12c8 0 16.833 -0.5 26.5 -1.5l24.5 -2.5c-2.66699 -14.667 -5 -30.667 -7 -48s-3 -34 -3 -50v-486z" />
    <glyph glyph-name="two" unicode="2" 
d="M480 66c0 -23.333 -8.33496 -41.5029 -25.002 -54.5029s-45 -19.5 -85 -19.5c-32.667 0 -82.167 1.33301 -148.5 4s-125.5 4 -177.5 4l-8 64l197 213c30 32.667 51.833 63.334 65.5 92.001s20.5 56.667 20.5 84c0 34.667 -9.66699 62 -29 82s-45 30 -77 30
c-24 0 -49.167 -7.66699 -75.5 -23s-48.833 -35.666 -67.5 -60.999c-4 10.667 -7.5 22.667 -10.5 36s-4.5 26.333 -4.5 39c0 24.667 15.333 46.5 46 65.5s76.334 28.5 137.001 28.5c69.333 0 122.833 -15.5 160.5 -46.5s56.5 -70.5 56.5 -118.5
c0 -38 -10.833 -75.667 -32.5 -113s-61.5 -83.666 -119.5 -138.999l-154 -145h101c34.667 0 71.667 3 111 9s76 15 110 27c2.66699 -7.33301 4.83398 -15.833 6.50098 -25.5s2.5 -20.5 2.5 -32.5z" />
    <glyph glyph-name="three" unicode="3" 
d="M456 502c0 -39.333 -16.4971 -76 -49.4971 -110s-73.833 -56 -122.5 -66v-1c56.667 0 101.167 -13.5 133.5 -40.5s48.5 -61.167 48.5 -102.5c0 -54 -26.333 -100.333 -79 -139s-113.334 -58 -182.001 -58c-56.667 0 -96.834 7.33301 -120.501 22s-35.5 34 -35.5 58
c0 7.33301 1.33301 14.833 4 22.5s5.66699 14.5 9 20.5c18.667 -14 41.334 -26 68.001 -36s50.667 -15 72 -15c34.667 0 64.667 10.167 90 30.5s38 46.833 38 79.5c0 32 -13.5 57.5 -40.5 76.5s-66.833 28.5 -119.5 28.5c-6.66699 0 -14.334 -0.5 -23.001 -1.5
s-16.334 -2.16699 -23.001 -3.5l-13 78h46c42.667 0.666992 80.5 13 113.5 37s49.5 55 49.5 93c0 30 -9.16699 52.833 -27.5 68.5s-42.5 23.5 -72.5 23.5c-23.333 0 -48 -6 -74 -18s-48.333 -27.333 -67 -46c-3.33301 10 -6.16602 20.333 -8.49902 31
s-3.5 21.334 -3.5 32.001c0 21.333 14.667 40.666 44 57.999s74.666 26 135.999 26c69.333 0 121.5 -14 156.5 -42s52.5 -63.333 52.5 -106z" />
    <glyph glyph-name="four" unicode="4" 
d="M481 33l-0.000976562 -26.002c-20.667 -5.33301 -41.667 -9.5 -63 -12.5s-45.333 -4.5 -72 -4.5c-18 0 -36.833 0.833008 -56.5 2.5s-37.5 4.16699 -53.5 7.5v23c18.667 7.33301 32.834 17.333 42.501 30s14.5 31.334 14.5 56.001v30h-263
c0 103.333 33.5 204.666 100.5 303.999s149.833 167.666 248.5 204.999h50c-3.33301 -35.333 -5.5 -71.666 -6.5 -108.999s-1.5 -72.666 -1.5 -105.999v-194h15c8.66699 0 17 1.33301 25 4s16 6.33398 24 11.001c2.66699 -6.66699 4.66699 -14.167 6 -22.5
s2 -15.833 2 -22.5c0 -25.333 -4.83301 -43.5 -14.5 -54.5s-25.5 -16.5 -47.5 -16.5h-12v-86zM306.999 534.998l-2 1c-38 -30.667 -75.167 -74.667 -111.5 -132s-61.5 -112.333 -75.5 -165h178v156c0 22.667 0.666992 46.667 2 72s4.33301 48 9 68z" />
    <glyph glyph-name="five" unicode="5" 
d="M470 202c0 -61.333 -26.4971 -112.667 -79.4971 -154s-112.5 -62 -178.5 -62c-58.667 0 -98.834 7.33301 -120.501 22s-32.5 34.334 -32.5 59.001c0 7.33301 1 15.166 3 23.499s4.33301 15.166 7 20.499c19.333 -16 41.166 -28.5 65.499 -37.5s49.166 -13.5 74.499 -13.5
c33.333 0 63.333 11 90 33s40 51 40 87c0 34.667 -12.333 62 -37 82s-58.667 30 -102 30c-15.333 0 -31.333 -0.666992 -48 -2s-32 -3.33301 -46 -6v351h241c17.333 0 35.333 1 54 3s36.334 4.66699 53.001 8c1.33301 -4.66699 2.66602 -10.667 3.99902 -18s2 -14.333 2 -21
c0 -25.333 -9.5 -43.666 -28.5 -54.999s-49.833 -17 -92.5 -17h-155v-165c10.667 2 22.5 3.66699 35.5 5s25.833 2 38.5 2c66 0 117.833 -15.667 155.5 -47s56.5 -74 56.5 -128z" />
    <glyph glyph-name="six" unicode="6" 
d="M188 385c14 10 29.333 17.501 46 22.501s34.334 7.5 53.001 7.5c62 0 110.333 -17.167 145 -51.5s52 -81.166 52 -140.499c0 -71.333 -22.5 -129.5 -67.5 -174.5s-98.167 -67.5 -159.5 -67.5c-60 0 -110.833 21.5 -152.5 64.5s-62.5 103.167 -62.5 180.5
c0 138 34.667 243 104 315s146.333 108 231 108c44.667 0 74 -4.33301 88 -13s21 -20.334 21 -35.001c0 -6.66699 -0.833008 -13.834 -2.5 -21.501s-3.83398 -14.5 -6.50098 -20.5c-16 5.33301 -32.5 9.33301 -49.5 12s-33.833 4 -50.5 4c-38 0 -75.5 -16.167 -112.5 -48.5
s-62.5 -79.5 -76.5 -141.5zM178 331.001c-2 -12.667 -3.66895 -28.001 -5.00195 -46.001s-2 -34.333 -2 -49c0 -67.333 9.83301 -114.666 29.5 -141.999s40.834 -41 63.501 -41s43.334 11.333 62.001 34s28 59 28 109c0 48 -10.833 84.167 -32.5 108.5
s-47.5 36.5 -77.5 36.5c-12.667 0 -24.667 -1 -36 -3s-21.333 -4.33301 -30 -7z" />
    <glyph glyph-name="seven" unicode="7" 
d="M183 635l294.999 -0.000976562l-112 -263c-22.667 -52.667 -47 -114.167 -73 -184.5s-47.333 -135.5 -64 -195.5c-9.33301 -3.33301 -19.333 -6.16602 -30 -8.49902s-20.667 -3.5 -30 -3.5c-15.333 0 -27.166 3.5 -35.499 10.5s-12.5 17.5 -12.5 31.5
c0 19.333 10.667 55 32 107s60.333 131.333 117 238l87 164h-240c-26 0 -44.833 7 -56.5 21s-17.5 44 -17.5 90c22 -2 45.833 -3.66699 71.5 -5s48.5 -2 68.5 -2z" />
    <glyph glyph-name="eight" unicode="8" 
d="M481 167c0 -48 -23.334 -91.001 -70.001 -129.001s-101.667 -57 -165 -57c-64.667 0 -115.167 14.5 -151.5 43.5s-54.5 67.5 -54.5 115.5c0 35.333 12.167 68.833 36.5 100.5s59.5 55.5 105.5 71.5l-53 38c-22.667 16.667 -39.5 34.834 -50.5 54.501
s-16.5 44.5 -16.5 74.5c0 44 19.333 83.667 58 119s90.334 53 155.001 53c61.333 0 108.666 -14 141.999 -42s50 -64 50 -108c0 -32.667 -12 -63.5 -36 -92.5s-53 -50.167 -87 -63.5l59 -39c26.667 -18 46.334 -38 59.001 -60s19 -48.333 19 -79zM368.999 493.999
c0 25.333 -8.49902 46.167 -25.499 62.5s-41.833 24.5 -74.5 24.5s-57.334 -8.16699 -74.001 -24.5s-25 -34.833 -25 -55.5c0 -16.667 5 -31.5 15 -44.5s28.333 -28.5 55 -46.5l55 -37c20.667 14.667 38.167 32.5 52.5 53.5s21.5 43.5 21.5 67.5zM362 140
c0 18 -5.49902 35.001 -16.499 51.001s-29.167 32.333 -54.5 49l-60 40c-26.667 -14.667 -48.334 -33.834 -65.001 -57.501s-25 -49.167 -25 -76.5c0 -28 10 -50.833 30 -68.5s48 -26.5 84 -26.5c30.667 0 56.167 8.33301 76.5 25s30.5 38 30.5 64z" />
    <glyph glyph-name="nine" unicode="9" 
d="M349 305c1.33301 8.66699 2.5 20.168 3.5 34.501s1.5 25.166 1.5 32.499c0 78 -9.83301 131.167 -29.5 159.5s-42.834 42.5 -69.501 42.5c-23.333 0 -43.666 -11.667 -60.999 -35s-26 -57 -26 -101c0 -45.333 11.167 -80.5 33.5 -105.5s48.833 -37.5 79.5 -37.5
c14.667 0 27.5 1 38.5 3s20.833 4.33301 29.5 7zM342 251.001c-12.667 -6.66699 -27.834 -12.667 -45.501 -18s-36.834 -8 -57.501 -8c-59.333 0 -107 17.667 -143 53s-54 84 -54 146c0 64 21.167 117 63.5 159s94.166 63 155.499 63c64 0 116.833 -22.333 158.5 -67
s62.5 -108.667 62.5 -192c0 -136 -30.833 -236.833 -92.5 -302.5s-131.834 -98.5 -210.501 -98.5c-49.333 0 -84.666 6.16699 -105.999 18.5s-32 30.166 -32 53.499c0 6.66699 0.666992 13.667 2 21s3 13.333 5 18c16.667 -10 37.834 -18.833 63.501 -26.5
s49.834 -11.5 72.501 -11.5c35.333 0 68.333 15.833 99 47.5s50.334 79.834 59.001 144.501z" />
    <glyph glyph-name="colon" unicode=":" horiz-adv-x="275" 
d="M66 411c0 20 7 37 21 51s31 21 51 21s37 -7 51 -21s21 -31 21 -51s-7 -37 -21 -51s-31 -21 -51 -21s-37 7 -51 21s-21 31 -21 51zM66 62c0 20 7 37 21 51s31 21 51 21s37 -7 51 -21s21 -31 21 -51s-7 -37 -21 -51s-31 -21 -51 -21s-37 7 -51 21s-21 31 -21 51z" />
    <glyph glyph-name="semicolon" unicode=";" horiz-adv-x="275" 
d="M66 411c0 20 7 37 21 51s31 21 51 21s37 -7 51 -21s21 -31 21 -51s-7 -37 -21 -51s-31 -21 -51 -21s-37 7 -51 21s-21 31 -21 51zM208 64c0 -48 -15 -91.667 -45 -131s-60.333 -64.666 -91 -75.999l-39 9c22.667 25.333 40 51.666 52 78.999s18 56.333 18 87l-43 52
c10.667 15.333 23.167 27.5 37.5 36.5s28.5 13.5 42.5 13.5c19.333 0 35.5 -6.16699 48.5 -18.5s19.5 -29.5 19.5 -51.5z" />
    <glyph glyph-name="less" unicode="&#x3c;" 
d="M380 473l42 -54l-245 -193l246 -194l-45 -56l-305 246z" />
    <glyph glyph-name="equal" unicode="=" 
d="M51 334h418v-64h-418v64zM51 181h418v-65h-418v65z" />
    <glyph glyph-name="greater" unicode="&#x3e;" 
d="M140 -23l-41 54l244 193l-246 194l45 56l306 -246z" />
    <glyph glyph-name="question" unicode="?" horiz-adv-x="435" 
d="M424 541c0 -32 -13.665 -64.002 -40.998 -96.002s-72.666 -67.333 -135.999 -106l-60 -37c4 -17.333 9.33301 -35 16 -53s14 -35 22 -51c-4.66699 -0.666992 -9.83398 -1.5 -15.501 -2.5s-10.834 -1.5 -15.501 -1.5c-24.667 0 -44.834 7.33301 -60.501 22
s-23.5 33.334 -23.5 56.001c0 16.667 4.5 32.5 13.5 47.5s27.167 34.167 54.5 57.5l55 47c20.667 18 36 35.167 46 51.5s15 33.833 15 52.5c0 24.667 -7.5 43.667 -22.5 57s-36.5 20 -64.5 20c-22.667 0 -47.167 -9.83301 -73.5 -29.5s-47.166 -42.167 -62.499 -67.5
c-4.66699 8.66699 -8.83398 18.334 -12.501 29.001s-5.5 23 -5.5 37c0 30 14.167 55.167 42.5 75.5s75.5 30.5 141.5 30.5c58.667 0 104.5 -12.667 137.5 -38s49.5 -59 49.5 -101zM99.002 61.998c0 20 7 37 21 51s31 21 51 21s37 -7 51 -21s21 -31 21 -51s-7 -37 -21 -51
s-31 -21 -51 -21s-37 7 -51 21s-21 31 -21 51z" />
    <glyph glyph-name="at" unicode="@" horiz-adv-x="858" 
d="M577 -19c-14.667 6.66699 -28.501 14.332 -41.501 22.999s-22.833 18 -29.5 28c-12.667 -10.667 -32.167 -21 -58.5 -31s-51.5 -15 -75.5 -15c-41.333 0 -74.333 11 -99 33s-37 49.333 -37 82c0 44 22.833 80.667 68.5 110s111.167 44 196.5 44v31
c0 45.333 -7 76.333 -21 93s-34.667 25 -62 25c-22.667 0 -48.334 -7 -77.001 -21s-54 -32 -76 -54c-2 7.33301 -3.66699 15.833 -5 25.5s-2 18.5 -2 26.5c0 32 12.5 56.333 37.5 73s71.5 25 139.5 25c62 0 108.333 -12.5 139 -37.5s46 -58.5 46 -100.5
c0 -11.333 -0.5 -26 -1.5 -44s-1.83301 -34 -2.5 -48l-4 -159c4 -9.33301 9.33301 -17.666 16 -24.999s14.667 -13.333 24 -18c26.667 13.333 52.334 43.833 77.001 91.5s37 101.5 37 161.5c0 93.333 -29.833 166.5 -89.5 219.5s-132.834 79.5 -219.501 79.5
c-101.333 0 -185.5 -36.333 -252.5 -109s-100.5 -164.667 -100.5 -276c0 -104.667 25.833 -184 77.5 -238s106.167 -81 163.5 -81c26 0 50.833 2 74.5 6s47.834 10.333 72.501 19c2 -3.33301 3.33301 -7.33301 4 -12s1 -9.33398 1 -14.001c0 -16 -12.333 -30.667 -37 -44
s-61.667 -20 -111 -20c-75.333 0 -146.666 32.333 -213.999 97s-101 157.334 -101 278.001c0 132.667 42.5 240.334 127.5 323.001s186.167 124 303.5 124c106 0 193.333 -31.833 262 -95.5s103 -146.834 103 -249.501s-29 -182.667 -87 -240s-113.333 -86 -166 -86z
M500.999 72.998v129.001c-46 0 -81.833 -8.16699 -107.5 -24.5s-38.5 -36.833 -38.5 -61.5c0 -18 6.33301 -32.667 19 -44s29.667 -17 51 -17c12.667 0 26 1.66699 40 5s26 7.66602 36 12.999z" />
    <glyph glyph-name="A" unicode="A" horiz-adv-x="591" 
d="M48 87l194 550l131 13l170 -598l53 -19v-26c-16.667 -5.33301 -35.5 -9.5 -56.5 -12.5s-41.833 -4.5 -62.5 -4.5c-20 0 -40 0.666992 -60 2s-39.333 4 -58 8v23c16 5.33301 26.833 13.166 32.5 23.499s6.83398 22.166 3.50098 35.499l-29 106h-189l-37 -137l60 -18v-26
c-18.667 -6 -38.334 -10.333 -59.001 -13s-43.334 -4 -68.001 -4c-13.333 0 -27.166 0.833008 -41.499 2.5s-28.5 4.16699 -42.5 7.5v23c16 6.66699 28.333 14.334 37 23.001s16 22.334 22 41.001zM351 254l-69 279h-1l-86 -279h156z" />
    <glyph glyph-name="B" unicode="B" horiz-adv-x="575" 
d="M537 184c0 -56.667 -25 -103.5 -75 -140.5s-118.667 -55.5 -206 -55.5c-51.333 0 -93.333 0.833008 -126 2.5s-63 4.83398 -91 9.50098v23c18 6.66699 32 16.5 42 29.5s15 32.833 15 59.5v468l-63 23v29c38 5.33301 74.167 9.16602 108.5 11.499s76.5 3.5 126.5 3.5
c85.333 0 147 -13.333 185 -40s57 -64 57 -112c0 -42 -16.333 -78.167 -49 -108.5s-73 -47.833 -121 -52.5v-1c62.667 0 111.167 -13 145.5 -39s51.5 -62.667 51.5 -110zM378 482c0 31.333 -10.168 55.667 -30.501 73s-48.5 26 -84.5 26c-6.66699 0 -13 -0.166992 -19 -0.5
s-12.333 -0.833008 -19 -1.5v-228c48.667 0 86.334 11.667 113.001 35s40 55.333 40 96zM399.999 173.001c0 38.667 -12.833 68.333 -38.5 89s-60.834 31 -105.501 31h-31v-237c8.66699 -0.666992 16.834 -1.16699 24.501 -1.5s15.167 -0.5 22.5 -0.5
c34 0 63.833 11.167 89.5 33.5s38.5 50.833 38.5 85.5z" />
    <glyph glyph-name="C" unicode="C" horiz-adv-x="559" 
d="M520 623l-8.99902 -159.999h-34l-5 24c-6.66699 28.667 -19 50.5 -37 65.5s-45 22.5 -81 22.5c-42.667 0 -81.5 -21.333 -116.5 -64s-52.5 -107.334 -52.5 -194.001c0 -89.333 17.5 -154.5 52.5 -195.5s73.167 -61.5 114.5 -61.5c36 0 63.167 6 81.5 18
s33.166 31.333 44.499 58l11 25h34l-10 -146c-19.333 -9.33301 -45.5 -17 -78.5 -23s-70.5 -9 -112.5 -9c-79.333 0 -146.5 27.167 -201.5 81.5s-82.5 133.833 -82.5 238.5s31.5 189 94.5 253s137.833 96 224.5 96c38 0 69.833 -2.33301 95.5 -7s48.167 -12 67.5 -22z" />
    <glyph glyph-name="D" unicode="D" horiz-adv-x="682" 
d="M644 349c0 -110.667 -38.335 -198.166 -115.002 -262.499s-167.334 -96.5 -272.001 -96.5c-44 0 -82.5 0.5 -115.5 1.5s-67.167 3.83301 -102.5 8.5v23c18.667 7.33301 32.834 17.5 42.501 30.5s14.5 33.167 14.5 60.5v466l-63 23v29
c39.333 5.33301 77.333 9.16602 114 11.499s79.334 3.5 128.001 3.5c114.667 0 204.834 -25.833 270.501 -77.5s98.5 -125.167 98.5 -220.5zM499.998 330.001c0 79.333 -22.5 139.833 -67.5 181.5s-98.5 62.5 -160.5 62.5c-6.66699 0 -14 -0.166992 -22 -0.5
s-16 -0.833008 -24 -1.5v-506c8.66699 -1.33301 16.5 -2.33301 23.5 -3s14.167 -1 21.5 -1c61.333 0 114.833 21.833 160.5 65.5s68.5 111.167 68.5 202.5z" />
    <glyph glyph-name="E" unicode="E" horiz-adv-x="489" 
d="M472 141l-18 -141.002h-415v27c20 7.33301 34.5 17.333 43.5 30s13.5 31.334 13.5 56.001v468l-63 27v32h417l-8 -162h-37l-3 19c-4 26.667 -12.167 45.167 -24.5 55.5s-32.833 15.5 -61.5 15.5h-90v-216h94c20.667 0 36.167 2.83301 46.5 8.5s17.5 14.834 21.5 27.501
l7 22h34v-196h-34l-4 22c-3.33301 16.667 -9 29 -17 37s-20 12 -36 12h-112v-215h111c26.667 0 46.167 4.16699 58.5 12.5s22.5 20.833 30.5 37.5l10 21h36z" />
    <glyph glyph-name="F" unicode="F" horiz-adv-x="463" 
d="M33 608l-0.000976562 32h420l-8 -162h-36l-3 19c-4 24.667 -12.333 42.667 -25 54s-33.334 17 -62.001 17h-93v-224h92c20.667 0 36.667 3.5 48 10.5s19.333 18.5 24 34.5l7 22h34v-202h-34l-5 25c-2.66699 14.667 -9.16699 25.5 -19.5 32.5s-24.166 10.5 -41.499 10.5
h-105v-224l73 -20v-26c-20 -4.66699 -42.333 -8.66699 -67 -12s-49.667 -5 -75 -5c-18.667 0 -39 0.833008 -61 2.5s-41 4.16699 -57 7.5v23c18.667 6.66699 32.834 16.667 42.501 30s14.5 32.333 14.5 57v471z" />
    <glyph glyph-name="G" unicode="G" horiz-adv-x="622" 
d="M561 206l0.00390625 -218.997c-28.667 0 -51.334 2.5 -68.001 7.5s-30.667 13.833 -42 26.5c-14 -10.667 -33.5 -19.667 -58.5 -27s-51.5 -11 -79.5 -11c-77.333 0 -142.5 27.167 -195.5 81.5s-79.5 131.166 -79.5 230.499c0 110 32.167 197 96.5 261
s146.166 96 245.499 96c35.333 0 67 -2.33301 95 -7s53.333 -12.334 76 -23.001l-12 -159h-34l-6 26c-6.66699 30 -20.167 51.833 -40.5 65.5s-49.5 20.5 -87.5 20.5c-52 0 -96 -21.5 -132 -64.5s-54 -108.833 -54 -197.5c0 -84.667 16.167 -147.834 48.5 -189.501
s71.166 -62.5 116.499 -62.5c15.333 0 30.666 1.66699 45.999 5s28.666 7.33301 39.999 12v181l-59 18v27c23.333 6 45 10.167 65 12.5s41.333 3.5 64 3.5c24.667 0 45 -0.666992 61 -2s33 -4 51 -8v-22c-19.333 -8 -33.666 -18.833 -42.999 -32.5s-14 -30.167 -14 -49.5z
" />
    <glyph glyph-name="H" unicode="H" horiz-adv-x="694" 
d="M467 584l-63.002 19.9961v26c20.667 5.33301 42.667 9.5 66 12.5s48.333 4.5 75 4.5c18 0 36.833 -1 56.5 -3s37.167 -4.33301 52.5 -7v-23c-18 -7.33301 -31.833 -17.166 -41.5 -29.499s-14.5 -30.833 -14.5 -55.5v-477l62 -19v-26
c-20.667 -5.33301 -42.5 -9.5 -65.5 -12.5s-47.833 -4.5 -74.5 -4.5c-18 0 -36.833 0.833008 -56.5 2.5s-37.5 4.16699 -53.5 7.5v23c18.667 7.33301 32.834 17.333 42.501 30s14.5 31.334 14.5 56.001v185h-240v-242l62 -19v-26c-20.667 -5.33301 -42.5 -9.5 -65.5 -12.5
s-47.833 -4.5 -74.5 -4.5c-18 0 -36.833 0.833008 -56.5 2.5s-37.5 4.16699 -53.5 7.5v23c18.667 7.33301 32.834 17.333 42.501 30s14.5 31.334 14.5 56.001v475l-63 20v26c20.667 5.33301 42.667 9.5 66 12.5s48.333 4.5 75 4.5c18 0 36.833 -1 56.5 -3
s37.167 -4.33301 52.5 -7v-23c-18 -7.33301 -31.833 -17.166 -41.5 -29.499s-14.5 -30.833 -14.5 -55.5v-157h240v212z" />
    <glyph glyph-name="I" unicode="I" horiz-adv-x="323" 
d="M289 33l0.000976562 -25.999c-18.667 -4.66699 -39.834 -8.66699 -63.501 -12s-47.5 -5 -71.5 -5c-26 0 -47.667 0.833008 -65 2.5s-34 4.16699 -50 7.5v23c18 6.66699 32 16.5 42 29.5s15 32.833 15 59.5v472l-63 20v26c22.667 5.33301 45.667 9.5 69 12.5
s47.333 4.5 72 4.5c20 0 38.833 -0.833008 56.5 -2.5s35.167 -4.16699 52.5 -7.5v-23c-20.667 -8.66699 -35.167 -19.334 -43.5 -32.001s-12.5 -31 -12.5 -55v-475z" />
    <glyph glyph-name="J" unicode="J" horiz-adv-x="323" 
d="M283 637l0.00292969 -23c-19.333 -8 -33.5 -18.5 -42.5 -31.5s-13.5 -31.833 -13.5 -56.5v-433c0 -72.667 -14.333 -127.167 -43 -163.5s-61.334 -54.5 -98.001 -54.5c-12.667 0 -24.834 1.16699 -36.501 3.5s-23.5 5.83301 -35.5 10.5v16c22.667 14 42 36.333 58 67
s24 66 24 106v506l-63 20v26c24.667 6 48.167 10.333 70.5 13s46.166 4 71.499 4c20.667 0 39.5 -0.833008 56.5 -2.5s34.167 -4.16699 51.5 -7.5z" />
    <glyph glyph-name="K" unicode="K" horiz-adv-x="608" 
d="M287 33l-0.00195312 -25.9971c-19.333 -5.33301 -39.5 -9.5 -60.5 -12.5s-46.167 -4.5 -75.5 -4.5c-22.667 0 -43 0.833008 -61 2.5s-35 4.16699 -51 7.5v23c20.667 8 35.334 18.667 44.001 32s13 32.666 13 57.999v471l-63 20v26c23.333 6 46.5 10.333 69.5 13
s46.167 4 69.5 4c20.667 0 39.834 -0.833008 57.501 -2.5s35.5 -4.16699 53.5 -7.5v-23c-20.667 -8.66699 -35.167 -19.334 -43.5 -32.001s-12.5 -31.334 -12.5 -56.001v-474zM629.998 35.0029l0.000976562 -23.001c-16 -8.66699 -32.167 -15 -48.5 -19s-35.833 -6 -58.5 -6
c-24.667 0 -47 5.83301 -67 17.5s-41.333 34.834 -64 69.501l-161 250v5l218 256v2l-57 17v26c26 6.66699 49.167 11.167 69.5 13.5s42.166 3.5 65.499 3.5c15.333 0 29.666 -0.833008 42.999 -2.5s26.333 -4.16699 39 -7.5v-23
c-16.667 -7.33301 -30.834 -14.833 -42.501 -22.5s-23.5 -18.167 -35.5 -31.5l-174 -197l164 -235c14.667 -21.333 30.334 -39 47.001 -53s37.334 -27.333 62.001 -40z" />
    <glyph glyph-name="L" unicode="L" horiz-adv-x="471" 
d="M474 147l-18.002 -147.001h-417v25c18 6.66699 32 16.167 42 28.5s15 29.833 15 52.5v478l-63 20v26c24.667 6 48.167 10.333 70.5 13s44.833 4 67.5 4s42.834 -0.833008 60.501 -2.5s34.834 -4.16699 51.501 -7.5v-23c-20.667 -8.66699 -35.167 -19.667 -43.5 -33
s-12.5 -31.666 -12.5 -54.999v-454h100c31.333 0 54.833 4.33301 70.5 13s27.5 21.667 35.5 39l11 23h30z" />
    <glyph glyph-name="M" unicode="M" horiz-adv-x="821" 
d="M803 33l0.00195312 -25.998c-14.667 -5.33301 -31.834 -9.5 -51.501 -12.5s-41.167 -4.5 -64.5 -4.5c-26 0 -48.833 0.666992 -68.5 2s-39.834 4 -60.501 8v23c20 7.33301 34.5 17.666 43.5 30.999s13.5 33.333 13.5 60l-14 409l-1 1l-171 -528l-71 -6l-173 533l-1 -1
l-19 -469l63 -20v-26c-20.667 -6 -40.5 -10.333 -59.5 -13s-40.167 -4 -63.5 -4c-15.333 0 -30.5 1 -45.5 3s-28.833 4.33301 -41.5 7v18c16.667 8 29.667 17.667 39 29s14.666 24.666 15.999 39.999l43 495l-56 21v33c28.667 2.66699 57.334 4.66699 86.001 6
s54.667 2 78 2h60l137 -449h1l147 449h64c22 0 44.667 -0.666992 68 -2s47 -3.33301 71 -6v-33l-59 -19l31 -534z" />
    <glyph glyph-name="N" unicode="N" horiz-adv-x="645" 
d="M611 638v-22c-20 -8.66699 -34 -19.667 -42 -33s-12 -34.333 -12 -63v-520l-91 -11l-289 486l-1 -1v-422l61 -19v-26c-14.667 -5.33301 -30.334 -9.5 -47.001 -12.5s-34.334 -4.5 -53.001 -4.5c-20 0 -37.833 0.833008 -53.5 2.5s-30.5 4.16699 -44.5 7.5v23
c20 6.66699 34.5 17.167 43.5 31.5s13.5 34.5 13.5 60.5v466l-59 22v33c22.667 2.66699 47.5 4.5 74.5 5.5s51.833 1.5 74.5 1.5h42l248 -417l1 1v359l-63 19v27c18.667 4.66699 36.834 8.5 54.501 11.5s35.834 4.5 54.501 4.5c20 0 36.333 -0.833008 49 -2.5
s25.667 -4.16699 39 -7.5z" />
    <glyph glyph-name="O" unicode="O" horiz-adv-x="689" 
d="M651 345c0 -117.333 -32.001 -207.167 -96.001 -269.5s-138.333 -93.5 -223 -93.5c-85.333 0 -155.666 28.333 -210.999 85s-83 134.667 -83 234c0 106.667 32.833 192 98.5 256s140.5 96 224.5 96c83.333 0 152.5 -28 207.5 -84s82.5 -130.667 82.5 -224z
M504.999 324.999c0 86 -16.167 148.666 -48.5 187.999s-68.166 59 -107.499 59c-42 0 -79.833 -21 -113.5 -63s-50.5 -105.667 -50.5 -191s16.333 -149.166 49 -191.499s69 -63.5 109 -63.5c39.333 0 76.166 19.333 110.499 58s51.5 106.667 51.5 204z" />
    <glyph glyph-name="P" unicode="P" horiz-adv-x="570" 
d="M413 437c0 44.667 -13.499 79.168 -40.499 103.501s-62.5 36.5 -106.5 36.5c-6.66699 0 -13.334 -0.333008 -20.001 -1l-20 -2v-274c10 -2.66699 19.5 -4.5 28.5 -5.5s17.833 -1.5 26.5 -1.5c36 0 67 12.667 93 38s39 60.666 39 105.999zM550.001 451.001
c0 -66 -25.168 -120.666 -75.501 -163.999s-109.5 -65 -177.5 -65c-16 0 -29.5 1.16699 -40.5 3.5s-20.833 5.5 -29.5 9.5v-182l72 -20v-26c-18 -4.66699 -39.5 -8.66699 -64.5 -12s-51.833 -5 -80.5 -5c-18.667 0 -38.5 0.833008 -59.5 2.5s-39.5 4.16699 -55.5 7.5v23
c18.667 6.66699 32.834 16.5 42.501 29.5s14.5 31.167 14.5 54.5v473l-63 23v29c38.667 5.33301 77.667 9.16602 117 11.499s81.666 3.5 126.999 3.5c90.667 0 158.834 -17 204.501 -51s68.5 -82.333 68.5 -145z" />
    <glyph glyph-name="Q" unicode="Q" horiz-adv-x="689" 
d="M405 -6v-1.00195c12.667 -3.33301 26.167 -8 40.5 -14s26.833 -12.333 37.5 -19l61 -34c26.667 -14.667 48 -25 64 -31s30 -9 42 -9c10 0 19.5 0.333008 28.5 1s19.167 2.33398 30.5 5.00098v-27c-11.333 -20.667 -27.166 -37 -47.499 -49s-42.833 -18 -67.5 -18
c-26 0 -51.667 4.83301 -77 14.5s-52.333 25.834 -81 48.501l-164 128c-70.667 14.667 -127.334 48.5 -170.001 101.5s-64 123.167 -64 210.5c0 104.667 32.5 189.5 97.5 254.5s140.167 97.5 225.5 97.5c84 0 153.333 -28.167 208 -84.5s82 -130.833 82 -223.5
c0 -95.333 -23 -172.833 -69 -232.5s-105 -99.167 -177 -118.5zM505 324.998c0 86 -16.167 148.666 -48.5 187.999s-68.166 59 -107.499 59c-42 0 -79.833 -21 -113.5 -63s-50.5 -105.667 -50.5 -191s16.333 -149.166 49 -191.499s69 -63.5 109 -63.5
c39.333 0 76.166 19.333 110.499 58s51.5 106.667 51.5 204z" />
    <glyph glyph-name="R" unicode="R" horiz-adv-x="600" 
d="M227 243v-191l60 -19v-26c-18.667 -5.33301 -39.167 -9.66602 -61.5 -12.999s-46.833 -5 -73.5 -5c-19.333 0 -38.833 1 -58.5 3s-37.834 4.66699 -54.501 8v23c18.667 6.66699 32.834 16.667 42.501 30s14.5 32 14.5 56v472l-63 22v30
c37.333 4.66699 75.5 8.16699 114.5 10.5s81.833 3.5 128.5 3.5c87.333 0 150.5 -14.667 189.5 -44s58.5 -71 58.5 -125c0 -48 -12.833 -88.833 -38.5 -122.5s-59.5 -55.834 -101.5 -66.501l128 -170c16 -20.667 31.667 -37.667 47 -51s32.666 -25 51.999 -35v-22
c-14.667 -8 -30.667 -14 -48 -18s-36.666 -6 -57.999 -6c-26 0 -48 5 -66 15s-37 30.333 -57 61l-117 180h-38zM390 457c0 39.333 -11.333 69.168 -34 89.501s-52.667 30.5 -90 30.5c-6.66699 0 -13.5 -0.333008 -20.5 -1s-13.5 -1.33398 -19.5 -2.00098v-269h39
c34 0 63.333 12.333 88 37s37 63 37 115z" />
    <glyph glyph-name="S" unicode="S" horiz-adv-x="490" 
d="M280 653c36.667 0 66.167 -1.83496 88.5 -5.50195s44.833 -10.5 67.5 -20.5l-11 -162h-37l-5 26c-5.33301 28.667 -16.5 49.667 -33.5 63s-43.5 20 -79.5 20c-35.333 0 -62.5 -8 -81.5 -24s-28.5 -34.333 -28.5 -55c0 -18 5.66699 -34.333 17 -49s31.333 -28.667 60 -42
l102 -48c42 -20 72.333 -42.667 91 -68s28 -57 28 -95c0 -56 -24.667 -105 -74 -147s-108.666 -63 -177.999 -63c-36 0 -67.5 2.33301 -94.5 7s-52.167 11.334 -75.5 20.001v164h37l7 -30c6.66699 -28.667 20.167 -49.5 40.5 -62.5s51.166 -19.5 92.499 -19.5
c36 0 64.833 7.83301 86.5 23.5s32.5 35.834 32.5 60.501c0 20.667 -6 38.167 -18 52.5s-33.667 29.833 -65 46.5l-100 52c-34 17.333 -59.833 39.833 -77.5 67.5s-26.5 60.167 -26.5 97.5c0 54 22.5 99.333 67.5 136s100.833 55 167.5 55z" />
    <glyph glyph-name="T" unicode="T" horiz-adv-x="496" 
d="M-3 479l0.000976562 164.002l135.5 -2.5c52.333 -1 95.166 -1.5 128.499 -1.5c43.333 0 84.166 0.666992 122.499 2s76.833 3.66602 115.5 6.99902v-169h-37l-5 25c-4 22 -11.167 39 -21.5 51s-25.166 18 -44.499 18h-77v-521l72 -19v-26
c-22.667 -5.33301 -45 -9.5 -67 -12.5s-47.333 -4.5 -76 -4.5c-25.333 0 -47.333 0.666992 -66 2s-35.667 4 -51 8v23c17.333 6.66699 31.166 16.667 41.499 30s15.5 32.666 15.5 57.999v462h-67c-20.667 0 -37.167 -6 -49.5 -18s-21.166 -29 -26.499 -51l-6 -25h-37z" />
    <glyph glyph-name="U" unicode="U" horiz-adv-x="666" 
d="M639 636l-0.000976562 -22c-20.667 -8.66699 -35.167 -19.5 -43.5 -32.5s-12.5 -30.833 -12.5 -53.5v-277c0 -87.333 -23.333 -153.5 -70 -198.5s-105.667 -67.5 -177 -67.5c-85.333 0 -148.833 17.667 -190.5 53s-62.5 86 -62.5 152v395l-62 19v26
c22.667 5.33301 45.667 9.5 69 12.5s46.666 4.5 69.999 4.5c22.667 0 42.167 -0.666992 58.5 -2s33.833 -4 52.5 -8v-23c-20.667 -8 -35.334 -18.833 -44.001 -32.5s-13 -33.5 -13 -59.5v-310c0 -45.333 12.167 -80.333 36.5 -105s57.833 -37 100.5 -37
c40.667 0 73.667 13.333 99 40s38 68.667 38 126v348l-62 20v26c20.667 6 40.334 10.5 59.001 13.5s37.334 4.5 56.001 4.5s35.834 -1 51.501 -3s31.167 -5 46.5 -9z" />
    <glyph glyph-name="V" unicode="V" horiz-adv-x="513" 
d="M536 636l-0.000976562 -22.002c-12.667 -5.33301 -23.667 -13.166 -33 -23.499s-17.333 -25.166 -24 -44.499l-185 -553l-72 -3l-203 595l-53 19v26c22 6 42.333 10.333 61 13s38.334 4 59.001 4c24 0 44 -0.666992 60 -2s35.333 -4 58 -8v-23
c-15.333 -6 -25 -14.5 -29 -25.5s-3.66699 -25.5 1 -43.5l111 -361h1l106 401l-61 19v26c20 5.33301 40.333 9.5 61 12.5s41.667 4.5 63 4.5c16 0 30.5 -1 43.5 -3s24.833 -4.66699 35.5 -8z" />
    <glyph glyph-name="W" unicode="W" horiz-adv-x="832" 
d="M834 637v-23.001c-14.667 -7.33301 -26 -16.166 -34 -26.499s-14.333 -23.833 -19 -40.5l-157 -553l-84 -4l-125 498h-1l-117 -494l-84 -4l-178 595l-56 19v27c18.667 5.33301 38.667 9.33301 60 12s42.333 4 63 4c23.333 0 44.166 -0.666992 62.499 -2
s35.833 -3.66602 52.5 -6.99902v-23c-14.667 -4 -24.5 -10.333 -29.5 -19s-5.5 -21.334 -1.5 -38.001l93 -366h1l87 395l-44 17v26c19.333 6 38 10.333 56 13s37.667 4 59 4c18.667 0 37 -0.833008 55 -2.5s33.333 -4.16699 46 -7.5v-23
c-9.33301 -4.66699 -15.5 -11.167 -18.5 -19.5s-2.83301 -19.833 0.5 -34.5l90 -367h1l82 392l-57 19v26c22 6 42.333 10.333 61 13s37.334 4 56.001 4c16.667 0 31.167 -0.666992 43.5 -2s24.5 -4 36.5 -8z" />
    <glyph glyph-name="X" unicode="X" horiz-adv-x="554" 
d="M564 31l0.00878906 -24.002c-18.667 -5.33301 -36.334 -9.16602 -53.001 -11.499s-36.334 -3.5 -59.001 -3.5c-24 0 -45.667 0.666992 -65 2s-39 3.33301 -59 6v23c12.667 2.66699 21.5 8.33398 26.5 17.001s4.16699 19.667 -2.5 33l-93 181l-102 -204l59 -17v-27
c-22.667 -5.33301 -42.334 -9 -59.001 -11s-39.334 -3 -68.001 -3c-20 0 -37.833 0.666992 -53.5 2s-31.167 3.33301 -46.5 6v23c18 4.66699 33.167 11.167 45.5 19.5s21.833 18.833 28.5 31.5l146 247l-148 266l-55 17v26c17.333 5.33301 35.666 9.5 54.999 12.5
s39.666 4.5 60.999 4.5c22.667 0 43.167 -0.666992 61.5 -2s37.833 -4 58.5 -8v-24c-12.667 -4.66699 -21.334 -11 -26.001 -19s-5 -16.333 -1 -25l76 -158l95 176l-51 17v26c22 5.33301 42 9.5 60 12.5s37.333 4.5 58 4.5c16.667 0 31.667 -0.666992 45 -2s27.333 -4 42 -8
v-23c-12.667 -3.33301 -23.834 -8.83301 -33.501 -16.5s-19.834 -20.167 -30.501 -37.5l-133 -206l166 -304z" />
    <glyph glyph-name="Y" unicode="Y" 
d="M206 637l0.00390625 -22.9951c-12.667 -4.66699 -21.334 -11.834 -26.001 -21.501s-3.33398 -21.834 3.99902 -36.501l102 -204h2l110 234l-51 18v26c18.667 5.33301 37 9.5 55 12.5s36.667 4.5 56 4.5c18.667 0 33.667 -0.833008 45 -2.5s23.666 -4.16699 36.999 -7.5
v-23c-12.667 -4.66699 -22.667 -11.334 -30 -20.001s-16.333 -22.334 -27 -41.001l-151 -271v-230l62 -19v-26c-20.667 -5.33301 -41.334 -9.33301 -62.001 -12s-46.334 -4 -77.001 -4c-24 0 -44.5 0.666992 -61.5 2s-33.5 3.66602 -49.5 6.99902v23
c16.667 4.66699 30.334 12.667 41.001 24s16 27.333 16 48v161l-172 330l-49 18v26c18 5.33301 37.333 9.5 58 12.5s40.667 4.5 60 4.5c22.667 0 41.667 -0.833008 57 -2.5s32.333 -4.16699 51 -7.5z" />
    <glyph glyph-name="Z" unicode="Z" horiz-adv-x="501" 
d="M480 640l7.99805 -21l-296 -541h151c30.667 0 53.167 5.16699 67.5 15.5s25.5 27.833 33.5 52.5l8 25h38l-14 -171h-442l-8 19l294 545h-156c-19.333 0 -35.666 -5.5 -48.999 -16.5s-23.666 -27.833 -30.999 -50.5l-7 -22h-40l14 165h429z" />
    <glyph glyph-name="bracketleft" unicode="[" horiz-adv-x="275" 
d="M94 707h172l-8 -51h-93v-843h101l-8 -49h-164v943z" />
    <glyph glyph-name="backslash" unicode="\" horiz-adv-x="325" 
d="M82 720l222 -951l-61 -12l-221 951z" />
    <glyph glyph-name="bracketright" unicode="]" horiz-adv-x="275" 
d="M182 -236h-172l7 50h93v843h-100l7 50h165v-943z" />
    <glyph glyph-name="asciicircum" unicode="^" 
d="M14 153l251 307l246 -305l-56 -46l-194 246l-194 -244z" />
    <glyph glyph-name="underscore" unicode="_" horiz-adv-x="500" 
d="M0 -71h500v-65h-500v65z" />
    <glyph glyph-name="grave" unicode="`" horiz-adv-x="450" 
d="M144 658c0 15.333 6.16602 27.167 18.499 35.5s34.833 12.5 67.5 12.5c4.66699 -30 15.167 -62.167 31.5 -96.5s32.833 -61.833 49.5 -82.5l-14 -8c-23.333 0 -54.666 16.5 -93.999 49.5s-59 62.833 -59 89.5z" />
    <glyph glyph-name="a" unicode="a" horiz-adv-x="483" 
d="M455 39c-8.66699 -10 -22.501 -20.501 -41.501 -31.501s-37.167 -19.5 -54.5 -25.5c-10.667 6 -20.834 13.333 -30.501 22s-18.167 18 -25.5 28c-12 -10.667 -31.167 -21 -57.5 -31s-51.5 -15 -75.5 -15c-42 0 -75.5 10.667 -100.5 32s-37.5 49 -37.5 83
c0 44 23 81.5 69 112.5s111.667 46.5 197 46.5v25c0 48.667 -7 81.667 -21 99s-34.333 26 -61 26c-24 0 -50 -6.83301 -78 -20.5s-53 -31.5 -75 -53.5c-2 8 -3.83301 16.333 -5.5 25s-2.5 17.334 -2.5 26.001c0 31.333 13 55.833 39 73.5s72.333 26.5 139 26.5
c61.333 0 107.833 -12.667 139.5 -38s47.5 -59 47.5 -101c0 -12 -0.5 -28.5 -1.5 -49.5l-2.5 -53.5l-4 -155c4.66699 -8.66699 10.834 -17.667 18.501 -27s15.834 -17.333 24.501 -24zM298.999 72.999l0.000976562 134.001c-46.667 0 -82.834 -9 -108.501 -27
s-38.5 -39.333 -38.5 -64c0 -18.667 6.33301 -33.5 19 -44.5s30 -16.5 52 -16.5c12.667 0 26 1.66699 40 5s26 7.66602 36 12.999z" />
    <glyph glyph-name="b" unicode="b" horiz-adv-x="549" 
d="M204 646l-0.00292969 -209.003c14.667 13.333 33.834 24.5 57.501 33.5s47.167 13.5 70.5 13.5c54 0 98.167 -17.667 132.5 -53s51.5 -88.333 51.5 -159c0 -92 -26.333 -162.167 -79 -210.5s-114.667 -72.5 -186 -72.5c-34 0 -67.167 1.33301 -99.5 4
s-61.166 6.33398 -86.499 11.001c4.66699 14.667 8.5 31.334 11.5 50.001s4.5 36.334 4.5 53.001v535l-64 29v25c23.333 8 48.333 14 75 18s49.334 5.66699 68.001 5h51zM386.997 247.997c0 51.333 -11.332 89.833 -33.999 115.5s-48.667 38.5 -78 38.5
c-14 0 -26.833 -1.5 -38.5 -4.5s-22.834 -6.83301 -33.501 -11.5v-323c8.66699 -2.66699 17.167 -4.66699 25.5 -6s16.833 -2 25.5 -2c34 0 64.667 15.333 92 46s41 79.667 41 147z" />
    <glyph glyph-name="c" unicode="c" horiz-adv-x="416" 
d="M404 71c0 -24.667 -12.832 -45.166 -38.499 -61.499s-64.167 -24.5 -115.5 -24.5c-61.333 0 -112.833 20.833 -154.5 62.5s-62.5 97.834 -62.5 168.501c0 82.667 24.167 148.167 72.5 196.5s108.833 72.5 181.5 72.5c44 0 74.5 -6 91.5 -18s25.5 -29 25.5 -51
c0 -14 -2.5 -27.167 -7.5 -39.5s-11.5 -23.5 -19.5 -33.5c-16.667 19.333 -34.667 34.666 -54 45.999s-39.333 17 -60 17c-26.667 0 -50.167 -14 -70.5 -42s-30.5 -71 -30.5 -129c0 -52 12.167 -92.167 36.5 -120.5s53.5 -42.5 87.5 -42.5c19.333 0 38.666 3 57.999 9
s37.333 13.667 54 23c2 -4.66699 3.5 -9.83398 4.5 -15.501s1.5 -11.5 1.5 -17.5z" />
    <glyph glyph-name="d" unicode="d" horiz-adv-x="542" 
d="M347 642l-67.002 29v25c23.333 8 48.833 14 76.5 18s50.834 5.66699 69.501 5h51l-7 -73v-552c4.66699 -10 10.334 -20.167 17.001 -30.5s14.667 -19.833 24 -28.5c-12.667 -10 -28 -19.667 -46 -29s-36.333 -17.333 -55 -24c-10.667 7.33301 -21.334 16.5 -32.001 27.5
s-19 21.167 -25 30.5c-16 -15.333 -35.667 -28 -59 -38s-45.666 -15 -66.999 -15c-56 0 -102.333 19.333 -139 58s-55 92.667 -55 162c0 89.333 24.333 157.833 73 205.5s107 71.5 175 71.5c10.667 0 22.667 -0.5 36 -1.5s23.333 -2.5 30 -4.5v164zM347.998 85v325
c-7.33301 2 -16.833 3.66699 -28.5 5s-23.167 2 -34.5 2c-32.667 0 -61.334 -15.333 -86.001 -46s-37 -79.667 -37 -147c0 -54 11 -94.5 33 -121.5s46.333 -40.5 73 -40.5c14.667 0 29.334 2.16699 44.001 6.5s26.667 9.83301 36 16.5z" />
    <glyph glyph-name="e" unicode="e" horiz-adv-x="478" 
d="M450 298c0 -10.667 -0.168945 -21.5 -0.501953 -32.5s-0.833008 -23.833 -1.5 -38.5h-289c0 -46 14 -83 42 -111s62.333 -42 103 -42c21.333 0 44.833 3.66699 70.5 11s47.834 15.666 66.501 24.999c0.666992 -4 1.33398 -8.66699 2.00098 -14s1 -10.666 1 -15.999
c0 -24 -15.833 -45.833 -47.5 -65.5s-77.167 -29.5 -136.5 -29.5c-66 0 -120.333 20.667 -163 62s-64 97.333 -64 168c0 88.667 22.5 156.167 67.5 202.5s98.5 69.5 160.5 69.5c58 0 104 -17 138 -51s51 -80 51 -138zM334.998 289c0 48 -8 82.499 -24 103.499
s-36.667 31.5 -62 31.5c-22.667 0 -43.667 -12.667 -63 -38s-29 -57.666 -29 -96.999h178z" />
    <glyph glyph-name="f" unicode="f" horiz-adv-x="310" 
d="M210 47l60 -16.0029v-23c-19.333 -6 -39.833 -10.333 -61.5 -13s-48.5 -4 -80.5 -4c-14.667 0 -30.5 0.833008 -47.5 2.5s-32.167 3.83398 -45.5 6.50098v20c12.667 5.33301 24.5 13.5 35.5 24.5s16.5 23.167 16.5 36.5v319h-56v45l56 25l-1 66
c-0.666992 52 16.666 95.667 51.999 131s87 53 155 53c44 0 73.833 -5.16699 89.5 -15.5s23.5 -25.166 23.5 -44.499c0 -6.66699 -0.833008 -14 -2.5 -22s-3.83398 -15.667 -6.50098 -23c-19.333 10.667 -40.666 18.834 -63.999 24.501s-45.666 8.5 -66.999 8.5
c-16.667 0 -30.667 -8 -42 -24s-17 -41 -17 -75c0 -8 0.5 -22 1.5 -42s1.83301 -34.667 2.5 -44h115l-8 -63h-108v-353z" />
    <glyph glyph-name="g" unicode="g" horiz-adv-x="495" 
d="M327 315c0 38.667 -8.16797 67.333 -24.501 86s-34.833 28 -55.5 28c-23.333 0 -43.666 -11.167 -60.999 -33.5s-26 -55.5 -26 -99.5c0 -38 8.16699 -67.167 24.5 -87.5s34.5 -30.5 54.5 -30.5c24 0 44.667 10.833 62 32.5s26 56.5 26 104.5zM111.999 -23.001v1
c-19.333 7.33301 -33.833 17.333 -43.5 30s-14.5 28.667 -14.5 48s7.66699 38 23 56s34 30.333 56 37v1c-25.333 8.66699 -48 25.334 -68 50.001s-30 55.667 -30 93c0 54.667 21 100.667 63 138s93.667 56 155 56c21.333 0 42.666 -3.33301 63.999 -10s37 -14.667 47 -24
c9.33301 10 22.5 18.667 39.5 26s34.5 11 52.5 11c9.33301 0 17.833 -0.666992 25.5 -2s14.5 -3.33301 20.5 -6l-7 -78c-18 4.66699 -36.167 7.83398 -54.5 9.50098s-37.833 2.5 -58.5 2.5v-1c18.667 -10.667 35 -26 49 -46s21 -41 21 -63
c0 -54.667 -20.667 -98.834 -62 -132.501s-93.666 -50.5 -156.999 -50.5c-10.667 0 -21.834 1 -33.501 3s-21.167 4.33301 -28.5 7c-6 -3.33301 -11.5 -8.83301 -16.5 -16.5s-7.5 -15.167 -7.5 -22.5c0 -13.333 5.66699 -23.5 17 -30.5s28.333 -10.167 51 -9.5l127 4
c51.333 1.33301 88.833 -8.33398 112.5 -29.001s35.5 -51.667 35.5 -93c0 -50 -25.333 -93.667 -76 -131s-113.667 -56 -189 -56c-69.333 0 -121.166 11 -155.499 33s-51.5 51 -51.5 87c0 25.333 9 48 27 68s40.333 33.333 67 40zM152.999 -49.001
c-11.333 -6 -20.5 -14.5 -27.5 -25.5s-10.5 -22.833 -10.5 -35.5c0 -18.667 10.667 -34.667 32 -48s52.333 -20 93 -20c48 0 85.333 8.16699 112 24.5s40 35.166 40 56.499c0 14.667 -5.5 26.334 -16.5 35.001s-29.5 13 -55.5 13h-167z" />
    <glyph glyph-name="h" unicode="h" horiz-adv-x="580" 
d="M507 47l52.999 -16.002v-23c-16.667 -5.33301 -35.667 -9.5 -57 -12.5s-46.333 -4.5 -75 -4.5c-14 0 -28 0.833008 -42 2.5s-27 3.83398 -39 6.50098v20c12.667 6.66699 22 15.5 28 26.5s9 24.833 9 41.5v187c0 44 -9 75.333 -27 94s-41.333 28 -70 28
c-14 0 -27.833 -2 -41.5 -6s-24.834 -8.66699 -33.501 -14v-330l56 -16v-23c-19.333 -6 -39.5 -10.333 -60.5 -13s-46.833 -4 -77.5 -4c-14.667 0 -30.5 0.833008 -47.5 2.5s-32.167 3.83398 -45.5 6.50098v20c12.667 5.33301 24.5 13.5 35.5 24.5s16.5 23.167 16.5 36.5
v561l-64 29v25c23.333 8 47.833 14 73.5 18s48.834 5.66699 69.501 5h51l-7 -73v-219c18 18 39.333 31.833 64 41.5s51.334 14.5 80.001 14.5c48 0 85.167 -13.333 111.5 -40s39.5 -68 39.5 -124v-272z" />
    <glyph glyph-name="i" unicode="i" horiz-adv-x="292" 
d="M225 631c0 -22.667 -7 -40.833 -21 -54.5s-31.333 -20.5 -52 -20.5c-20 0 -36.667 6.5 -50 19.5s-20 29.833 -20 50.5c0 20 6.83301 37 20.5 51s31.5 21 53.5 21c20 0 36.5 -6 49.5 -18s19.5 -28.333 19.5 -49zM89 402.001l-61.999 28.999v24c24 8 48.833 14 74.5 18
s47.834 6 66.501 6l51 -1l-7 -71v-360l56 -16v-23c-18.667 -6 -38.834 -10.333 -60.501 -13s-47.834 -4 -78.501 -4c-14.667 0 -30.5 0.833008 -47.5 2.5s-31.833 3.83398 -44.5 6.50098v20c12.667 5.33301 24.5 13.5 35.5 24.5s16.5 23.167 16.5 36.5v321z" />
    <glyph glyph-name="j" unicode="j" horiz-adv-x="282" 
d="M223 631c0 -22.667 -7 -40.833 -21 -54.5s-31.333 -20.5 -52 -20.5c-20 0 -36.667 6.5 -50 19.5s-20 29.833 -20 50.5c0 20 6.83301 37 20.5 51s31.5 21 53.5 21c20 0 36.5 -6 49.5 -18s19.5 -28.333 19.5 -49zM212 405.001l-0.00195312 -424.001
c0 -86 -12.5 -145.333 -37.5 -178s-57.5 -49 -97.5 -49c-20.667 0 -38.5 3.83301 -53.5 11.5s-25.167 17.834 -30.5 30.501v17c24.667 0 46.834 12 66.501 36s29.5 59.333 29.5 106v447l-61 29v24c23.333 8 47.833 14 73.5 18s47.834 6 66.501 6l51 -1z" />
    <glyph glyph-name="k" unicode="k" horiz-adv-x="507" 
d="M217 719l-7.99902 -73v-382l55 50c22.667 19.333 42.667 44.5 60 75.5s26 58.167 26 81.5c10.667 4 22.167 7 34.5 9s24.166 3 35.499 3c8.66699 0 17.5 -0.833008 26.5 -2.5s18.167 -3.83398 27.5 -6.50098c-0.666992 -26.667 -11 -55.5 -31 -86.5s-51 -62.5 -93 -94.5
l-25 -17l133 -172c14.667 -18.667 28 -33 40 -43s24 -17 36 -21v-26c-14.667 -8.66699 -30 -14.667 -46 -18s-33.333 -5 -52 -5s-35.334 3.66699 -50.001 11s-28.334 20.333 -41.001 39l-136 197v-191l51 -16v-23c-19.333 -6 -39 -10.333 -59 -13s-44.667 -4 -74 -4
c-14.667 0 -30.5 0.833008 -47.5 2.5s-31.833 3.83398 -44.5 6.50098v20c12.667 5.33301 24.334 13.5 35.001 24.5s16 23.5 16 37.5v560l-64 29v25c24 8 49.333 14 76 18s49.334 5.66699 68.001 5h51z" />
    <glyph glyph-name="l" unicode="l" horiz-adv-x="289" 
d="M86 81l-0.000976562 560.999l-64 29v25c23.333 8 48.333 14 75 18s49.334 5.66699 68.001 5h51l-7 -73v-599l55 -16v-23c-18.667 -6 -38.667 -10.333 -60 -13s-47.333 -4 -78 -4c-14.667 0 -30.5 0.833008 -47.5 2.5s-31.833 3.83398 -44.5 6.50098v20
c12.667 5.33301 24.5 13.5 35.5 24.5s16.5 23.167 16.5 36.5z" />
    <glyph glyph-name="m" unicode="m" horiz-adv-x="860" 
d="M207 480l0.00292969 -56c18.667 18.667 40.834 33.167 66.501 43.5s52.834 15.5 81.501 15.5c30 0 56 -5.83301 78 -17.5s37.667 -27.167 47 -46.5c17.333 16.667 40.833 31.5 70.5 44.5s59.834 19.5 90.501 19.5c46 0 81.833 -13.333 107.5 -40
s38.5 -68.334 38.5 -125.001v-271l53 -16v-23c-16.667 -5.33301 -35.667 -9.5 -57 -12.5s-46 -4.5 -74 -4.5c-14.667 0 -29 0.833008 -43 2.5s-27 3.83398 -39 6.50098v20c12.667 6.66699 22 15.5 28 26.5s9 24.833 9 41.5v190c0 41.333 -9 71.5 -27 90.5
s-41.333 28.5 -70 28.5c-12.667 0 -25.5 -1.5 -38.5 -4.5s-24.5 -6.83301 -34.5 -11.5c1.33301 -8.66699 2.66602 -19 3.99902 -31s2 -23.667 2 -35v-268l52 -16v-23c-16.667 -5.33301 -35.334 -9.5 -56.001 -12.5s-45.334 -4.5 -74.001 -4.5c-14 0 -28 0.833008 -42 2.5
s-27 3.83398 -39 6.50098v20c12 6.66699 21 15.5 27 26.5s9 24.833 9 41.5v184c0 46 -8.16699 78.333 -24.5 97s-38.833 28 -67.5 28c-14.667 0 -28.334 -2 -41.001 -6s-23.334 -8.66699 -32.001 -14v-330l54 -16v-23c-18.667 -6 -38.334 -10.333 -59.001 -13
s-46.334 -4 -77.001 -4c-14.667 0 -30.5 0.833008 -47.5 2.5s-32.167 3.83398 -45.5 6.50098v20c12.667 5.33301 24.5 13.5 35.5 24.5s16.5 23.167 16.5 36.5v322l-61 29v25c23.333 7.33301 47.833 13.166 73.5 17.499s47.834 6.16602 66.501 5.49902h39z" />
    <glyph glyph-name="n" unicode="n" horiz-adv-x="580" 
d="M28 432v25.001c23.333 7.33301 47.833 13.166 73.5 17.499s47.834 6.16602 66.501 5.49902h39v-56c18 18 40.333 32.333 67 43s54.334 16 83.001 16c46 0 82.5 -13.333 109.5 -40s40.5 -68.334 40.5 -125.001v-271l53 -16v-23c-16.667 -5.33301 -35.667 -9.5 -57 -12.5
s-46 -4.5 -74 -4.5c-14.667 0 -29 0.833008 -43 2.5s-27 3.83398 -39 6.50098v20c12.667 6.66699 22 15.5 28 26.5s9 24.833 9 41.5v188c0 42.667 -9 73.5 -27 92.5s-41 28.5 -69 28.5c-14.667 0 -28.834 -2 -42.501 -6s-24.834 -8.66699 -33.501 -14v-330l56 -16v-23
c-19.333 -6 -39.5 -10.333 -60.5 -13s-46.833 -4 -77.5 -4c-14.667 0 -30.5 0.833008 -47.5 2.5s-32.167 3.83398 -45.5 6.50098v20c12.667 5.33301 24.5 13.5 35.5 24.5s16.5 23.167 16.5 36.5v322z" />
    <glyph glyph-name="o" unicode="o" horiz-adv-x="559" 
d="M526 257c0 -86 -26.6689 -153.168 -80.002 -201.501s-112 -72.5 -176 -72.5c-69.333 0 -126.166 21.333 -170.499 64s-66.5 99.334 -66.5 170.001c0 80 25.667 145.333 77 196s112 76 182 76c68.667 0 124.834 -21.333 168.501 -64s65.5 -98.667 65.5 -168z
M392.998 248.999c0 56 -11.168 97.833 -33.501 125.5s-47.833 41.5 -76.5 41.5c-28 0 -54.5 -15.333 -79.5 -46s-37.5 -79 -37.5 -145c0 -55.333 11.5 -97.333 34.5 -126s48.167 -43 75.5 -43c26.667 0 52.834 14.833 78.501 44.5s38.5 79.167 38.5 148.5z" />
    <glyph glyph-name="p" unicode="p" horiz-adv-x="553" 
d="M207 387l-0.000976562 -322.998c8.66699 -2.66699 17.5 -4.83398 26.5 -6.50098s18.833 -2.5 29.5 -2.5c32.667 0 62.167 15.333 88.5 46s39.5 78.667 39.5 144c0 54 -11.667 93.667 -35 119s-50 38 -80 38c-13.333 0 -25.666 -1.33301 -36.999 -4
s-22 -6.33398 -32 -11.001zM272.999 -206.998l-0.000976562 -22.9971c-18.667 -6 -39.5 -10.333 -62.5 -13s-51.5 -4 -85.5 -4c-14.667 0 -30.5 0.833008 -47.5 2.5s-31.833 3.83398 -44.5 6.50098v20c12.667 5.33301 24.5 13.5 35.5 24.5s16.5 23.167 16.5 36.5v560l-62 29
v25c24 7.33301 48.833 13.166 74.5 17.499s47.834 6.16602 66.501 5.49902h39v-50c16.667 16 37 29 61 39s47.667 15 71 15c54 0 98.333 -17.833 133 -53.5s52 -89.834 52 -162.501c0 -90.667 -25 -159.834 -75 -207.501s-108 -71.5 -174 -71.5
c-11.333 0 -22.5 1.16699 -33.5 3.5s-20.833 4.83301 -29.5 7.5v-190z" />
    <glyph glyph-name="q" unicode="q" horiz-adv-x="545" 
d="M471 -190l60 -17.002v-23c-18.667 -6 -38.667 -10.333 -60 -13s-48.666 -4 -81.999 -4c-14.667 0 -30.5 0.833008 -47.5 2.5s-32.167 3.83398 -45.5 6.50098v20c12.667 5.33301 24.5 13.5 35.5 24.5s16.5 23.167 16.5 36.5v187c-14.667 -12 -33.5 -22.167 -56.5 -30.5
s-44.833 -12.5 -65.5 -12.5c-54.667 0 -100.334 19.333 -137.001 58s-55 93 -55 163c0 86.667 24.333 154.334 73 203.001s106.667 73 174 73c14 0 28 -1.5 42 -4.5s26 -6.83301 36 -11.5l78 19h41l-7 -89v-588zM349 82.998v324.999c-6 2.66699 -15.167 5 -27.5 7
s-23.5 3 -33.5 3c-34 0 -63.333 -15.5 -88 -46.5s-37 -80.167 -37 -147.5c0 -54 10.833 -94.5 32.5 -121.5s45.834 -40.5 72.501 -40.5c16 0 31.667 2.33301 47 7s26.666 9.33398 33.999 14.001z" />
    <glyph glyph-name="r" unicode="r" horiz-adv-x="367" 
d="M212 47l70.999 -16v-23c-19.333 -6 -41.5 -10.333 -66.5 -13s-53.833 -4 -86.5 -4c-14.667 0 -30.5 0.833008 -47.5 2.5s-32.167 3.83398 -45.5 6.50098v20c12.667 5.33301 24.5 13.5 35.5 24.5s16.5 23.167 16.5 36.5v322l-61 29v25
c23.333 7.33301 47.833 13.166 73.5 17.499s47.834 6.16602 66.501 5.49902h39v-77h2l27 35c12.667 16.667 25.167 28.5 37.5 35.5s26.833 10.5 43.5 10.5c18 0 31.333 -4 40 -12s13 -20.333 13 -37c0 -12.667 -1.33301 -25.667 -4 -39s-6.33398 -26.333 -11.001 -39
c-11.333 6.66699 -22.166 11.834 -32.499 15.501s-20.833 5.5 -31.5 5.5c-14.667 0 -28.5 -2.5 -41.5 -7.5s-25.5 -12.5 -37.5 -22.5v-301z" />
    <glyph glyph-name="s" unicode="s" horiz-adv-x="405" 
d="M381 147c0 -44 -19.3311 -82.332 -57.998 -114.999s-89 -49 -151 -49c-50 0 -86.167 7.33301 -108.5 22s-33.5 35.667 -33.5 63c0 8.66699 1 18 3 28s4.33301 18.333 7 25c25.333 -20 50.666 -35 75.999 -45s50.333 -15 75 -15c25.333 0 44.333 4.33301 57 13
s19 20.334 19 35.001s-5.33301 27 -16 37s-30.667 20.333 -60 31l-55 20c-32 11.333 -56.5 27.5 -73.5 48.5s-25.5 47.5 -25.5 79.5c0 44 17.667 82.167 53 114.5s84 48.5 146 48.5c44.667 0 76.667 -6.66699 96 -20s29 -31.333 29 -54c0 -9.33301 -0.666992 -18.333 -2 -27
s-3.33301 -18 -6 -28c-16.667 14 -36.5 25.333 -59.5 34s-44.5 13 -64.5 13c-30.667 0 -52.834 -4.83301 -66.501 -14.5s-20.5 -20.834 -20.5 -33.501s4.66699 -23.834 14 -33.501s28.333 -19.167 57 -28.5l61 -20c38.667 -12.667 66.167 -29.5 82.5 -50.5
s24.5 -47.167 24.5 -78.5z" />
    <glyph glyph-name="t" unicode="t" horiz-adv-x="332" 
d="M332 91l7.99902 -9.99902c-2.66699 -30.667 -14.167 -54 -34.5 -70s-49.833 -24 -88.5 -24c-46 0 -80.833 11.333 -104.5 34s-35.5 58 -35.5 106c0 18 0.333008 41.667 1 71s1.33398 54.333 2.00098 75l4 128h-50v43l135 109l45 4l-5 -92h118l-8 -66h-115l-2 -117
c-0.666992 -19.333 -1 -38.333 -1 -57v-53c0 -36 5.66699 -61.5 17 -76.5s27.333 -22.5 48 -22.5c12 0 23.5 1.66699 34.5 5s21.5 7.66602 31.5 12.999z" />
    <glyph glyph-name="u" unicode="u" horiz-adv-x="560" 
d="M360 405l-54.999 28.999v24c23.333 8 47 14 71 18s45.333 6 64 6h51l-8 -73v-318c4.66699 -8.66699 10.5 -18 17.5 -28s14.5 -19 22.5 -27c-9.33301 -8.66699 -24.166 -18.334 -44.499 -29.001s-39.833 -19 -58.5 -25c-10 6.66699 -19.833 15.334 -29.5 26.001
s-17.5 21.334 -23.5 32.001c-14.667 -14.667 -35.334 -27.167 -62.001 -37.5s-54.334 -15.5 -83.001 -15.5c-48 0 -84.833 12.833 -110.5 38.5s-38.5 68.5 -38.5 128.5v251l-57 29v24c23.333 8 47.333 14 72 18s46.334 6 65.001 6h51l-8 -73v-213
c0 -46.667 7.83301 -79.667 23.5 -99s37.5 -29 65.5 -29c14 0 27.667 2 41 6s24.666 8.33301 33.999 13v318z" />
    <glyph glyph-name="v" unicode="v" horiz-adv-x="429" 
d="M-20 480h220v-30l-45 -24l94 -282h1l90 277l-49 27v32h166v-30l-29 -26l-176 -434l-63 -3l-172 432l-37 29v32z" />
    <glyph glyph-name="w" unicode="w" horiz-adv-x="681" 
d="M-21 480h225v-30l-46 -23l71 -286h1l83 285l-43 22v32h188v-30l-26 -20l74 -288h1l85 278l-50 28v32h167v-30l-27 -22l-171 -437l-59 -3l-107 344h-1l-104 -341l-65 -3l-153 429l-43 31v32z" />
    <glyph glyph-name="x" unicode="x" horiz-adv-x="443" 
d="M5 480l209.997 -0.000976562v-30l-35 -17l64 -140l68 134l-41 21v32h162v-30l-30 -25l-113 -170l121 -209l43 -15v-23c-16.667 -5.33301 -34.5 -9.5 -53.5 -12.5s-39.833 -4.5 -62.5 -4.5c-18 0 -35.167 0.666992 -51.5 2s-30.166 3.66602 -41.499 6.99902v20
c11.333 4 18.833 9.33301 22.5 16s3.83398 13.334 0.500977 20.001l-62 131l-75 -142l46 -14v-23c-20 -6 -37.5 -10.333 -52.5 -13s-34.167 -4 -57.5 -4c-14.667 0 -28.834 0.833008 -42.501 2.5s-26.5 3.83398 -38.5 6.50098v20c10.667 2.66699 21.834 8 33.501 16
s20.834 17.333 27.501 28l112 170l-112 189l-42 25v32z" />
    <glyph glyph-name="y" unicode="y" horiz-adv-x="418" 
d="M-29 480l228.001 0.00195312v-30l-47 -26l96 -269h1l82 267l-50 26v32h162v-30l-27 -25l-143 -386c-42 -114.667 -82 -190.834 -120 -228.501s-70.667 -56.5 -98 -56.5c-24.667 0 -42.834 7.16699 -54.501 21.5s-17.5 39.166 -17.5 74.499
c8.66699 -2 17.5 -3.5 26.5 -4.5s18.167 -1.5 27.5 -1.5c18.667 0 42 12.333 70 37s50.333 61.667 67 111l12 35l-171 392l-44 29v32z" />
    <glyph glyph-name="z" unicode="z" horiz-adv-x="418" 
d="M387 480l11 -25l-217 -384h96c22.667 0 40 3.5 52 10.5s21.333 17.833 28 32.5l13 29h32l-16 -143h-353l-11 22l222 387h-95c-19.333 0 -34.333 -3.5 -45 -10.5s-19.667 -18.833 -27 -35.5l-10 -22h-32l13 139h339z" />
    <glyph glyph-name="braceleft" unicode="{" horiz-adv-x="275" 
d="M100 593c0 36.667 9.99902 66 29.999 88s46.333 33 79 33c15.333 0 27 -3.66699 35 -11s12 -17.333 12 -30c-29.333 0 -50.666 -6 -63.999 -18s-20 -29.333 -20 -52v-244c0 -33.333 -13.5 -60.666 -40.5 -81.999s-69.167 -35.333 -126.5 -42v-1
c57.333 -0.666992 99.5 -12.834 126.5 -36.501s40.5 -53.5 40.5 -89.5v-235c0 -26 7.33301 -45.333 22 -58s36.667 -19 66 -19c0 -12.667 -4.5 -22.834 -13.5 -30.501s-22.5 -11.5 -40.5 -11.5c-35.333 0 -61.833 9.33301 -79.5 28s-26.5 44 -26.5 76v232
c0 26.667 -10.833 50.834 -32.5 72.501s-56.5 40.167 -104.5 55.5v33c48 10.667 82.833 24.5 104.5 41.5s32.5 36.833 32.5 59.5v241z" />
    <glyph glyph-name="bar" unicode="|" horiz-adv-x="300" 
d="M116 736h68v-1000h-68v1000z" />
    <glyph glyph-name="braceright" unicode="}" horiz-adv-x="275" 
d="M176 -125c0 -36.667 -9.99902 -66 -29.999 -88s-46.333 -33 -79 -33c-15.333 0 -27 3.66699 -35 11s-12 17.333 -12 30c29.333 0 50.666 6 63.999 18s20 29.333 20 52v245c0 33.333 13.5 60.666 40.5 81.999s69.167 35.333 126.5 42v1
c-57.333 0.666992 -99.5 12.834 -126.5 36.501s-40.5 53.5 -40.5 89.5v234c0 26 -7.33301 45.333 -22 58s-36.667 19 -66 19c0 12.667 4.5 22.834 13.5 30.501s22.5 11.5 40.5 11.5c35.333 0 61.833 -9.33301 79.5 -28s26.5 -44 26.5 -76v-231
c0 -26.667 10.833 -50.834 32.5 -72.501s56.5 -40.167 104.5 -55.5v-33c-48 -10.667 -82.833 -24.5 -104.5 -41.5s-32.5 -36.833 -32.5 -59.5v-242z" />
    <glyph glyph-name="asciitilde" unicode="~" 
d="M145 324c10.667 0 21.833 -1.00098 33.5 -3.00098s23.834 -4.66699 36.501 -8l61 -16c7.33301 -2 15.333 -3.66699 24 -5s16.667 -2 24 -2c11.333 0 22.166 5.16699 32.499 15.5s15.5 21.5 15.5 33.5c9.33301 -8.66699 16.833 -18.5 22.5 -29.5s8.5 -23.167 8.5 -36.5
c0 -18 -7.66699 -33 -23 -45s-32.666 -18 -51.999 -18c-11.333 0 -23 0.833008 -35 2.5s-23 3.83398 -33 6.50098l-62 17c-9.33301 2.66699 -18.333 4.66699 -27 6s-16.334 2 -23.001 2c-12 0 -22.5 -4.33301 -31.5 -13s-13.5 -18.334 -13.5 -29.001
c-8.66699 8 -15.834 17.333 -21.501 28s-8.5 22 -8.5 34c0 18.667 6.33301 33.334 19 44.001s30.334 16 53.001 16z" />
    <glyph glyph-name="uni00A0" unicode="&#xa0;" horiz-adv-x="192" 
 />
    <glyph glyph-name="exclamdown" unicode="&#xa1;" horiz-adv-x="321" 
d="M239 417c0 -20 -7 -37 -21 -51s-31 -21 -51 -21s-37 7 -51 21s-21 31 -21 51s7 37 21 51s31 21 51 21s37 -7 51 -21s21 -31 21 -51zM31 -198l36 74.999l36 172c3.33301 16.667 6 36.834 8 60.501s3 43.834 3 60.501c0 18.667 -1.5 38.667 -4.5 60
s-6.83301 40.666 -11.5 57.999c38.667 0 70 -11.833 94 -35.5s36 -55.834 36 -96.501c0 -39.333 -5.16699 -82.666 -15.5 -129.999s-15.5 -89.333 -15.5 -126c0 -14 1.16699 -28 3.5 -42s5.83301 -27.333 10.5 -40c-30 -5.33301 -58.5 -9.33301 -85.5 -12s-58.5 -4 -94.5 -4
z" />
    <glyph glyph-name="cent" unicode="&#xa2;" 
d="M206 235c0 -48 10.167 -85.832 30.5 -113.499s45.5 -43.834 75.5 -48.501v333h-5c-26.667 0 -50.167 -14 -70.5 -42s-30.5 -71 -30.5 -129zM448 71.001c0 -20 -8.33105 -37.335 -24.998 -52.002s-41.667 -24.667 -75 -30v-89h-36v86
c-2.66699 -0.666992 -5.66699 -1 -9 -1h-9c-61.333 0 -112.833 20.833 -154.5 62.5s-62.5 97.834 -62.5 168.501c0 78.667 22.333 142 67 190s100.667 74 168 78v95h36v-94c37.333 -1.33301 63.333 -8 78 -20s22 -28.333 22 -49c0 -14 -2.5 -27.167 -7.5 -39.5
s-11.5 -23.5 -19.5 -33.5c-10.667 12.667 -22.334 23.834 -35.001 33.501s-25.334 16.834 -38.001 21.501v-325c16.667 1.33301 33 4.83301 49 10.5s31 12.5 45 20.5c2 -4.66699 3.5 -9.83398 4.5 -15.501s1.5 -11.5 1.5 -17.5z" />
    <glyph glyph-name="sterling" unicode="&#xa3;" horiz-adv-x="519" 
d="M225 79l132 -0.000976562c26.667 0 46.167 4.16699 58.5 12.5s22.5 20.833 30.5 37.5l10 21h36l-18 -150h-427v27c20 7.33301 34.5 17.333 43.5 30s13.5 31.334 13.5 56.001l9 179h-62v46l65 19l6 137c2 48 23.5 87.167 64.5 117.5s94.833 45.5 161.5 45.5
c49.333 0 83.333 -4.5 102 -13.5s28 -21.833 28 -38.5c0 -8.66699 -1 -18 -3 -28s-5.33301 -19.333 -10 -28c-18.667 14 -39.5 24.167 -62.5 30.5s-45.833 9.5 -68.5 9.5c-25.333 0 -46.833 -8.33301 -64.5 -25s-27.167 -39 -28.5 -67l-6 -140h174l-10 -65h-166z" />
    <glyph glyph-name="currency" unicode="&#xa4;" 
d="M365 494l45.002 45.002l41 -41l-45 -45c10.667 -14.667 19 -30.834 25 -48.501s9 -36.5 9 -56.5s-3 -38.833 -9 -56.5s-14.333 -33.834 -25 -48.501l45 -45l-41 -41l-45 45c-14.667 -10.667 -30.834 -19 -48.501 -25s-36.5 -9 -56.5 -9s-38.833 3 -56.5 9
s-33.834 14.333 -48.501 25l-45 -45l-41 41l44 44c-10.667 14.667 -18.834 31 -24.501 49s-8.5 37 -8.5 57s3 39 9 57s14.333 34.333 25 49l-44 44l40 41l44 -45c14.667 10.667 31 19 49 25s37 9 57 9s38.833 -3 56.5 -9s33.834 -14.333 48.501 -25zM260.002 464.002
c-32 0 -59.333 -11.333 -82 -34s-34 -50 -34 -82s11.333 -59.333 34 -82s50 -34 82 -34s59.333 11.333 82 34s34 50 34 82s-11.333 59.333 -34 82s-50 34 -82 34z" />
    <glyph glyph-name="yen" unicode="&#xa5;" 
d="M210 637v-22.9951c-12.667 -4.66699 -21.167 -11.834 -25.5 -21.501s-3.16602 -21.834 3.50098 -36.501l98 -204h2l106 234l-51 18v26c18.667 5.33301 37 9.5 55 12.5s36.667 4.5 56 4.5c18.667 0 33.667 -0.833008 45 -2.5s23.666 -4.16699 36.999 -7.5v-23
c-12.667 -4.66699 -22.834 -11.334 -30.501 -20.001s-16.5 -22.334 -26.5 -41.001l-147 -263h156v-48h-160v-46h160v-48h-160v-96l62 -19v-26c-20.667 -5.33301 -40.667 -9.33301 -60 -12s-44.333 -4 -75 -4c-24 0 -44.5 0.666992 -61.5 2s-33.5 3.66602 -49.5 6.99902v23
c16.667 4.66699 30.334 12.667 41.001 24s16 27.333 16 48v53h-152v48h152v46h-152v48h134l-150 296l-49 18v26c18 5.33301 37.333 9.5 58 12.5s40.667 4.5 60 4.5c22.667 0 41.667 -0.833008 57 -2.5s32.333 -4.16699 51 -7.5z" />
    <glyph glyph-name="brokenbar" unicode="&#xa6;" horiz-adv-x="300" 
d="M116 736h68v-406h-68v406zM116 141h68v-405h-68v405z" />
    <glyph glyph-name="section" unicode="&#xa7;" horiz-adv-x="500" 
d="M112 436c0 -25.333 5.16797 -50.6709 15.501 -76.0039s25.833 -51.666 46.5 -78.999l107 -138c24.667 -31.333 43.167 -61.666 55.5 -90.999s18.5 -60 18.5 -92c0 -25.333 -5.5 -50.166 -16.5 -74.499s-24.167 -44.166 -39.5 -59.499c16.667 0 37.5 18 62.5 54
s37.5 79 37.5 129c0 30.667 -5.5 59.167 -16.5 85.5s-27.833 53.833 -50.5 82.5l-98 124c-24.667 31.333 -42.834 59.5 -54.501 84.5s-17.5 50.167 -17.5 75.5c0 30.667 6 57.5 18 80.5s28 40.5 48 52.5c-27.333 0 -53.5 -15.333 -78.5 -46s-37.5 -68 -37.5 -112z
M289.001 572.995c-26.667 0 -46.8359 -9.5 -60.5029 -28.5s-20.5 -42.167 -20.5 -69.5c0 -18 6.33301 -38.833 19 -62.5s32 -51.834 58 -84.501l99 -124c21.333 -26.667 37.833 -54.5 49.5 -83.5s17.5 -60.833 17.5 -95.5c0 -77.333 -26.167 -142 -78.5 -194
s-107.166 -78 -164.499 -78c-24.667 0 -51.167 3 -79.5 9s-51.833 14 -70.5 24v153h38l7 -33c7.33301 -27.333 20.333 -47.833 39 -61.5s42 -20.5 70 -20.5c24.667 0 46.167 10 64.5 30s27.5 47 27.5 81c0 26.667 -6.16699 54.5 -18.5 83.5s-31.166 60.167 -56.499 93.5
l-108 141c-21.333 28.667 -37 56.5 -47 83.5s-15 55.5 -15 85.5c0 60 22 112.667 66 158s97.667 68 161 68c36.667 0 66.167 -2.16699 88.5 -6.5s44.833 -11.5 67.5 -21.5l-11 -160h-37l-5 26c-5.33301 28.667 -17.666 50.334 -36.999 65.001s-40.333 22 -63 22z" />
    <glyph glyph-name="dieresis" unicode="&#xa8;" horiz-adv-x="450" 
d="M371 607c0 -16 -5.33301 -29.333 -16 -40s-23.334 -16 -38.001 -16c-16 0 -28.667 5 -38 15s-14 22.667 -14 38s5.16699 28.833 15.5 40.5s23.5 17.5 39.5 17.5c14.667 0 26.834 -5 36.501 -15s14.5 -23.333 14.5 -40zM199 607c0 -16 -5.33301 -29.333 -16 -40
s-23.334 -16 -38.001 -16c-16 0 -28.667 5 -38 15s-14 22.667 -14 38s5.16699 28.833 15.5 40.5s23.5 17.5 39.5 17.5c14.667 0 26.834 -5 36.501 -15s14.5 -23.333 14.5 -40z" />
    <glyph glyph-name="copyright" unicode="&#xa9;" horiz-adv-x="850" 
d="M427 651c93.333 0 173.001 -32 239.001 -96s99 -142.667 99 -236c0 -92 -33.833 -171.333 -101.5 -238s-147.834 -100 -240.501 -100c-95.333 0 -175.5 32 -240.5 96s-97.5 143.333 -97.5 238c0 92 34 171 102 237s148 99 240 99zM424.001 603
c-77.333 0 -142.999 -27.832 -196.999 -83.499s-81 -122.834 -81 -201.501c0 -81.333 27 -149.833 81 -205.5s120.333 -83.5 199 -83.5c77.333 0 143.166 27.667 197.499 83s81.5 123.333 81.5 204c0 80 -27.5 147.833 -82.5 203.5s-121.167 83.5 -198.5 83.5z
M456.002 191.001c19.333 0 35.8369 4 49.5039 12s23.834 20.333 30.501 37l5 12h24l-13 -94c-16.667 -8.66699 -34.834 -15 -54.501 -19s-40.834 -6 -63.501 -6c-46.667 0 -88.334 17 -125.001 51s-55 79.333 -55 136c0 59.333 20.5 107.833 61.5 145.5
s86.833 56.5 137.5 56.5c20.667 0 41.334 -2.5 62.001 -7.5s36.667 -10.833 48 -17.5l-9 -92h-24l-5 16c-4.66699 14.667 -13.334 26.5 -26.001 35.5s-28 13.5 -46 13.5c-22.667 0 -43.334 -11.667 -62.001 -35s-28 -60 -28 -110c0 -45.333 10.167 -79 30.5 -101
s41.166 -33 62.499 -33z" />
    <glyph glyph-name="ordfeminine" unicode="&#xaa;" horiz-adv-x="329" 
d="M314 349c-6 -6 -16.1689 -12.835 -30.502 -20.502s-27.833 -13.5 -40.5 -17.5c-7.33301 4 -14.5 8.83301 -21.5 14.5s-13.167 11.834 -18.5 18.501c-8.66699 -6.66699 -21.667 -13.167 -39 -19.5s-34.333 -9.5 -51 -9.5c-29.333 0 -52.666 6.83301 -69.999 20.5
s-26 31.834 -26 54.501c0 28.667 15.5 53 46.5 73s75.833 30 134.5 30v16c0 30 -4.66699 50.667 -14 62s-22.333 17 -39 17c-15.333 0 -33 -4.66699 -53 -14s-37.333 -21.333 -52 -36l-4 18.5c-1.33301 6.33301 -2 12.833 -2 19.5c0 20.667 8.83301 36.5 26.5 47.5
s50.167 16.5 97.5 16.5c44 0 77 -8 99 -24s33 -38 33 -66c0 -8 -0.333008 -19 -1 -33s-1 -25.667 -1 -35l-3 -100c2.66699 -4.66699 6.83398 -10.167 12.501 -16.5s11.167 -11.833 16.5 -16.5zM198.998 371.998l-0.000976562 85c-29.333 0 -52.166 -5.5 -68.499 -16.5
s-24.5 -24.5 -24.5 -40.5c0 -11.333 4.33301 -20.5 13 -27.5s20 -10.5 34 -10.5c7.33301 0 15.333 0.833008 24 2.5s16 4.16699 22 7.5z" />
    <glyph glyph-name="guillemotleft" unicode="&#xab;" horiz-adv-x="477" 
d="M464 420c-20 -16.667 -39.832 -35.668 -59.499 -57.001s-36.834 -41.333 -51.501 -60l-32 -44l48 -80c12 -20 25 -38.5 39 -55.5s28.667 -32.833 44 -47.5c-9.33301 -3.33301 -19.5 -6.16602 -30.5 -8.49902s-23.167 -3.5 -36.5 -3.5c-18.667 0 -36.167 5.5 -52.5 16.5
s-31.833 30.167 -46.5 57.5l-64 115l56 81c28 40 51.833 67.5 71.5 82.5s37.167 22.5 52.5 22.5c12 0 23.167 -1.5 33.5 -4.5s19.833 -7.83301 28.5 -14.5zM266.001 419.999c-20 -16.667 -39.832 -35.668 -59.499 -57.001s-36.834 -41.333 -51.501 -60l-32 -44l48 -80
c12 -20 25 -38.5 39 -55.5s28.667 -32.833 44 -47.5c-9.33301 -3.33301 -19.5 -6.16602 -30.5 -8.49902s-23.167 -3.5 -36.5 -3.5c-18.667 0 -36.167 5.5 -52.5 16.5s-31.833 30.167 -46.5 57.5l-64 115l56 81c28 40 51.833 67.5 71.5 82.5s37.167 22.5 52.5 22.5
c12 0 23.167 -1.5 33.5 -4.5s19.833 -7.83301 28.5 -14.5z" />
    <glyph glyph-name="logicalnot" unicode="&#xac;" 
d="M469 326v-200h-70v134h-348v66h418z" />
    <glyph glyph-name="uni00AD" unicode="&#xad;" horiz-adv-x="314" 
d="M291 325l-21 -96l-243 -14l23 95z" />
    <glyph glyph-name="registered" unicode="&#xae;" horiz-adv-x="850" 
d="M427 651c93.333 0 173.001 -32 239.001 -96s99 -142.667 99 -236c0 -92 -33.833 -171.333 -101.5 -238s-147.834 -100 -240.501 -100c-95.333 0 -175.5 32 -240.5 96s-97.5 143.333 -97.5 238c0 92 34 171 102 237s148 99 240 99zM424.001 603
c-77.333 0 -142.999 -27.832 -196.999 -83.499s-81 -122.834 -81 -201.501c0 -81.333 27 -149.833 81 -205.5s120.333 -83.5 199 -83.5c77.333 0 143.166 27.667 197.499 83s81.5 123.333 81.5 204c0 80 -27.5 147.833 -82.5 203.5s-121.167 83.5 -198.5 83.5z
M388.002 277.001l-0.00195312 -95.0029l44 -11v-19c-14.667 -4.66699 -29.667 -8 -45 -10s-32.333 -3 -51 -3c-14 0 -28.167 0.833008 -42.5 2.5s-27.833 3.83398 -40.5 6.50098v18c14 4 24.333 10.167 31 18.5s10 19.833 10 34.5v250l-44 14v21
c16.667 3.33301 45 6.33301 85 9s73.667 4 101 4c52.667 0 91.834 -9.33301 117.501 -28s38.5 -43.334 38.5 -74.001c0 -24 -8 -45.167 -24 -63.5s-36.333 -31.833 -61 -40.5l52 -69c10 -13.333 21.333 -25.666 34 -36.999s26.334 -20 41.001 -26v-17
c-9.33301 -7.33301 -20.5 -13.166 -33.5 -17.499s-25.5 -6.5 -37.5 -6.5c-19.333 0 -36.5 5.83301 -51.5 17.5s-31.833 32.834 -50.5 63.501l-36 58h-37zM409 312.998c23.333 0 43.166 7.66895 59.499 23.002s24.5 36.666 24.5 63.999c0 22.667 -6.83301 40.167 -20.5 52.5
s-31.167 18.5 -52.5 18.5c-4.66699 0 -10.167 -0.333008 -16.5 -1s-12.166 -1.33398 -17.499 -2.00098v-155h23z" />
    <glyph glyph-name="macron" unicode="&#xaf;" horiz-adv-x="450" 
d="M358 570h-266v74h266v-74z" />
    <glyph glyph-name="degree" unicode="&#xb0;" horiz-adv-x="440" 
d="M219 651c40 0 74.333 -14.167 103 -42.5s43 -62.5 43 -102.5c0 -39.333 -14.5 -72.833 -43.5 -100.5s-62.833 -41.5 -101.5 -41.5c-40 0 -74 13.833 -102 41.5s-42 61.167 -42 100.5s14.167 73.333 42.5 102s61.833 43 100.5 43zM219 603c-23.333 0 -44 -9.5 -62 -28.5
s-27 -41.5 -27 -67.5s9.16699 -48.167 27.5 -66.5s39.5 -27.5 63.5 -27.5c23.333 0 44 9 62 27s27 39.667 27 65c0 26.667 -9.5 49.667 -28.5 69s-39.833 29 -62.5 29z" />
    <glyph glyph-name="plusminus" unicode="&#xb1;" 
d="M295 326h174v-66h-174v-134h-69v134h-175v66h175v129h69v-129zM51 65h418v-65h-418v65z" />
    <glyph glyph-name="twosuperior" unicode="&#xb2;" horiz-adv-x="326" 
d="M242 319c-18.667 0 -50.166 0.666016 -94.499 1.99902s-84.833 2 -121.5 2l-5 38l111 91c19.333 16 33.5 31.167 42.5 45.5s13.5 28.833 13.5 43.5c0 16 -5.33301 28.667 -16 38s-25.334 14 -44.001 14c-14.667 0 -29.5 -4.33301 -44.5 -13s-29.5 -19.667 -43.5 -33
c-3.33301 6 -6 12.333 -8 19s-3 14.334 -3 23.001c0 14.667 9.33301 27.834 28 39.501s50 17.5 94 17.5c48 0 83.167 -8.33301 105.5 -25s33.5 -37.334 33.5 -62.001c0 -23.333 -7.16699 -45 -21.5 -65s-37.166 -39.667 -68.499 -59l-81 -54h59c24.667 0 47 1.33301 67 4
s40.333 6.66699 61 12c1.33301 -4.66699 2.5 -10 3.5 -16s1.5 -12.333 1.5 -19c0 -14.667 -5.33301 -25.5 -16 -32.5s-28.334 -10.5 -53.001 -10.5z" />
    <glyph glyph-name="threesuperior" unicode="&#xb3;" horiz-adv-x="326" 
d="M294 572c0 -20.667 -10.167 -39 -30.5 -55s-47.833 -26.333 -82.5 -31v-1c41.333 0 71.833 -6.5 91.5 -19.5s29.5 -29.833 29.5 -50.5c0 -28.667 -15 -52.667 -45 -72s-70.333 -29 -121 -29c-40 0 -67.333 4.33301 -82 13s-22 20 -22 34c0 4.66699 1 9.83398 3 15.501
s4.33301 10.834 7 15.501c12 -8.66699 26.5 -16.334 43.5 -23.001s31.833 -10 44.5 -10c20.667 0 37.5 4.33301 50.5 13s19.5 20 19.5 34c0 13.333 -7.33301 24.166 -22 32.499s-38.667 12.5 -72 12.5c-4.66699 0 -10.167 -0.166992 -16.5 -0.5
s-11.833 -0.833008 -16.5 -1.5l-7 49l29 -1c26 -0.666992 49 4.33301 69 15s30 24.667 30 42c0 12.667 -5 22.5 -15 29.5s-24.667 10.5 -44 10.5c-14 0 -28.667 -3 -44 -9s-28.333 -13.667 -39 -23c-2.66699 6 -4.66699 12.167 -6 18.5s-2 12.5 -2 18.5
c0 12.667 9 23.667 27 33s48.667 14 92 14c46 0 79.333 -7 100 -21s31 -31.667 31 -53z" />
    <glyph glyph-name="acute" unicode="&#xb4;" horiz-adv-x="450" 
d="M305 658c0 -26.667 -19.668 -56.501 -59.001 -89.501s-70.666 -49.5 -93.999 -49.5l-13 8c16.667 20.667 33 48.167 49 82.5s26.333 66.5 31 96.5c32.667 0 55.167 -4.16699 67.5 -12.5s18.5 -20.166 18.5 -35.499z" />
    <glyph glyph-name="uni00B5" unicode="&#xb5;" horiz-adv-x="553" 
d="M359 405l-54 29v24c23.333 8 47 14 71 18s45.333 6 64 6h51l-9 -73v-318c4.66699 -8.66699 10.667 -18 18 -28s15 -19 23 -27c-9.33301 -8.66699 -24.166 -18.334 -44.499 -29.001s-39.833 -19 -58.5 -25c-10 6.66699 -19.833 15.334 -29.5 26.001
s-17.5 21.334 -23.5 32.001c-12.667 -12.667 -30.834 -24.334 -54.501 -35.001s-46.834 -16 -69.501 -16c-9.33301 0 -18.5 1 -27.5 3s-16.833 5.33301 -23.5 10v-243h-119v646l-57 29v24c23.333 8 47.333 14 72 18s46.334 6 65.001 6h51l-8 -73v-213
c0 -46.667 7.83301 -79.667 23.5 -99s37.5 -29 65.5 -29c14 0 27.667 2 41 6s24.333 8.33301 33 13v318z" />
    <glyph glyph-name="paragraph" unicode="&#xb6;" horiz-adv-x="500" 
d="M498 636l0.000976562 -23c-20.667 -8.66699 -35.167 -19.334 -43.5 -32.001s-12.5 -31 -12.5 -55v-711l62 -19v-26c-18.667 -4.66699 -41.5 -8.66699 -68.5 -12s-52.5 -5 -76.5 -5c-26 0 -50.333 0.833008 -73 2.5s-42 4.16699 -58 7.5v23c18 6.66699 32 16.5 42 29.5
s15 32.833 15 59.5v334c-9.33301 -5.33301 -21.333 -9.66602 -36 -12.999s-28.334 -5 -41.001 -5c-46 0 -85 16.333 -117 49s-48 81 -48 145c0 78 27.333 141.167 82 189.5s121.667 72.5 201 72.5c22.667 0 51 -1.16699 85 -3.5s63 -4.83301 87 -7.5zM340.001 595v-788h49
v788h-49z" />
    <glyph glyph-name="periodcentered" unicode="&#xb7;" horiz-adv-x="275" 
d="M66 254c0 20 7 37 21 51s31 21 51 21s37 -7 51 -21s21 -31 21 -51s-7 -37 -21 -51s-31 -21 -51 -21s-37 7 -51 21s-21 31 -21 51z" />
    <glyph glyph-name="cedilla" unicode="&#xb8;" horiz-adv-x="270" 
d="M136 6l41.001 -0.00195312v-55c26.667 0 47 -5.5 61 -16.5s21 -25.833 21 -44.5c0 -28.667 -14.167 -54.167 -42.5 -76.5s-60.5 -33.5 -96.5 -33.5c-26.667 0 -47.5 7.33301 -62.5 22s-22.5 37.334 -22.5 68.001c15.333 -10 31.166 -18 47.499 -24s32.833 -9 49.5 -9
c14.667 0 26.5 3.66699 35.5 11s13.5 15.333 13.5 24c0 10.667 -4.83301 19.334 -14.5 26.001s-26.5 10 -50.5 10z" />
    <glyph glyph-name="onesuperior" unicode="&#xb9;" horiz-adv-x="326" 
d="M291 332c-20.667 -6 -40.834 -10.499 -60.501 -13.499s-42.167 -4.5 -67.5 -4.5c-20 0 -39.667 0.833008 -59 2.5s-37.333 4.5 -54 8.5v15c16.667 3.33301 33.334 9 50.001 17s25 20 25 36v198l-74 -4v33c18 7.33301 39.333 13 64 17s47.667 6 69 6
c6 0 13 -0.333008 21 -1s14.667 -1.33398 20 -2.00098c-2 -8.66699 -3.66699 -18.5 -5 -29.5s-2 -20.833 -2 -29.5v-219l73 -15v-15z" />
    <glyph glyph-name="ordmasculine" unicode="&#xba;" horiz-adv-x="388" 
d="M366 493c0 -58 -18.5 -102.668 -55.5 -134.001s-77.833 -47 -122.5 -47c-48.667 0 -88.5 13.833 -119.5 41.5s-46.5 64.834 -46.5 111.501c0 52 18 94.5 54 127.5s78.667 49.5 128 49.5c48 0 87 -13.833 117 -41.5s45 -63.5 45 -107.5zM262 486.999
c0 36 -6.66699 62.333 -20 79s-28.666 25 -45.999 25s-33.333 -9.33301 -48 -28s-22 -50 -22 -94c0 -35.333 6.66699 -61.833 20 -79.5s28.666 -26.5 45.999 -26.5c16.667 0 32.5 9.5 47.5 28.5s22.5 50.833 22.5 95.5z" />
    <glyph glyph-name="guillemotright" unicode="&#xbb;" horiz-adv-x="477" 
d="M212 84c20 16.667 39.668 35.668 59.001 57.001s36.333 41.333 51 60l33 44l-48 80c-12.667 20 -25.834 38.5 -39.501 55.5s-28.167 32.833 -43.5 47.5c9.33301 3.33301 19.5 6.16602 30.5 8.49902s23.167 3.5 36.5 3.5c18.667 0 36.167 -5.5 52.5 -16.5
s31.833 -30.167 46.5 -57.5l64 -115l-56 -81c-28 -40 -51.833 -67.5 -71.5 -82.5s-37.167 -22.5 -52.5 -22.5c-12 0 -23.167 1.5 -33.5 4.5s-19.833 7.83301 -28.5 14.5zM14.001 84.001c20 16.667 39.668 35.668 59.001 57.001s36.333 41.333 51 60l33 44l-48 80
c-12.667 20 -25.834 38.5 -39.501 55.5s-28.167 32.833 -43.5 47.5c9.33301 3.33301 19.5 6.16602 30.5 8.49902s23.167 3.5 36.5 3.5c18.667 0 36.167 -5.5 52.5 -16.5s31.833 -30.167 46.5 -57.5l64 -115l-56 -81c-28 -40 -51.833 -67.5 -71.5 -82.5
s-37.167 -22.5 -52.5 -22.5c-12 0 -23.167 1.5 -33.5 4.5s-19.833 7.83301 -28.5 14.5z" />
    <glyph glyph-name="onequarter" unicode="&#xbc;" horiz-adv-x="740" 
d="M572 690l43 -24l-431 -718l-42 24zM299 332c-20.667 -6 -40.834 -10.499 -60.501 -13.499s-42.167 -4.5 -67.5 -4.5c-20 0 -39.667 0.833008 -59 2.5s-37.333 4.5 -54 8.5v15c16.667 3.33301 33.334 9 50.001 17s25 20 25 36v198l-74 -4v33c18 7.33301 39.333 13 64 17
s47.667 6 69 6c6 0 13 -0.333008 21 -1s14.667 -1.33398 20 -2.00098c-2 -8.66699 -3.66699 -18.5 -5 -29.5s-2 -20.833 -2 -29.5v-219l73 -15v-15zM618 321.001l38.998 0.00195312c-2 -14 -3.5 -29.833 -4.5 -47.5s-1.5 -34.834 -1.5 -51.501v-96h15
c4.66699 0 9.33398 0.5 14.001 1.5s9.33398 2.5 14.001 4.5c0.666992 -4.66699 1.33398 -9 2.00098 -13s1 -8.66699 1 -14c0 -14 -2.66699 -23.833 -8 -29.5s-14 -8.5 -26 -8.5h-13v-34l51 -14v-14c-15.333 -4.66699 -31.333 -8.16699 -48 -10.5s-33.334 -3.5 -50.001 -3.5
c-16 0 -32.167 1.16699 -48.5 3.5s-30.833 4.83301 -43.5 7.5v15c10.667 1.33301 21.167 3.83301 31.5 7.5s15.5 10.167 15.5 19.5v24h-160c0 59.333 21.167 113.166 63.5 161.499s94.5 78.833 156.5 91.5zM565.998 255.003l-1 1c-22.667 -12 -44 -30.5 -64 -55.5
s-33.333 -49.5 -40 -73.5h101v66c0 11.333 0.333008 22.5 1 33.5s1.66699 20.5 3 28.5z" />
    <glyph glyph-name="onehalf" unicode="&#xbd;" horiz-adv-x="740" 
d="M560 690l43 -24l-431 -718l-42 24zM299 332c-20.667 -6 -40.834 -10.499 -60.501 -13.499s-42.167 -4.5 -67.5 -4.5c-20 0 -39.667 0.833008 -59 2.5s-37.333 4.5 -54 8.5v15c16.667 3.33301 33.334 9 50.001 17s25 20 25 36v198l-74 -4v33c18 7.33301 39.333 13 64 17
s47.667 6 69 6c6 0 13 -0.333008 21 -1s14.667 -1.33398 20 -2.00098c-2 -8.66699 -3.66699 -18.5 -5 -29.5s-2 -20.833 -2 -29.5v-219l73 -15v-15zM715 39.001c0 -14.667 -5.33203 -25.501 -15.999 -32.501s-28.334 -10.5 -53.001 -10.5
c-18.667 0 -50.167 0.666992 -94.5 2s-84.833 2 -121.5 2l-5 38l111 91c19.333 16 33.5 31.167 42.5 45.5s13.5 28.833 13.5 43.5c0 16 -5.33301 28.667 -16 38s-25.334 14 -44.001 14c-14.667 0 -29.5 -4.33301 -44.5 -13s-29.5 -19.667 -43.5 -33
c-3.33301 6 -6 12.333 -8 19s-3 14.334 -3 23.001c0 14.667 9.33301 27.834 28 39.501s50 17.5 94 17.5c48 0 83.167 -8.33301 105.5 -25s33.5 -37.334 33.5 -62.001c0 -23.333 -7.16699 -45 -21.5 -65s-37.166 -39.667 -68.499 -59l-81 -54h59c24.667 0 47 1.33301 67 4
s40.333 6.66699 61 12c1.33301 -4.66699 2.5 -10 3.5 -16s1.5 -12.333 1.5 -19z" />
    <glyph glyph-name="threequarters" unicode="&#xbe;" horiz-adv-x="740" 
d="M572 690l43 -24l-431 -718l-42 24zM302 572c0 -20.667 -10.167 -39 -30.5 -55s-47.833 -26.333 -82.5 -31v-1c41.333 0 71.833 -6.5 91.5 -19.5s29.5 -29.833 29.5 -50.5c0 -28.667 -15 -52.667 -45 -72s-70.333 -29 -121 -29c-40 0 -67.333 4.33301 -82 13
s-22 20 -22 34c0 4.66699 1 9.83398 3 15.501s4.33301 10.834 7 15.501c12 -8.66699 26.5 -16.334 43.5 -23.001s31.833 -10 44.5 -10c20.667 0 37.5 4.33301 50.5 13s19.5 20 19.5 34c0 13.333 -7.33301 24.166 -22 32.499s-38.667 12.5 -72 12.5
c-4.66699 0 -10.167 -0.166992 -16.5 -0.5s-11.833 -0.833008 -16.5 -1.5l-7 49l29 -1c26 -0.666992 49 4.33301 69 15s30 24.667 30 42c0 12.667 -5 22.5 -15 29.5s-24.667 10.5 -44 10.5c-14 0 -28.667 -3 -44 -9s-28.333 -13.667 -39 -23
c-2.66699 6 -4.66699 12.167 -6 18.5s-2 12.5 -2 18.5c0 12.667 9 23.667 27 33s48.667 14 92 14c46 0 79.333 -7 100 -21s31 -31.667 31 -53zM614 321l38.998 0.00195312c-2 -14 -3.5 -29.833 -4.5 -47.5s-1.5 -34.834 -1.5 -51.501v-96h15
c4.66699 0 9.33398 0.5 14.001 1.5s9.33398 2.5 14.001 4.5c0.666992 -4.66699 1.33398 -9 2.00098 -13s1 -8.66699 1 -14c0 -14 -2.66699 -23.833 -8 -29.5s-14 -8.5 -26 -8.5h-13v-34l51 -14v-14c-15.333 -4.66699 -31.333 -8.16699 -48 -10.5s-33.334 -3.5 -50.001 -3.5
c-16 0 -32.167 1.16699 -48.5 3.5s-30.833 4.83301 -43.5 7.5v15c10.667 1.33301 21.167 3.83301 31.5 7.5s15.5 10.167 15.5 19.5v24h-160c0 59.333 21.167 113.166 63.5 161.499s94.5 78.833 156.5 91.5zM561.998 255.002l-1 1c-22.667 -12 -44 -30.5 -64 -55.5
s-33.333 -49.5 -40 -73.5h101v66c0 11.333 0.333008 22.5 1 33.5s1.66699 20.5 3 28.5z" />
    <glyph glyph-name="questiondown" unicode="&#xbf;" horiz-adv-x="435" 
d="M337 417c0 -20 -7 -37 -21 -51s-31 -21 -51 -21s-37 7 -51 21s-21 31 -21 51s7 37 21 51s31 21 51 21s37 -7 51 -21s21 -31 21 -51zM12 -62c0 32 13.665 64.002 40.998 96.002s72.666 67.333 135.999 106l60 37c-4 17.333 -9.33301 35 -16 53s-14 35 -22 51
c4.66699 0.666992 9.83398 1.5 15.501 2.5s10.834 1.5 15.501 1.5c24.667 0 44.834 -7.33301 60.501 -22s23.5 -33.334 23.5 -56.001c0 -16.667 -4.5 -32.5 -13.5 -47.5s-27.167 -34.167 -54.5 -57.5l-55 -47c-20.667 -18 -36 -35.167 -46 -51.5s-15 -33.833 -15 -52.5
c0 -24.667 7.5 -43.667 22.5 -57s36.5 -20 64.5 -20c22.667 0 47.167 9.83301 73.5 29.5s47.166 42.167 62.499 67.5c4.66699 -8.66699 8.83398 -18.334 12.501 -29.001s5.5 -23 5.5 -37c0 -30 -14.167 -55.167 -42.5 -75.5s-75.5 -30.5 -141.5 -30.5
c-58.667 0 -104.5 12.667 -137.5 38s-49.5 59 -49.5 101z" />
    <glyph glyph-name="Agrave" unicode="&#xc0;" horiz-adv-x="591" 
d="M48 87l194 550l131 13l170 -598l53 -19v-26c-16.667 -5.33301 -35.5 -9.5 -56.5 -12.5s-41.833 -4.5 -62.5 -4.5c-20 0 -40 0.666992 -60 2s-39.333 4 -58 8v23c16 5.33301 26.833 13.166 32.5 23.499s6.83398 22.166 3.50098 35.499l-29 106h-189l-37 -137l60 -18v-26
c-18.667 -6 -38.334 -10.333 -59.001 -13s-43.334 -4 -68.001 -4c-13.333 0 -27.166 0.833008 -41.499 2.5s-28.5 4.16699 -42.5 7.5v23c16 6.66699 28.333 14.334 37 23.001s16 22.334 22 41.001zM351 254l-69 279h-1l-86 -279h156zM203 808
c0 15.333 6.16602 27.167 18.499 35.5s34.833 12.5 67.5 12.5c4.66699 -30 15.167 -62.167 31.5 -96.5s32.833 -61.833 49.5 -82.5l-14 -8c-23.333 0 -54.666 16.5 -93.999 49.5s-59 62.833 -59 89.5z" />
    <glyph glyph-name="Aacute" unicode="&#xc1;" horiz-adv-x="591" 
d="M48 87l194 550l131 13l170 -598l53 -19v-26c-16.667 -5.33301 -35.5 -9.5 -56.5 -12.5s-41.833 -4.5 -62.5 -4.5c-20 0 -40 0.666992 -60 2s-39.333 4 -58 8v23c16 5.33301 26.833 13.166 32.5 23.499s6.83398 22.166 3.50098 35.499l-29 106h-189l-37 -137l60 -18v-26
c-18.667 -6 -38.334 -10.333 -59.001 -13s-43.334 -4 -68.001 -4c-13.333 0 -27.166 0.833008 -41.499 2.5s-28.5 4.16699 -42.5 7.5v23c16 6.66699 28.333 14.334 37 23.001s16 22.334 22 41.001zM351 254l-69 279h-1l-86 -279h156zM400 808
c0 -26.667 -19.668 -56.501 -59.001 -89.501s-70.666 -49.5 -93.999 -49.5l-13 8c16.667 20.667 33 48.167 49 82.5s26.333 66.5 31 96.5c32.667 0 55.167 -4.16699 67.5 -12.5s18.5 -20.166 18.5 -35.499z" />
    <glyph glyph-name="Acircumflex" unicode="&#xc2;" horiz-adv-x="591" 
d="M48 87l194 550l131 13l170 -598l53 -19v-26c-16.667 -5.33301 -35.5 -9.5 -56.5 -12.5s-41.833 -4.5 -62.5 -4.5c-20 0 -40 0.666992 -60 2s-39.333 4 -58 8v23c16 5.33301 26.833 13.166 32.5 23.499s6.83398 22.166 3.50098 35.499l-29 106h-189l-37 -137l60 -18v-26
c-18.667 -6 -38.334 -10.333 -59.001 -13s-43.334 -4 -68.001 -4c-13.333 0 -27.166 0.833008 -41.499 2.5s-28.5 4.16699 -42.5 7.5v23c16 6.66699 28.333 14.334 37 23.001s16 22.334 22 41.001zM351 254l-69 279h-1l-86 -279h156zM289 850l45.001 8l144 -161l-16 -17
c-20.667 0 -39.5 3.33301 -56.5 10s-33.5 18 -49.5 34c-9.33301 8.66699 -18 18.5 -26 29.5s-15 22.167 -21 33.5l-113 -108c-10.667 4.66699 -19.834 10.667 -27.501 18s-14.167 15.333 -19.5 24z" />
    <glyph glyph-name="Atilde" unicode="&#xc3;" horiz-adv-x="591" 
d="M48 87l194 550l131 13l170 -598l53 -19v-26c-16.667 -5.33301 -35.5 -9.5 -56.5 -12.5s-41.833 -4.5 -62.5 -4.5c-20 0 -40 0.666992 -60 2s-39.333 4 -58 8v23c16 5.33301 26.833 13.166 32.5 23.499s6.83398 22.166 3.50098 35.499l-29 106h-189l-37 -137l60 -18v-26
c-18.667 -6 -38.334 -10.333 -59.001 -13s-43.334 -4 -68.001 -4c-13.333 0 -27.166 0.833008 -41.499 2.5s-28.5 4.16699 -42.5 7.5v23c16 6.66699 28.333 14.334 37 23.001s16 22.334 22 41.001zM351 254l-69 279h-1l-86 -279h156zM207 811
c10.667 0 21.833 -1.00098 33.5 -3.00098s23.834 -4.66699 36.501 -8l61 -15c7.33301 -2.66699 15.333 -4.66699 24 -6s16.667 -2 24 -2c11.333 0 22.166 5.16699 32.499 15.5s15.5 21.5 15.5 33.5c9.33301 -8.66699 16.833 -18.5 22.5 -29.5s8.5 -22.833 8.5 -35.5
c0 -18.667 -7.66699 -34 -23 -46s-32.666 -18 -51.999 -18c-11.333 0 -23 0.833008 -35 2.5s-23 3.83398 -33 6.50098l-62 17c-9.33301 2.66699 -18.333 4.66699 -27 6s-16.334 2 -23.001 2c-12 0 -22.5 -4.33301 -31.5 -13s-13.5 -18.334 -13.5 -29.001
c-8.66699 8 -15.834 17.333 -21.501 28s-8.5 22 -8.5 34c0 18.667 6.33301 33.334 19 44.001s30.334 16 53.001 16z" />
    <glyph glyph-name="Adieresis" unicode="&#xc4;" horiz-adv-x="591" 
d="M48 87l194 550l131 13l170 -598l53 -19v-26c-16.667 -5.33301 -35.5 -9.5 -56.5 -12.5s-41.833 -4.5 -62.5 -4.5c-20 0 -40 0.666992 -60 2s-39.333 4 -58 8v23c16 5.33301 26.833 13.166 32.5 23.499s6.83398 22.166 3.50098 35.499l-29 106h-189l-37 -137l60 -18v-26
c-18.667 -6 -38.334 -10.333 -59.001 -13s-43.334 -4 -68.001 -4c-13.333 0 -27.166 0.833008 -41.499 2.5s-28.5 4.16699 -42.5 7.5v23c16 6.66699 28.333 14.334 37 23.001s16 22.334 22 41.001zM351 254l-69 279h-1l-86 -279h156zM442 744
c0 -16 -5.33301 -29.333 -16 -40s-23.334 -16 -38.001 -16c-16 0 -28.667 5 -38 15s-14 22.667 -14 38s5.16699 28.833 15.5 40.5s23.5 17.5 39.5 17.5c14.667 0 26.834 -5 36.501 -15s14.5 -23.333 14.5 -40zM270 744c0 -16 -5.33301 -29.333 -16 -40
s-23.334 -16 -38.001 -16c-16 0 -28.667 5 -38 15s-14 22.667 -14 38s5.16699 28.833 15.5 40.5s23.5 17.5 39.5 17.5c14.667 0 26.834 -5 36.501 -15s14.5 -23.333 14.5 -40z" />
    <glyph glyph-name="Aring" unicode="&#xc5;" horiz-adv-x="591" 
d="M48 87l194 550l131 13l170 -598l53 -19v-26c-16.667 -5.33301 -35.5 -9.5 -56.5 -12.5s-41.833 -4.5 -62.5 -4.5c-20 0 -40 0.666992 -60 2s-39.333 4 -58 8v23c16 5.33301 26.833 13.166 32.5 23.499s6.83398 22.166 3.50098 35.499l-29 106h-189l-37 -137l60 -18v-26
c-18.667 -6 -38.334 -10.333 -59.001 -13s-43.334 -4 -68.001 -4c-13.333 0 -27.166 0.833008 -41.499 2.5s-28.5 4.16699 -42.5 7.5v23c16 6.66699 28.333 14.334 37 23.001s16 22.334 22 41.001zM351 254l-69 279h-1l-86 -279h156zM299 853
c28 0 51.167 -8.66895 69.5 -26.002s27.5 -40.666 27.5 -69.999c0 -26.667 -9.5 -49.167 -28.5 -67.5s-41.5 -27.5 -67.5 -27.5c-26.667 0 -49.167 8.33301 -67.5 25s-27.5 39.334 -27.5 68.001c0 28 9.33301 51.333 28 70s40.667 28 66 28zM299 810.998
c-14 0 -25.167 -5.16699 -33.5 -15.5s-12.5 -23.833 -12.5 -40.5c0 -16 4.66699 -28.667 14 -38s20.333 -14 33 -14c14.667 0 26.167 4.66699 34.5 14s12.5 22 12.5 38c0 17.333 -4.5 31 -13.5 41s-20.5 15 -34.5 15z" />
    <glyph glyph-name="AE" unicode="&#xc6;" horiz-adv-x="743" 
d="M349 559l-139 -307h140v307h-1zM726 141l-18.002 -141.002h-415v27c20 7.33301 34.5 17.333 43.5 30s13.5 31.334 13.5 56.001v77h-162l-52 -139l56 -18v-26c-18.667 -6 -37 -10.333 -55 -13s-39.333 -4 -64 -4c-13.333 0 -26.5 0.833008 -39.5 2.5
s-26.5 4.16699 -40.5 7.5v23c12.667 6 22.834 13.833 30.501 23.5s15.834 23.167 24.501 40.5l270 553h386l-8 -162h-37l-3 19c-4 26.667 -12.167 45.167 -24.5 55.5s-32.833 15.5 -61.5 15.5h-90v-216h94c20.667 0 36.167 2.83301 46.5 8.5s17.5 14.834 21.5 27.501l7 22
h34v-196h-34l-4 22c-3.33301 16.667 -9 29 -17 37s-20 12 -36 12h-112v-215h111c26.667 0 46.167 4.16699 58.5 12.5s22.5 20.833 30.5 37.5l10 21h36z" />
    <glyph glyph-name="Ccedilla" unicode="&#xc7;" horiz-adv-x="559" 
d="M520 623l-8.99902 -160.001h-34l-5 24c-6.66699 28.667 -19 50.5 -37 65.5s-45 22.5 -81 22.5c-42.667 0 -81.5 -21.333 -116.5 -64s-52.5 -107.334 -52.5 -194.001c0 -89.333 17.5 -154.5 52.5 -195.5s73.167 -61.5 114.5 -61.5c36 0 63.167 6 81.5 18
s33.166 31.333 44.499 58l11 25h34l-10 -146c-18 -8.66699 -41.667 -16 -71 -22s-62.666 -9.33301 -99.999 -10v-36c26.667 0 47 -5.5 61 -16.5s21 -25.833 21 -44.5c0 -28.667 -14.167 -54.167 -42.5 -76.5s-60.5 -33.5 -96.5 -33.5c-26.667 0 -47.5 7.33301 -62.5 22
s-22.5 37.334 -22.5 68.001c15.333 -10 31.166 -18 47.499 -24s32.833 -9 49.5 -9c14.667 0 26.5 3.66699 35.5 11s13.5 15.333 13.5 24c0 10.667 -4.83301 19.334 -14.5 26.001s-26.5 10 -50.5 10l16 80c-73.333 5.33301 -134.833 35 -184.5 89s-74.5 130.667 -74.5 230
c0 104.667 31.5 189 94.5 253s137.833 96 224.5 96c38 0 69.833 -2.33301 95.5 -7s48.167 -12 67.5 -22z" />
    <glyph glyph-name="Egrave" unicode="&#xc8;" horiz-adv-x="489" 
d="M472 141l-18 -141.002h-415v27c20 7.33301 34.5 17.333 43.5 30s13.5 31.334 13.5 56.001v468l-63 27v32h417l-8 -162h-37l-3 19c-4 26.667 -12.167 45.167 -24.5 55.5s-32.833 15.5 -61.5 15.5h-90v-216h94c20.667 0 36.167 2.83301 46.5 8.5s17.5 14.834 21.5 27.501
l7 22h34v-196h-34l-4 22c-3.33301 16.667 -9 29 -17 37s-20 12 -36 12h-112v-215h111c26.667 0 46.167 4.16699 58.5 12.5s22.5 20.833 30.5 37.5l10 21h36zM172 807.998c0 15.333 6.16602 27.167 18.499 35.5s34.833 12.5 67.5 12.5c4.66699 -30 15.167 -62.167 31.5 -96.5
s32.833 -61.833 49.5 -82.5l-14 -8c-23.333 0 -54.666 16.5 -93.999 49.5s-59 62.833 -59 89.5z" />
    <glyph glyph-name="Eacute" unicode="&#xc9;" horiz-adv-x="489" 
d="M472 141l-18 -141.002h-415v27c20 7.33301 34.5 17.333 43.5 30s13.5 31.334 13.5 56.001v468l-63 27v32h417l-8 -162h-37l-3 19c-4 26.667 -12.167 45.167 -24.5 55.5s-32.833 15.5 -61.5 15.5h-90v-216h94c20.667 0 36.167 2.83301 46.5 8.5s17.5 14.834 21.5 27.501
l7 22h34v-196h-34l-4 22c-3.33301 16.667 -9 29 -17 37s-20 12 -36 12h-112v-215h111c26.667 0 46.167 4.16699 58.5 12.5s22.5 20.833 30.5 37.5l10 21h36zM387 807.998c0 -26.667 -19.668 -56.501 -59.001 -89.501s-70.666 -49.5 -93.999 -49.5l-13 8
c16.667 20.667 33 48.167 49 82.5s26.333 66.5 31 96.5c32.667 0 55.167 -4.16699 67.5 -12.5s18.5 -20.166 18.5 -35.499z" />
    <glyph glyph-name="Ecircumflex" unicode="&#xca;" horiz-adv-x="489" 
d="M472 141l-18 -141.002h-415v27c20 7.33301 34.5 17.333 43.5 30s13.5 31.334 13.5 56.001v468l-63 27v32h417l-8 -162h-37l-3 19c-4 26.667 -12.167 45.167 -24.5 55.5s-32.833 15.5 -61.5 15.5h-90v-216h94c20.667 0 36.167 2.83301 46.5 8.5s17.5 14.834 21.5 27.501
l7 22h34v-196h-34l-4 22c-3.33301 16.667 -9 29 -17 37s-20 12 -36 12h-112v-215h111c26.667 0 46.167 4.16699 58.5 12.5s22.5 20.833 30.5 37.5l10 21h36zM247 849.998l45.001 8l144 -161l-16 -17c-20.667 0 -39.5 3.33301 -56.5 10s-33.5 18 -49.5 34
c-9.33301 8.66699 -18 18.5 -26 29.5s-15 22.167 -21 33.5l-113 -108c-10.667 4.66699 -19.834 10.667 -27.501 18s-14.167 15.333 -19.5 24z" />
    <glyph glyph-name="Edieresis" unicode="&#xcb;" horiz-adv-x="489" 
d="M472 141l-18 -141.002h-415v27c20 7.33301 34.5 17.333 43.5 30s13.5 31.334 13.5 56.001v468l-63 27v32h417l-8 -162h-37l-3 19c-4 26.667 -12.167 45.167 -24.5 55.5s-32.833 15.5 -61.5 15.5h-90v-216h94c20.667 0 36.167 2.83301 46.5 8.5s17.5 14.834 21.5 27.501
l7 22h34v-196h-34l-4 22c-3.33301 16.667 -9 29 -17 37s-20 12 -36 12h-112v-215h111c26.667 0 46.167 4.16699 58.5 12.5s22.5 20.833 30.5 37.5l10 21h36zM416 756.998c0 -16 -5.33301 -29.333 -16 -40s-23.334 -16 -38.001 -16c-16 0 -28.667 5 -38 15s-14 22.667 -14 38
s5.16699 28.833 15.5 40.5s23.5 17.5 39.5 17.5c14.667 0 26.834 -5 36.501 -15s14.5 -23.333 14.5 -40zM244 756.998c0 -16 -5.33301 -29.333 -16 -40s-23.334 -16 -38.001 -16c-16 0 -28.667 5 -38 15s-14 22.667 -14 38s5.16699 28.833 15.5 40.5s23.5 17.5 39.5 17.5
c14.667 0 26.834 -5 36.501 -15s14.5 -23.333 14.5 -40z" />
    <glyph glyph-name="Igrave" unicode="&#xcc;" horiz-adv-x="323" 
d="M289 33l0.000976562 -25.999c-18.667 -4.66699 -39.834 -8.66699 -63.501 -12s-47.5 -5 -71.5 -5c-26 0 -47.667 0.833008 -65 2.5s-34 4.16699 -50 7.5v23c18 6.66699 32 16.5 42 29.5s15 32.833 15 59.5v472l-63 20v26c22.667 5.33301 45.667 9.5 69 12.5
s47.333 4.5 72 4.5c20 0 38.833 -0.833008 56.5 -2.5s35.167 -4.16699 52.5 -7.5v-23c-20.667 -8.66699 -35.167 -19.334 -43.5 -32.001s-12.5 -31 -12.5 -55v-475zM73.001 808.001c0 15.333 6.16602 27.167 18.499 35.5s34.833 12.5 67.5 12.5
c4.66699 -30 15.167 -62.167 31.5 -96.5s32.833 -61.833 49.5 -82.5l-14 -8c-23.333 0 -54.666 16.5 -93.999 49.5s-59 62.833 -59 89.5z" />
    <glyph glyph-name="Iacute" unicode="&#xcd;" horiz-adv-x="323" 
d="M289 33l0.000976562 -25.999c-18.667 -4.66699 -39.834 -8.66699 -63.501 -12s-47.5 -5 -71.5 -5c-26 0 -47.667 0.833008 -65 2.5s-34 4.16699 -50 7.5v23c18 6.66699 32 16.5 42 29.5s15 32.833 15 59.5v472l-63 20v26c22.667 5.33301 45.667 9.5 69 12.5
s47.333 4.5 72 4.5c20 0 38.833 -0.833008 56.5 -2.5s35.167 -4.16699 52.5 -7.5v-23c-20.667 -8.66699 -35.167 -19.334 -43.5 -32.001s-12.5 -31 -12.5 -55v-475zM266.001 808.001c0 -26.667 -19.668 -56.501 -59.001 -89.501s-70.666 -49.5 -93.999 -49.5l-13 8
c16.667 20.667 33 48.167 49 82.5s26.333 66.5 31 96.5c32.667 0 55.167 -4.16699 67.5 -12.5s18.5 -20.166 18.5 -35.499z" />
    <glyph glyph-name="Icircumflex" unicode="&#xce;" horiz-adv-x="323" 
d="M289 33l0.000976562 -25.999c-18.667 -4.66699 -39.834 -8.66699 -63.501 -12s-47.5 -5 -71.5 -5c-26 0 -47.667 0.833008 -65 2.5s-34 4.16699 -50 7.5v23c18 6.66699 32 16.5 42 29.5s15 32.833 15 59.5v472l-63 20v26c22.667 5.33301 45.667 9.5 69 12.5
s47.333 4.5 72 4.5c20 0 38.833 -0.833008 56.5 -2.5s35.167 -4.16699 52.5 -7.5v-23c-20.667 -8.66699 -35.167 -19.334 -43.5 -32.001s-12.5 -31 -12.5 -55v-475zM137.001 850.001l45.001 8l144 -161l-16 -17c-20.667 0 -39.5 3.33301 -56.5 10s-33.5 18 -49.5 34
c-9.33301 8.66699 -18 18.5 -26 29.5s-15 22.167 -21 33.5l-113 -108c-10.667 4.66699 -19.834 10.667 -27.501 18s-14.167 15.333 -19.5 24z" />
    <glyph glyph-name="Idieresis" unicode="&#xcf;" horiz-adv-x="323" 
d="M289 33l0.000976562 -25.999c-18.667 -4.66699 -39.834 -8.66699 -63.501 -12s-47.5 -5 -71.5 -5c-26 0 -47.667 0.833008 -65 2.5s-34 4.16699 -50 7.5v23c18 6.66699 32 16.5 42 29.5s15 32.833 15 59.5v472l-63 20v26c22.667 5.33301 45.667 9.5 69 12.5
s47.333 4.5 72 4.5c20 0 38.833 -0.833008 56.5 -2.5s35.167 -4.16699 52.5 -7.5v-23c-20.667 -8.66699 -35.167 -19.334 -43.5 -32.001s-12.5 -31 -12.5 -55v-475zM307.001 757.001c0 -16 -5.33301 -29.333 -16 -40s-23.334 -16 -38.001 -16c-16 0 -28.667 5 -38 15
s-14 22.667 -14 38s5.16699 28.833 15.5 40.5s23.5 17.5 39.5 17.5c14.667 0 26.834 -5 36.501 -15s14.5 -23.333 14.5 -40zM135.001 757.001c0 -16 -5.33301 -29.333 -16 -40s-23.334 -16 -38.001 -16c-16 0 -28.667 5 -38 15s-14 22.667 -14 38s5.16699 28.833 15.5 40.5
s23.5 17.5 39.5 17.5c14.667 0 26.834 -5 36.501 -15s14.5 -23.333 14.5 -40z" />
    <glyph glyph-name="Eth" unicode="&#xd0;" horiz-adv-x="680" 
d="M642 349c0 -110.667 -38.335 -198.166 -115.002 -262.499s-167.334 -96.5 -272.001 -96.5c-44 0 -82.167 0.5 -114.5 1.5s-66.166 3.83301 -101.499 8.5v23c18.667 7.33301 32.834 17.5 42.501 30.5s14.5 33.167 14.5 60.5v184h-77v58h77v224l-63 23v29
c39.333 5.33301 77 9.16602 113 11.499s78.333 3.5 127 3.5c114.667 0 204.834 -25.833 270.501 -77.5s98.5 -125.167 98.5 -220.5zM497.998 330.001c0 79.333 -22.5 139.833 -67.5 181.5s-98.5 62.5 -160.5 62.5c-6.66699 0 -14 -0.166992 -22 -0.5s-16 -0.833008 -24 -1.5
v-216h129v-58h-129v-232c8.66699 -1.33301 16.5 -2.33301 23.5 -3s14.167 -1 21.5 -1c61.333 0 114.833 21.833 160.5 65.5s68.5 111.167 68.5 202.5z" />
    <glyph glyph-name="Ntilde" unicode="&#xd1;" horiz-adv-x="645" 
d="M611 638v-22c-20 -8.66699 -34 -19.667 -42 -33s-12 -34.333 -12 -63v-520l-91 -11l-289 486l-1 -1v-422l61 -19v-26c-14.667 -5.33301 -30.334 -9.5 -47.001 -12.5s-34.334 -4.5 -53.001 -4.5c-20 0 -37.833 0.833008 -53.5 2.5s-30.5 4.16699 -44.5 7.5v23
c20 6.66699 34.5 17.167 43.5 31.5s13.5 34.5 13.5 60.5v466l-59 22v33c22.667 2.66699 47.5 4.5 74.5 5.5s51.833 1.5 74.5 1.5h42l248 -417l1 1v359l-63 19v27c18.667 4.66699 36.834 8.5 54.501 11.5s35.834 4.5 54.501 4.5c20 0 36.333 -0.833008 49 -2.5
s25.667 -4.16699 39 -7.5zM248 800c10.667 0 21.833 -1.00098 33.5 -3.00098s23.834 -4.66699 36.501 -8l61 -15c7.33301 -2.66699 15.333 -4.66699 24 -6s16.667 -2 24 -2c11.333 0 22.166 5.16699 32.499 15.5s15.5 21.5 15.5 33.5
c9.33301 -8.66699 16.833 -18.5 22.5 -29.5s8.5 -22.833 8.5 -35.5c0 -18.667 -7.66699 -34 -23 -46s-32.666 -18 -51.999 -18c-11.333 0 -23 0.833008 -35 2.5s-23 3.83398 -33 6.50098l-62 17c-9.33301 2.66699 -18.333 4.66699 -27 6s-16.334 2 -23.001 2
c-12 0 -22.5 -4.33301 -31.5 -13s-13.5 -18.334 -13.5 -29.001c-8.66699 8 -15.834 17.333 -21.501 28s-8.5 22 -8.5 34c0 18.667 6.33301 33.334 19 44.001s30.334 16 53.001 16z" />
    <glyph glyph-name="Ograve" unicode="&#xd2;" horiz-adv-x="689" 
d="M651 345c0 -117.333 -32.001 -207.167 -96.001 -269.5s-138.333 -93.5 -223 -93.5c-85.333 0 -155.666 28.333 -210.999 85s-83 134.667 -83 234c0 106.667 32.833 192 98.5 256s140.5 96 224.5 96c83.333 0 152.5 -28 207.5 -84s82.5 -130.667 82.5 -224z
M504.999 324.999c0 86 -16.167 148.666 -48.5 187.999s-68.166 59 -107.499 59c-42 0 -79.833 -21 -113.5 -63s-50.5 -105.667 -50.5 -191s16.333 -149.166 49 -191.499s69 -63.5 109 -63.5c39.333 0 76.166 19.333 110.499 58s51.5 106.667 51.5 204zM262.999 807.998
c0 15.333 6.16602 27.167 18.499 35.5s34.833 12.5 67.5 12.5c4.66699 -30 15.167 -62.167 31.5 -96.5s32.833 -61.833 49.5 -82.5l-14 -8c-23.333 0 -54.666 16.5 -93.999 49.5s-59 62.833 -59 89.5z" />
    <glyph glyph-name="Oacute" unicode="&#xd3;" horiz-adv-x="689" 
d="M651 345c0 -117.333 -32.001 -207.167 -96.001 -269.5s-138.333 -93.5 -223 -93.5c-85.333 0 -155.666 28.333 -210.999 85s-83 134.667 -83 234c0 106.667 32.833 192 98.5 256s140.5 96 224.5 96c83.333 0 152.5 -28 207.5 -84s82.5 -130.667 82.5 -224z
M504.999 324.999c0 86 -16.167 148.666 -48.5 187.999s-68.166 59 -107.499 59c-42 0 -79.833 -21 -113.5 -63s-50.5 -105.667 -50.5 -191s16.333 -149.166 49 -191.499s69 -63.5 109 -63.5c39.333 0 76.166 19.333 110.499 58s51.5 106.667 51.5 204zM449.999 807.998
c0 -26.667 -19.668 -56.501 -59.001 -89.501s-70.666 -49.5 -93.999 -49.5l-13 8c16.667 20.667 33 48.167 49 82.5s26.333 66.5 31 96.5c32.667 0 55.167 -4.16699 67.5 -12.5s18.5 -20.166 18.5 -35.499z" />
    <glyph glyph-name="Ocircumflex" unicode="&#xd4;" horiz-adv-x="689" 
d="M651 345c0 -117.333 -32.001 -207.167 -96.001 -269.5s-138.333 -93.5 -223 -93.5c-85.333 0 -155.666 28.333 -210.999 85s-83 134.667 -83 234c0 106.667 32.833 192 98.5 256s140.5 96 224.5 96c83.333 0 152.5 -28 207.5 -84s82.5 -130.667 82.5 -224z
M504.999 324.999c0 86 -16.167 148.666 -48.5 187.999s-68.166 59 -107.499 59c-42 0 -79.833 -21 -113.5 -63s-50.5 -105.667 -50.5 -191s16.333 -149.166 49 -191.499s69 -63.5 109 -63.5c39.333 0 76.166 19.333 110.499 58s51.5 106.667 51.5 204zM340.999 849.998
l45.001 8l144 -161l-16 -17c-20.667 0 -39.5 3.33301 -56.5 10s-33.5 18 -49.5 34c-9.33301 8.66699 -18 18.5 -26 29.5s-15 22.167 -21 33.5l-113 -108c-10.667 4.66699 -19.834 10.667 -27.501 18s-14.167 15.333 -19.5 24z" />
    <glyph glyph-name="Otilde" unicode="&#xd5;" horiz-adv-x="689" 
d="M651 345c0 -117.333 -32.001 -207.167 -96.001 -269.5s-138.333 -93.5 -223 -93.5c-85.333 0 -155.666 28.333 -210.999 85s-83 134.667 -83 234c0 106.667 32.833 192 98.5 256s140.5 96 224.5 96c83.333 0 152.5 -28 207.5 -84s82.5 -130.667 82.5 -224z
M504.999 324.999c0 86 -16.167 148.666 -48.5 187.999s-68.166 59 -107.499 59c-42 0 -79.833 -21 -113.5 -63s-50.5 -105.667 -50.5 -191s16.333 -149.166 49 -191.499s69 -63.5 109 -63.5c39.333 0 76.166 19.333 110.499 58s51.5 106.667 51.5 204zM263.999 813.998
c10.667 0 21.833 -1.00098 33.5 -3.00098s23.834 -4.66699 36.501 -8l61 -15c7.33301 -2.66699 15.333 -4.66699 24 -6s16.667 -2 24 -2c11.333 0 22.166 5.16699 32.499 15.5s15.5 21.5 15.5 33.5c9.33301 -8.66699 16.833 -18.5 22.5 -29.5s8.5 -22.833 8.5 -35.5
c0 -18.667 -7.66699 -34 -23 -46s-32.666 -18 -51.999 -18c-11.333 0 -23 0.833008 -35 2.5s-23 3.83398 -33 6.50098l-62 17c-9.33301 2.66699 -18.333 4.66699 -27 6s-16.334 2 -23.001 2c-12 0 -22.5 -4.33301 -31.5 -13s-13.5 -18.334 -13.5 -29.001
c-8.66699 8 -15.834 17.333 -21.501 28s-8.5 22 -8.5 34c0 18.667 6.33301 33.334 19 44.001s30.334 16 53.001 16z" />
    <glyph glyph-name="Odieresis" unicode="&#xd6;" horiz-adv-x="689" 
d="M651 345c0 -117.333 -32.001 -207.167 -96.001 -269.5s-138.333 -93.5 -223 -93.5c-85.333 0 -155.666 28.333 -210.999 85s-83 134.667 -83 234c0 106.667 32.833 192 98.5 256s140.5 96 224.5 96c83.333 0 152.5 -28 207.5 -84s82.5 -130.667 82.5 -224z
M504.999 324.999c0 86 -16.167 148.666 -48.5 187.999s-68.166 59 -107.499 59c-42 0 -79.833 -21 -113.5 -63s-50.5 -105.667 -50.5 -191s16.333 -149.166 49 -191.499s69 -63.5 109 -63.5c39.333 0 76.166 19.333 110.499 58s51.5 106.667 51.5 204zM500.999 743.998
c0 -16 -5.33301 -29.333 -16 -40s-23.334 -16 -38.001 -16c-16 0 -28.667 5 -38 15s-14 22.667 -14 38s5.16699 28.833 15.5 40.5s23.5 17.5 39.5 17.5c14.667 0 26.834 -5 36.501 -15s14.5 -23.333 14.5 -40zM328.999 743.998c0 -16 -5.33301 -29.333 -16 -40
s-23.334 -16 -38.001 -16c-16 0 -28.667 5 -38 15s-14 22.667 -14 38s5.16699 28.833 15.5 40.5s23.5 17.5 39.5 17.5c14.667 0 26.834 -5 36.501 -15s14.5 -23.333 14.5 -40z" />
    <glyph glyph-name="multiply" unicode="&#xd7;" 
d="M306 224l136 -135l-46 -46l-135 136l-136 -136l-47 46l136 135l-136 136l47 47l136 -136l135 136l47 -47z" />
    <glyph glyph-name="Oslash" unicode="&#xd8;" horiz-adv-x="689" 
d="M185 318c0 -34 2.83301 -64.667 8.5 -92s13.167 -51 22.5 -71l230 371c-13.333 15.333 -28.5 26.833 -45.5 34.5s-34.167 11.5 -51.5 11.5c-42 0 -79.833 -21 -113.5 -63s-50.5 -105.667 -50.5 -191zM505 325c0 34 -2.83203 64.168 -8.49902 90.501
s-13.167 49.166 -22.5 68.499l-230 -372c14 -16.667 29.5 -29 46.5 -37s34.5 -12 52.5 -12c39.333 0 76.166 19.333 110.499 58s51.5 106.667 51.5 204zM651.001 345.001c0 -117.333 -32 -207.166 -96 -269.499s-138.333 -93.5 -223 -93.5c-27.333 0 -53.5 3 -78.5 9
s-47.833 14.667 -68.5 26l-66 -108l-41 22l69 111c-34 26.667 -60.667 62 -80 106s-29 95 -29 153c0 106.667 32.833 192 98.5 256s140.5 96 224.5 96c26.667 0 52 -3 76 -9s46.333 -14.333 67 -25l60 97l40 -21l-63 -101c34 -26.667 60.833 -61.334 80.5 -104.001
s29.5 -91 29.5 -145z" />
    <glyph glyph-name="Ugrave" unicode="&#xd9;" horiz-adv-x="666" 
d="M639 636l-0.000976562 -22c-20.667 -8.66699 -35.167 -19.5 -43.5 -32.5s-12.5 -30.833 -12.5 -53.5v-277c0 -87.333 -23.333 -153.5 -70 -198.5s-105.667 -67.5 -177 -67.5c-85.333 0 -148.833 17.667 -190.5 53s-62.5 86 -62.5 152v395l-62 19v26
c22.667 5.33301 45.667 9.5 69 12.5s46.666 4.5 69.999 4.5c22.667 0 42.167 -0.666992 58.5 -2s33.833 -4 52.5 -8v-23c-20.667 -8 -35.334 -18.833 -44.001 -32.5s-13 -33.5 -13 -59.5v-310c0 -45.333 12.167 -80.333 36.5 -105s57.833 -37 100.5 -37
c40.667 0 73.667 13.333 99 40s38 68.667 38 126v348l-62 20v26c20.667 6 40.334 10.5 59.001 13.5s37.334 4.5 56.001 4.5s35.834 -1 51.501 -3s31.167 -5 46.5 -9zM240.999 808c0 15.333 6.16602 27.167 18.499 35.5s34.833 12.5 67.5 12.5
c4.66699 -30 15.167 -62.167 31.5 -96.5s32.833 -61.833 49.5 -82.5l-14 -8c-23.333 0 -54.666 16.5 -93.999 49.5s-59 62.833 -59 89.5z" />
    <glyph glyph-name="Uacute" unicode="&#xda;" horiz-adv-x="666" 
d="M639 636l-0.000976562 -22c-20.667 -8.66699 -35.167 -19.5 -43.5 -32.5s-12.5 -30.833 -12.5 -53.5v-277c0 -87.333 -23.333 -153.5 -70 -198.5s-105.667 -67.5 -177 -67.5c-85.333 0 -148.833 17.667 -190.5 53s-62.5 86 -62.5 152v395l-62 19v26
c22.667 5.33301 45.667 9.5 69 12.5s46.666 4.5 69.999 4.5c22.667 0 42.167 -0.666992 58.5 -2s33.833 -4 52.5 -8v-23c-20.667 -8 -35.334 -18.833 -44.001 -32.5s-13 -33.5 -13 -59.5v-310c0 -45.333 12.167 -80.333 36.5 -105s57.833 -37 100.5 -37
c40.667 0 73.667 13.333 99 40s38 68.667 38 126v348l-62 20v26c20.667 6 40.334 10.5 59.001 13.5s37.334 4.5 56.001 4.5s35.834 -1 51.501 -3s31.167 -5 46.5 -9zM452.999 808c0 -26.667 -19.668 -56.501 -59.001 -89.501s-70.666 -49.5 -93.999 -49.5l-13 8
c16.667 20.667 33 48.167 49 82.5s26.333 66.5 31 96.5c32.667 0 55.167 -4.16699 67.5 -12.5s18.5 -20.166 18.5 -35.499z" />
    <glyph glyph-name="Ucircumflex" unicode="&#xdb;" horiz-adv-x="666" 
d="M639 636l-0.000976562 -22c-20.667 -8.66699 -35.167 -19.5 -43.5 -32.5s-12.5 -30.833 -12.5 -53.5v-277c0 -87.333 -23.333 -153.5 -70 -198.5s-105.667 -67.5 -177 -67.5c-85.333 0 -148.833 17.667 -190.5 53s-62.5 86 -62.5 152v395l-62 19v26
c22.667 5.33301 45.667 9.5 69 12.5s46.666 4.5 69.999 4.5c22.667 0 42.167 -0.666992 58.5 -2s33.833 -4 52.5 -8v-23c-20.667 -8 -35.334 -18.833 -44.001 -32.5s-13 -33.5 -13 -59.5v-310c0 -45.333 12.167 -80.333 36.5 -105s57.833 -37 100.5 -37
c40.667 0 73.667 13.333 99 40s38 68.667 38 126v348l-62 20v26c20.667 6 40.334 10.5 59.001 13.5s37.334 4.5 56.001 4.5s35.834 -1 51.501 -3s31.167 -5 46.5 -9zM326.999 850l45.001 8l144 -161l-16 -17c-20.667 0 -39.5 3.33301 -56.5 10s-33.5 18 -49.5 34
c-9.33301 8.66699 -18 18.5 -26 29.5s-15 22.167 -21 33.5l-113 -108c-10.667 4.66699 -19.834 10.667 -27.501 18s-14.167 15.333 -19.5 24z" />
    <glyph glyph-name="Udieresis" unicode="&#xdc;" horiz-adv-x="666" 
d="M639 636l-0.000976562 -22c-20.667 -8.66699 -35.167 -19.5 -43.5 -32.5s-12.5 -30.833 -12.5 -53.5v-277c0 -87.333 -23.333 -153.5 -70 -198.5s-105.667 -67.5 -177 -67.5c-85.333 0 -148.833 17.667 -190.5 53s-62.5 86 -62.5 152v395l-62 19v26
c22.667 5.33301 45.667 9.5 69 12.5s46.666 4.5 69.999 4.5c22.667 0 42.167 -0.666992 58.5 -2s33.833 -4 52.5 -8v-23c-20.667 -8 -35.334 -18.833 -44.001 -32.5s-13 -33.5 -13 -59.5v-310c0 -45.333 12.167 -80.333 36.5 -105s57.833 -37 100.5 -37
c40.667 0 73.667 13.333 99 40s38 68.667 38 126v348l-62 20v26c20.667 6 40.334 10.5 59.001 13.5s37.334 4.5 56.001 4.5s35.834 -1 51.501 -3s31.167 -5 46.5 -9zM491.999 744c0 -16 -5.33301 -29.333 -16 -40s-23.334 -16 -38.001 -16c-16 0 -28.667 5 -38 15
s-14 22.667 -14 38s5.16699 28.833 15.5 40.5s23.5 17.5 39.5 17.5c14.667 0 26.834 -5 36.501 -15s14.5 -23.333 14.5 -40zM319.999 744c0 -16 -5.33301 -29.333 -16 -40s-23.334 -16 -38.001 -16c-16 0 -28.667 5 -38 15s-14 22.667 -14 38s5.16699 28.833 15.5 40.5
s23.5 17.5 39.5 17.5c14.667 0 26.834 -5 36.501 -15s14.5 -23.333 14.5 -40z" />
    <glyph glyph-name="Yacute" unicode="&#xdd;" 
d="M206 637l0.00390625 -22.9951c-12.667 -4.66699 -21.334 -11.834 -26.001 -21.501s-3.33398 -21.834 3.99902 -36.501l102 -204h2l110 234l-51 18v26c18.667 5.33301 37 9.5 55 12.5s36.667 4.5 56 4.5c18.667 0 33.667 -0.833008 45 -2.5s23.666 -4.16699 36.999 -7.5
v-23c-12.667 -4.66699 -22.667 -11.334 -30 -20.001s-16.333 -22.334 -27 -41.001l-151 -271v-230l62 -19v-26c-20.667 -5.33301 -41.334 -9.33301 -62.001 -12s-46.334 -4 -77.001 -4c-24 0 -44.5 0.666992 -61.5 2s-33.5 3.66602 -49.5 6.99902v23
c16.667 4.66699 30.334 12.667 41.001 24s16 27.333 16 48v161l-172 330l-49 18v26c18 5.33301 37.333 9.5 58 12.5s40.667 4.5 60 4.5c22.667 0 41.667 -0.833008 57 -2.5s32.333 -4.16699 51 -7.5zM392.004 808.005c0 -26.667 -19.668 -56.501 -59.001 -89.501
s-70.666 -49.5 -93.999 -49.5l-13 8c16.667 20.667 33 48.167 49 82.5s26.333 66.5 31 96.5c32.667 0 55.167 -4.16699 67.5 -12.5s18.5 -20.166 18.5 -35.499z" />
    <glyph glyph-name="Thorn" unicode="&#xde;" horiz-adv-x="568" 
d="M411 328c0 44 -13.332 78.166 -39.999 102.499s-61.334 36.5 -104.001 36.5c-6.66699 0 -14.167 -0.166992 -22.5 -0.5s-15.833 -0.833008 -22.5 -1.5v-274c8 -2 17 -3.66699 27 -5s20.333 -2 31 -2c34 0 64.333 12.333 91 37s40 60.334 40 107.001zM284.001 32.999
l0.000976562 -26c-18.667 -4.66699 -39.834 -8.66699 -63.501 -12s-47.5 -5 -71.5 -5c-26 0 -46.833 0.833008 -62.5 2.5s-31.5 4.16699 -47.5 7.5v23c18 6.66699 32 16.5 42 29.5s15 32.833 15 59.5v472l-63 20v26c22.667 5.33301 44.834 9.5 66.501 12.5
s44.834 4.5 69.501 4.5c20 0 38.833 -0.833008 56.5 -2.5s35.167 -4.16699 52.5 -7.5v-23c-19.333 -8 -33.333 -18 -42 -30s-13.334 -28.667 -14.001 -50h2l28 2c9.33301 0.666992 19 1 29 1c86 0 152 -16.667 198 -50s69 -82 69 -146c0 -66 -26.333 -120.667 -79 -164
s-112.667 -65 -180 -65c-12.667 0 -24.334 1.16699 -35.001 3.5s-21 5.83301 -31 10.5h-1v-74z" />
    <glyph glyph-name="germandbls" unicode="&#xdf;" horiz-adv-x="611" 
d="M206 50l47.0029 -15.9971v-22c-18.667 -6.66699 -37.667 -11.834 -57 -15.501s-42 -5.5 -68 -5.5c-14.667 0 -30.5 0.833008 -47.5 2.5s-32.167 3.83398 -45.5 6.50098v20c12.667 5.33301 24.5 13.5 35.5 24.5s16.5 23.167 16.5 36.5v319h-53v37l55 28v77
c0 50 18.833 92.167 56.5 126.5s97.5 51.5 179.5 51.5c75.333 0 131.333 -14.833 168 -44.5s55 -66.5 55 -110.5c0 -58 -26.833 -100.5 -80.5 -127.5s-80.5 -54.5 -80.5 -82.5c0 -13.333 4.16699 -24.5 12.5 -33.5s25.833 -18.5 52.5 -28.5l54 -21
c33.333 -12.667 57.833 -29.334 73.5 -50.001s23.5 -47.334 23.5 -80.001c0 -44 -18.167 -81.5 -54.5 -112.5s-83.5 -46.5 -141.5 -46.5c-48 0 -82.667 7.66699 -104 23s-32 36.666 -32 63.999c0 8.66699 0.666992 17.834 2 27.501s2.66602 17.834 3.99902 24.501
c24.667 -19.333 49.667 -34.5 75 -45.5s49.666 -16.5 72.999 -16.5c20.667 0 36.5 4.16699 47.5 12.5s16.5 19.166 16.5 32.499c0 12 -4.5 23 -13.5 33s-25.833 20.333 -50.5 31l-48 20c-30.667 12.667 -53.834 29.5 -69.501 50.5s-23.5 47.167 -23.5 78.5
c0 52 25.667 94 77 126s77 68 77 108c0 31.333 -10.333 56.5 -31 75.5s-50.667 28.5 -90 28.5c-38 0 -66.667 -9.83301 -86 -29.5s-29 -43.834 -29 -72.501c0 -10.667 0.666992 -28.5 2 -53.5s2 -43.833 2 -56.5v-394z" />
    <glyph glyph-name="agrave" unicode="&#xe0;" horiz-adv-x="483" 
d="M455 39c-8.66699 -10 -22.501 -20.501 -41.501 -31.501s-37.167 -19.5 -54.5 -25.5c-10.667 6 -20.834 13.333 -30.501 22s-18.167 18 -25.5 28c-12 -10.667 -31.167 -21 -57.5 -31s-51.5 -15 -75.5 -15c-42 0 -75.5 10.667 -100.5 32s-37.5 49 -37.5 83
c0 44 23 81.5 69 112.5s111.667 46.5 197 46.5v25c0 48.667 -7 81.667 -21 99s-34.333 26 -61 26c-24 0 -50 -6.83301 -78 -20.5s-53 -31.5 -75 -53.5c-2 8 -3.83301 16.333 -5.5 25s-2.5 17.334 -2.5 26.001c0 31.333 13 55.833 39 73.5s72.333 26.5 139 26.5
c61.333 0 107.833 -12.667 139.5 -38s47.5 -59 47.5 -101c0 -12 -0.5 -28.5 -1.5 -49.5l-2.5 -53.5l-4 -155c4.66699 -8.66699 10.834 -17.667 18.501 -27s15.834 -17.333 24.501 -24zM298.999 72.999l0.000976562 134.001c-46.667 0 -82.834 -9 -108.501 -27
s-38.5 -39.333 -38.5 -64c0 -18.667 6.33301 -33.5 19 -44.5s30 -16.5 52 -16.5c12.667 0 26 1.66699 40 5s26 7.66602 36 12.999zM161 658c0 15.333 6.16602 27.167 18.499 35.5s34.833 12.5 67.5 12.5c4.66699 -30 15.167 -62.167 31.5 -96.5s32.833 -61.833 49.5 -82.5
l-14 -8c-23.333 0 -54.666 16.5 -93.999 49.5s-59 62.833 -59 89.5z" />
    <glyph glyph-name="aacute" unicode="&#xe1;" horiz-adv-x="483" 
d="M455 39c-8.66699 -10 -22.501 -20.501 -41.501 -31.501s-37.167 -19.5 -54.5 -25.5c-10.667 6 -20.834 13.333 -30.501 22s-18.167 18 -25.5 28c-12 -10.667 -31.167 -21 -57.5 -31s-51.5 -15 -75.5 -15c-42 0 -75.5 10.667 -100.5 32s-37.5 49 -37.5 83
c0 44 23 81.5 69 112.5s111.667 46.5 197 46.5v25c0 48.667 -7 81.667 -21 99s-34.333 26 -61 26c-24 0 -50 -6.83301 -78 -20.5s-53 -31.5 -75 -53.5c-2 8 -3.83301 16.333 -5.5 25s-2.5 17.334 -2.5 26.001c0 31.333 13 55.833 39 73.5s72.333 26.5 139 26.5
c61.333 0 107.833 -12.667 139.5 -38s47.5 -59 47.5 -101c0 -12 -0.5 -28.5 -1.5 -49.5l-2.5 -53.5l-4 -155c4.66699 -8.66699 10.834 -17.667 18.501 -27s15.834 -17.333 24.501 -24zM298.999 72.999l0.000976562 134.001c-46.667 0 -82.834 -9 -108.501 -27
s-38.5 -39.333 -38.5 -64c0 -18.667 6.33301 -33.5 19 -44.5s30 -16.5 52 -16.5c12.667 0 26 1.66699 40 5s26 7.66602 36 12.999zM353 658c0 -26.667 -19.668 -56.501 -59.001 -89.501s-70.666 -49.5 -93.999 -49.5l-13 8c16.667 20.667 33 48.167 49 82.5
s26.333 66.5 31 96.5c32.667 0 55.167 -4.16699 67.5 -12.5s18.5 -20.166 18.5 -35.499z" />
    <glyph glyph-name="acircumflex" unicode="&#xe2;" horiz-adv-x="483" 
d="M455 39c-8.66699 -10 -22.501 -20.501 -41.501 -31.501s-37.167 -19.5 -54.5 -25.5c-10.667 6 -20.834 13.333 -30.501 22s-18.167 18 -25.5 28c-12 -10.667 -31.167 -21 -57.5 -31s-51.5 -15 -75.5 -15c-42 0 -75.5 10.667 -100.5 32s-37.5 49 -37.5 83
c0 44 23 81.5 69 112.5s111.667 46.5 197 46.5v25c0 48.667 -7 81.667 -21 99s-34.333 26 -61 26c-24 0 -50 -6.83301 -78 -20.5s-53 -31.5 -75 -53.5c-2 8 -3.83301 16.333 -5.5 25s-2.5 17.334 -2.5 26.001c0 31.333 13 55.833 39 73.5s72.333 26.5 139 26.5
c61.333 0 107.833 -12.667 139.5 -38s47.5 -59 47.5 -101c0 -12 -0.5 -28.5 -1.5 -49.5l-2.5 -53.5l-4 -155c4.66699 -8.66699 10.834 -17.667 18.501 -27s15.834 -17.333 24.501 -24zM298.999 72.999l0.000976562 134.001c-46.667 0 -82.834 -9 -108.501 -27
s-38.5 -39.333 -38.5 -64c0 -18.667 6.33301 -33.5 19 -44.5s30 -16.5 52 -16.5c12.667 0 26 1.66699 40 5s26 7.66602 36 12.999zM214 700l45.001 8l144 -161l-16 -17c-20.667 0 -39.5 3.33301 -56.5 10s-33.5 18 -49.5 34c-9.33301 8.66699 -18 18.5 -26 29.5
s-15 22.167 -21 33.5l-113 -108c-10.667 4.66699 -19.834 10.667 -27.501 18s-14.167 15.333 -19.5 24z" />
    <glyph glyph-name="atilde" unicode="&#xe3;" horiz-adv-x="483" 
d="M455 39c-8.66699 -10 -22.501 -20.501 -41.501 -31.501s-37.167 -19.5 -54.5 -25.5c-10.667 6 -20.834 13.333 -30.501 22s-18.167 18 -25.5 28c-12 -10.667 -31.167 -21 -57.5 -31s-51.5 -15 -75.5 -15c-42 0 -75.5 10.667 -100.5 32s-37.5 49 -37.5 83
c0 44 23 81.5 69 112.5s111.667 46.5 197 46.5v25c0 48.667 -7 81.667 -21 99s-34.333 26 -61 26c-24 0 -50 -6.83301 -78 -20.5s-53 -31.5 -75 -53.5c-2 8 -3.83301 16.333 -5.5 25s-2.5 17.334 -2.5 26.001c0 31.333 13 55.833 39 73.5s72.333 26.5 139 26.5
c61.333 0 107.833 -12.667 139.5 -38s47.5 -59 47.5 -101c0 -12 -0.5 -28.5 -1.5 -49.5l-2.5 -53.5l-4 -155c4.66699 -8.66699 10.834 -17.667 18.501 -27s15.834 -17.333 24.501 -24zM298.999 72.999l0.000976562 134.001c-46.667 0 -82.834 -9 -108.501 -27
s-38.5 -39.333 -38.5 -64c0 -18.667 6.33301 -33.5 19 -44.5s30 -16.5 52 -16.5c12.667 0 26 1.66699 40 5s26 7.66602 36 12.999zM145 661c10.667 0 21.833 -1.00098 33.5 -3.00098s23.834 -4.66699 36.501 -8l61 -15c7.33301 -2.66699 15.333 -4.66699 24 -6
s16.667 -2 24 -2c11.333 0 22.166 5.16699 32.499 15.5s15.5 21.5 15.5 33.5c9.33301 -8.66699 16.833 -18.5 22.5 -29.5s8.5 -22.833 8.5 -35.5c0 -18.667 -7.66699 -34 -23 -46s-32.666 -18 -51.999 -18c-11.333 0 -23 0.833008 -35 2.5s-23 3.83398 -33 6.50098l-62 17
c-9.33301 2.66699 -18.333 4.66699 -27 6s-16.334 2 -23.001 2c-12 0 -22.5 -4.33301 -31.5 -13s-13.5 -18.334 -13.5 -29.001c-8.66699 8 -15.834 17.333 -21.501 28s-8.5 22 -8.5 34c0 18.667 6.33301 33.334 19 44.001s30.334 16 53.001 16z" />
    <glyph glyph-name="adieresis" unicode="&#xe4;" horiz-adv-x="483" 
d="M455 39c-8.66699 -10 -22.501 -20.501 -41.501 -31.501s-37.167 -19.5 -54.5 -25.5c-10.667 6 -20.834 13.333 -30.501 22s-18.167 18 -25.5 28c-12 -10.667 -31.167 -21 -57.5 -31s-51.5 -15 -75.5 -15c-42 0 -75.5 10.667 -100.5 32s-37.5 49 -37.5 83
c0 44 23 81.5 69 112.5s111.667 46.5 197 46.5v25c0 48.667 -7 81.667 -21 99s-34.333 26 -61 26c-24 0 -50 -6.83301 -78 -20.5s-53 -31.5 -75 -53.5c-2 8 -3.83301 16.333 -5.5 25s-2.5 17.334 -2.5 26.001c0 31.333 13 55.833 39 73.5s72.333 26.5 139 26.5
c61.333 0 107.833 -12.667 139.5 -38s47.5 -59 47.5 -101c0 -12 -0.5 -28.5 -1.5 -49.5l-2.5 -53.5l-4 -155c4.66699 -8.66699 10.834 -17.667 18.501 -27s15.834 -17.333 24.501 -24zM298.999 72.999l0.000976562 134.001c-46.667 0 -82.834 -9 -108.501 -27
s-38.5 -39.333 -38.5 -64c0 -18.667 6.33301 -33.5 19 -44.5s30 -16.5 52 -16.5c12.667 0 26 1.66699 40 5s26 7.66602 36 12.999zM383 607c0 -16 -5.33301 -29.333 -16 -40s-23.334 -16 -38.001 -16c-16 0 -28.667 5 -38 15s-14 22.667 -14 38s5.16699 28.833 15.5 40.5
s23.5 17.5 39.5 17.5c14.667 0 26.834 -5 36.501 -15s14.5 -23.333 14.5 -40zM211 607c0 -16 -5.33301 -29.333 -16 -40s-23.334 -16 -38.001 -16c-16 0 -28.667 5 -38 15s-14 22.667 -14 38s5.16699 28.833 15.5 40.5s23.5 17.5 39.5 17.5c14.667 0 26.834 -5 36.501 -15
s14.5 -23.333 14.5 -40z" />
    <glyph glyph-name="aring" unicode="&#xe5;" horiz-adv-x="483" 
d="M455 39c-8.66699 -10 -22.501 -20.501 -41.501 -31.501s-37.167 -19.5 -54.5 -25.5c-10.667 6 -20.834 13.333 -30.501 22s-18.167 18 -25.5 28c-12 -10.667 -31.167 -21 -57.5 -31s-51.5 -15 -75.5 -15c-42 0 -75.5 10.667 -100.5 32s-37.5 49 -37.5 83
c0 44 23 81.5 69 112.5s111.667 46.5 197 46.5v25c0 48.667 -7 81.667 -21 99s-34.333 26 -61 26c-24 0 -50 -6.83301 -78 -20.5s-53 -31.5 -75 -53.5c-2 8 -3.83301 16.333 -5.5 25s-2.5 17.334 -2.5 26.001c0 31.333 13 55.833 39 73.5s72.333 26.5 139 26.5
c61.333 0 107.833 -12.667 139.5 -38s47.5 -59 47.5 -101c0 -12 -0.5 -28.5 -1.5 -49.5l-2.5 -53.5l-4 -155c4.66699 -8.66699 10.834 -17.667 18.501 -27s15.834 -17.333 24.501 -24zM298.999 72.999l0.000976562 134.001c-46.667 0 -82.834 -9 -108.501 -27
s-38.5 -39.333 -38.5 -64c0 -18.667 6.33301 -33.5 19 -44.5s30 -16.5 52 -16.5c12.667 0 26 1.66699 40 5s26 7.66602 36 12.999zM245 719c28 0 51.167 -8.66895 69.5 -26.002s27.5 -40.666 27.5 -69.999c0 -26.667 -9.5 -49.167 -28.5 -67.5s-41.5 -27.5 -67.5 -27.5
c-26.667 0 -49.167 8.33301 -67.5 25s-27.5 39.334 -27.5 68.001c0 28 9.33301 51.333 28 70s40.667 28 66 28zM245 676.998c-14 0 -25.167 -5.16699 -33.5 -15.5s-12.5 -23.833 -12.5 -40.5c0 -16 4.66699 -28.667 14 -38s20.333 -14 33 -14
c14.667 0 26.167 4.66699 34.5 14s12.5 22 12.5 38c0 17.333 -4.5 31 -13.5 41s-20.5 15 -34.5 15z" />
    <glyph glyph-name="ae" unicode="&#xe6;" horiz-adv-x="736" 
d="M708 298c0 -10.667 -0.167969 -21.501 -0.500977 -32.501s-0.833008 -23.833 -1.5 -38.5h-289c0 -46 14 -83 42 -111s62.333 -42 103 -42c21.333 0 44.833 3.66699 70.5 11s47.834 15.666 66.501 24.999c0.666992 -4 1.33398 -8.66699 2.00098 -14s1 -10.666 1 -15.999
c0 -24 -15.833 -45.833 -47.5 -65.5s-77.167 -29.5 -136.5 -29.5c-35.333 0 -67.5 6.16699 -96.5 18.5s-53.5 29.833 -73.5 52.5c-24 -20.667 -52.667 -37.5 -86 -50.5s-65 -19.5 -95 -19.5c-42 0 -75.667 10.333 -101 31s-38 48 -38 82c0 46.667 24 85.167 72 115.5
s113 45.5 195 45.5v25c0 48.667 -7 81.667 -21 99s-34.333 26 -61 26c-24 0 -50 -6.83301 -78 -20.5s-53 -31.5 -75 -53.5c-2 8 -3.83301 16.333 -5.5 25s-2.5 17.334 -2.5 26.001c0 31.333 13 55.833 39 73.5s72.333 26.5 139 26.5c37.333 0 68 -5 92 -15
s42.333 -24 55 -42c19.333 18 41.166 32 65.499 42s49.833 15 76.5 15c58 0 104 -17 138 -51s51 -80 51 -138zM592.999 288.999c0 48 -8 82.499 -24 103.499s-36.667 31.5 -62 31.5c-22.667 0 -43.667 -12.667 -63 -38s-29 -57.666 -29 -96.999h178zM324.999 87.998
c-9.33301 16.667 -16.8311 35.001 -22.498 55.001s-8.83398 41.333 -9.50098 64h-1c-46 0 -81.5 -9 -106.5 -27s-37.5 -39.333 -37.5 -64c0 -18.667 6.66699 -33.5 20 -44.5s30.666 -16.5 51.999 -16.5c15.333 0 33 3.16699 53 9.5s37.333 14.166 52 23.499z" />
    <glyph glyph-name="ccedilla" unicode="&#xe7;" horiz-adv-x="416" 
d="M223 -14c-54 5.33301 -99.168 28.5 -135.501 69.5s-54.5 94.5 -54.5 160.5c0 82.667 24.167 148.167 72.5 196.5s108.833 72.5 181.5 72.5c44 0 74.5 -6 91.5 -18s25.5 -29 25.5 -51c0 -14 -2.5 -27.167 -7.5 -39.5s-11.5 -23.5 -19.5 -33.5
c-16.667 19.333 -34.667 34.666 -54 45.999s-39.333 17 -60 17c-26.667 0 -50.167 -14 -70.5 -42s-30.5 -71 -30.5 -129c0 -52 12.167 -92.167 36.5 -120.5s53.5 -42.5 87.5 -42.5c19.333 0 38.666 3 57.999 9s37.333 13.667 54 23c2 -4.66699 3.5 -9.83398 4.5 -15.501
s1.5 -11.5 1.5 -17.5c0 -22.667 -11.5 -42 -34.5 -58s-56.833 -25.333 -101.5 -28v-34c26.667 0 47 -5.5 61 -16.5s21 -25.833 21 -44.5c0 -28.667 -14.167 -54.167 -42.5 -76.5s-60.5 -33.5 -96.5 -33.5c-26.667 0 -47.667 7.33301 -63 22s-23 37.334 -23 68.001
c15.333 -10 31.333 -18 48 -24s33.334 -9 50.001 -9c14.667 0 26.334 3.66699 35.001 11s13 15.333 13 24c0 10.667 -4.66699 19.334 -14 26.001s-26 10 -50 10z" />
    <glyph glyph-name="egrave" unicode="&#xe8;" horiz-adv-x="478" 
d="M450 298c0 -10.667 -0.168945 -21.5 -0.501953 -32.5s-0.833008 -23.833 -1.5 -38.5h-289c0 -46 14 -83 42 -111s62.333 -42 103 -42c21.333 0 44.833 3.66699 70.5 11s47.834 15.666 66.501 24.999c0.666992 -4 1.33398 -8.66699 2.00098 -14s1 -10.666 1 -15.999
c0 -24 -15.833 -45.833 -47.5 -65.5s-77.167 -29.5 -136.5 -29.5c-66 0 -120.333 20.667 -163 62s-64 97.333 -64 168c0 88.667 22.5 156.167 67.5 202.5s98.5 69.5 160.5 69.5c58 0 104 -17 138 -51s51 -80 51 -138zM334.998 289c0 48 -8 82.499 -24 103.499
s-36.667 31.5 -62 31.5c-22.667 0 -43.667 -12.667 -63 -38s-29 -57.666 -29 -96.999h178zM173.998 657.999c0 15.333 6.16602 27.167 18.499 35.5s34.833 12.5 67.5 12.5c4.66699 -30 15.167 -62.167 31.5 -96.5s32.833 -61.833 49.5 -82.5l-14 -8
c-23.333 0 -54.666 16.5 -93.999 49.5s-59 62.833 -59 89.5z" />
    <glyph glyph-name="eacute" unicode="&#xe9;" horiz-adv-x="478" 
d="M450 298c0 -10.667 -0.168945 -21.5 -0.501953 -32.5s-0.833008 -23.833 -1.5 -38.5h-289c0 -46 14 -83 42 -111s62.333 -42 103 -42c21.333 0 44.833 3.66699 70.5 11s47.834 15.666 66.501 24.999c0.666992 -4 1.33398 -8.66699 2.00098 -14s1 -10.666 1 -15.999
c0 -24 -15.833 -45.833 -47.5 -65.5s-77.167 -29.5 -136.5 -29.5c-66 0 -120.333 20.667 -163 62s-64 97.333 -64 168c0 88.667 22.5 156.167 67.5 202.5s98.5 69.5 160.5 69.5c58 0 104 -17 138 -51s51 -80 51 -138zM334.998 289c0 48 -8 82.499 -24 103.499
s-36.667 31.5 -62 31.5c-22.667 0 -43.667 -12.667 -63 -38s-29 -57.666 -29 -96.999h178zM365.998 657.999c0 -26.667 -19.668 -56.501 -59.001 -89.501s-70.666 -49.5 -93.999 -49.5l-13 8c16.667 20.667 33 48.167 49 82.5s26.333 66.5 31 96.5
c32.667 0 55.167 -4.16699 67.5 -12.5s18.5 -20.166 18.5 -35.499z" />
    <glyph glyph-name="ecircumflex" unicode="&#xea;" horiz-adv-x="478" 
d="M450 298c0 -10.667 -0.168945 -21.5 -0.501953 -32.5s-0.833008 -23.833 -1.5 -38.5h-289c0 -46 14 -83 42 -111s62.333 -42 103 -42c21.333 0 44.833 3.66699 70.5 11s47.834 15.666 66.501 24.999c0.666992 -4 1.33398 -8.66699 2.00098 -14s1 -10.666 1 -15.999
c0 -24 -15.833 -45.833 -47.5 -65.5s-77.167 -29.5 -136.5 -29.5c-66 0 -120.333 20.667 -163 62s-64 97.333 -64 168c0 88.667 22.5 156.167 67.5 202.5s98.5 69.5 160.5 69.5c58 0 104 -17 138 -51s51 -80 51 -138zM334.998 289c0 48 -8 82.499 -24 103.499
s-36.667 31.5 -62 31.5c-22.667 0 -43.667 -12.667 -63 -38s-29 -57.666 -29 -96.999h178zM231.998 699.999l45.001 8l144 -161l-16 -17c-20.667 0 -39.5 3.33301 -56.5 10s-33.5 18 -49.5 34c-9.33301 8.66699 -18 18.5 -26 29.5s-15 22.167 -21 33.5l-113 -108
c-10.667 4.66699 -19.834 10.667 -27.501 18s-14.167 15.333 -19.5 24z" />
    <glyph glyph-name="edieresis" unicode="&#xeb;" horiz-adv-x="478" 
d="M450 298c0 -10.667 -0.168945 -21.5 -0.501953 -32.5s-0.833008 -23.833 -1.5 -38.5h-289c0 -46 14 -83 42 -111s62.333 -42 103 -42c21.333 0 44.833 3.66699 70.5 11s47.834 15.666 66.501 24.999c0.666992 -4 1.33398 -8.66699 2.00098 -14s1 -10.666 1 -15.999
c0 -24 -15.833 -45.833 -47.5 -65.5s-77.167 -29.5 -136.5 -29.5c-66 0 -120.333 20.667 -163 62s-64 97.333 -64 168c0 88.667 22.5 156.167 67.5 202.5s98.5 69.5 160.5 69.5c58 0 104 -17 138 -51s51 -80 51 -138zM334.998 289c0 48 -8 82.499 -24 103.499
s-36.667 31.5 -62 31.5c-22.667 0 -43.667 -12.667 -63 -38s-29 -57.666 -29 -96.999h178zM386.998 606.999c0 -16 -5.33301 -29.333 -16 -40s-23.334 -16 -38.001 -16c-16 0 -28.667 5 -38 15s-14 22.667 -14 38s5.16699 28.833 15.5 40.5s23.5 17.5 39.5 17.5
c14.667 0 26.834 -5 36.501 -15s14.5 -23.333 14.5 -40zM214.998 606.999c0 -16 -5.33301 -29.333 -16 -40s-23.334 -16 -38.001 -16c-16 0 -28.667 5 -38 15s-14 22.667 -14 38s5.16699 28.833 15.5 40.5s23.5 17.5 39.5 17.5c14.667 0 26.834 -5 36.501 -15
s14.5 -23.333 14.5 -40z" />
    <glyph glyph-name="igrave" unicode="&#xec;" horiz-adv-x="292" 
d="M89 402l-61.999 28.999v24c24 8 48.833 14 74.5 18s47.834 6 66.501 6l51 -1l-7 -71v-360l56 -16v-23c-18.667 -6 -38.834 -10.333 -60.501 -13s-47.834 -4 -78.501 -4c-14.667 0 -30.5 0.833008 -47.5 2.5s-31.833 3.83398 -44.5 6.50098v20
c12.667 5.33301 24.5 13.5 35.5 24.5s16.5 23.167 16.5 36.5v321zM68.001 657.999c0 15.333 6.16602 27.167 18.499 35.5s34.833 12.5 67.5 12.5c4.66699 -30 15.167 -62.167 31.5 -96.5s32.833 -61.833 49.5 -82.5l-14 -8c-23.333 0 -54.666 16.5 -93.999 49.5
s-59 62.833 -59 89.5z" />
    <glyph glyph-name="iacute" unicode="&#xed;" horiz-adv-x="292" 
d="M89 402l-61.999 28.999v24c24 8 48.833 14 74.5 18s47.834 6 66.501 6l51 -1l-7 -71v-360l56 -16v-23c-18.667 -6 -38.834 -10.333 -60.501 -13s-47.834 -4 -78.501 -4c-14.667 0 -30.5 0.833008 -47.5 2.5s-31.833 3.83398 -44.5 6.50098v20
c12.667 5.33301 24.5 13.5 35.5 24.5s16.5 23.167 16.5 36.5v321zM248.001 657.999c0 -26.667 -19.668 -56.501 -59.001 -89.501s-70.666 -49.5 -93.999 -49.5l-13 8c16.667 20.667 33 48.167 49 82.5s26.333 66.5 31 96.5c32.667 0 55.167 -4.16699 67.5 -12.5
s18.5 -20.166 18.5 -35.499z" />
    <glyph glyph-name="icircumflex" unicode="&#xee;" horiz-adv-x="292" 
d="M89 402l-61.999 28.999v24c24 8 48.833 14 74.5 18s47.834 6 66.501 6l51 -1l-7 -71v-360l56 -16v-23c-18.667 -6 -38.834 -10.333 -60.501 -13s-47.834 -4 -78.501 -4c-14.667 0 -30.5 0.833008 -47.5 2.5s-31.833 3.83398 -44.5 6.50098v20
c12.667 5.33301 24.5 13.5 35.5 24.5s16.5 23.167 16.5 36.5v321zM127.001 699.999l45.001 8l144 -161l-16 -17c-20.667 0 -39.5 3.33301 -56.5 10s-33.5 18 -49.5 34c-9.33301 8.66699 -18 18.5 -26 29.5s-15 22.167 -21 33.5l-113 -108
c-10.667 4.66699 -19.834 10.667 -27.501 18s-14.167 15.333 -19.5 24z" />
    <glyph glyph-name="idieresis" unicode="&#xef;" horiz-adv-x="292" 
d="M89 402l-61.999 28.999v24c24 8 48.833 14 74.5 18s47.834 6 66.501 6l51 -1l-7 -71v-360l56 -16v-23c-18.667 -6 -38.834 -10.333 -60.501 -13s-47.834 -4 -78.501 -4c-14.667 0 -30.5 0.833008 -47.5 2.5s-31.833 3.83398 -44.5 6.50098v20
c12.667 5.33301 24.5 13.5 35.5 24.5s16.5 23.167 16.5 36.5v321zM290.001 606.999c0 -16 -5.33301 -29.333 -16 -40s-23.334 -16 -38.001 -16c-16 0 -28.667 5 -38 15s-14 22.667 -14 38s5.16699 28.833 15.5 40.5s23.5 17.5 39.5 17.5c14.667 0 26.834 -5 36.501 -15
s14.5 -23.333 14.5 -40zM118.001 606.999c0 -16 -5.33301 -29.333 -16 -40s-23.334 -16 -38.001 -16c-16 0 -28.667 5 -38 15s-14 22.667 -14 38s5.16699 28.833 15.5 40.5s23.5 17.5 39.5 17.5c14.667 0 26.834 -5 36.501 -15s14.5 -23.333 14.5 -40z" />
    <glyph glyph-name="eth" unicode="&#xf0;" horiz-adv-x="568" 
d="M172 647c-17.333 0 -34.668 -2.16797 -52.001 -6.50098s-34.666 -10.5 -51.999 -18.5c-2 6.66699 -3.5 13 -4.5 19s-1.5 12.333 -1.5 19c0 16 9 30 27 42s50.667 18 98 18c24 0 47.833 -2.83301 71.5 -8.5s46.167 -14.167 67.5 -25.5l90 62l31 -43l-72 -50
c44 -34 80.167 -82.5 108.5 -145.5s42.5 -139.833 42.5 -230.5c0 -94 -25.333 -166.833 -76 -218.5s-109.667 -77.5 -177 -77.5c-71.333 0 -129.166 21.333 -173.499 64s-66.5 99.334 -66.5 170.001c0 79.333 25.667 144.5 77 195.5s110.666 76.5 177.999 76.5
c20.667 0 39.167 -2.66699 55.5 -8s31.166 -13.333 44.499 -24l4 1c-10.667 30 -24.667 57 -42 81s-36.333 44.333 -57 61l-119 -82l-31 43l101 69c-12 5.33301 -24.167 9.5 -36.5 12.5s-24.166 4.5 -35.499 4.5zM392.998 250.999c0 29.333 -0.500977 54 -1.50098 74
s-3.16699 42.333 -6.5 67c-16 8 -32.167 14 -48.5 18s-33.833 6 -52.5 6c-22 0 -47.167 -15 -75.5 -45s-42.5 -78.667 -42.5 -146c0 -55.333 11.333 -97.333 34 -126s48.334 -43 77.001 -43c26.667 0 52.667 15 78 45s38 80 38 150z" />
    <glyph glyph-name="ntilde" unicode="&#xf1;" horiz-adv-x="580" 
d="M28 432v25.001c23.333 7.33301 47.833 13.166 73.5 17.499s47.834 6.16602 66.501 5.49902h39v-56c18 18 40.333 32.333 67 43s54.334 16 83.001 16c46 0 82.5 -13.333 109.5 -40s40.5 -68.334 40.5 -125.001v-271l53 -16v-23c-16.667 -5.33301 -35.667 -9.5 -57 -12.5
s-46 -4.5 -74 -4.5c-14.667 0 -29 0.833008 -43 2.5s-27 3.83398 -39 6.50098v20c12.667 6.66699 22 15.5 28 26.5s9 24.833 9 41.5v188c0 42.667 -9 73.5 -27 92.5s-41 28.5 -69 28.5c-14.667 0 -28.834 -2 -42.501 -6s-24.834 -8.66699 -33.501 -14v-330l56 -16v-23
c-19.333 -6 -39.5 -10.333 -60.5 -13s-46.833 -4 -77.5 -4c-14.667 0 -30.5 0.833008 -47.5 2.5s-32.167 3.83398 -45.5 6.50098v20c12.667 5.33301 24.5 13.5 35.5 24.5s16.5 23.167 16.5 36.5v322zM196 661.001c10.667 0 21.833 -1.00098 33.5 -3.00098
s23.834 -4.66699 36.501 -8l61 -15c7.33301 -2.66699 15.333 -4.66699 24 -6s16.667 -2 24 -2c11.333 0 22.166 5.16699 32.499 15.5s15.5 21.5 15.5 33.5c9.33301 -8.66699 16.833 -18.5 22.5 -29.5s8.5 -22.833 8.5 -35.5c0 -18.667 -7.66699 -34 -23 -46
s-32.666 -18 -51.999 -18c-11.333 0 -23 0.833008 -35 2.5s-23 3.83398 -33 6.50098l-62 17c-9.33301 2.66699 -18.333 4.66699 -27 6s-16.334 2 -23.001 2c-12 0 -22.5 -4.33301 -31.5 -13s-13.5 -18.334 -13.5 -29.001c-8.66699 8 -15.834 17.333 -21.501 28
s-8.5 22 -8.5 34c0 18.667 6.33301 33.334 19 44.001s30.334 16 53.001 16z" />
    <glyph glyph-name="ograve" unicode="&#xf2;" horiz-adv-x="559" 
d="M526 257c0 -86 -26.6689 -153.168 -80.002 -201.501s-112 -72.5 -176 -72.5c-69.333 0 -126.166 21.333 -170.499 64s-66.5 99.334 -66.5 170.001c0 80 25.667 145.333 77 196s112 76 182 76c68.667 0 124.834 -21.333 168.501 -64s65.5 -98.667 65.5 -168z
M392.998 248.999c0 56 -11.168 97.833 -33.501 125.5s-47.833 41.5 -76.5 41.5c-28 0 -54.5 -15.333 -79.5 -46s-37.5 -79 -37.5 -145c0 -55.333 11.5 -97.333 34.5 -126s48.167 -43 75.5 -43c26.667 0 52.834 14.833 78.501 44.5s38.5 79.167 38.5 148.5zM181.997 657.999
c0 15.333 6.16602 27.167 18.499 35.5s34.833 12.5 67.5 12.5c4.66699 -30 15.167 -62.167 31.5 -96.5s32.833 -61.833 49.5 -82.5l-14 -8c-23.333 0 -54.666 16.5 -93.999 49.5s-59 62.833 -59 89.5z" />
    <glyph glyph-name="oacute" unicode="&#xf3;" horiz-adv-x="559" 
d="M526 257c0 -86 -26.6689 -153.168 -80.002 -201.501s-112 -72.5 -176 -72.5c-69.333 0 -126.166 21.333 -170.499 64s-66.5 99.334 -66.5 170.001c0 80 25.667 145.333 77 196s112 76 182 76c68.667 0 124.834 -21.333 168.501 -64s65.5 -98.667 65.5 -168z
M392.998 248.999c0 56 -11.168 97.833 -33.501 125.5s-47.833 41.5 -76.5 41.5c-28 0 -54.5 -15.333 -79.5 -46s-37.5 -79 -37.5 -145c0 -55.333 11.5 -97.333 34.5 -126s48.167 -43 75.5 -43c26.667 0 52.834 14.833 78.501 44.5s38.5 79.167 38.5 148.5zM393.997 657.999
c0 -26.667 -19.668 -56.501 -59.001 -89.501s-70.666 -49.5 -93.999 -49.5l-13 8c16.667 20.667 33 48.167 49 82.5s26.333 66.5 31 96.5c32.667 0 55.167 -4.16699 67.5 -12.5s18.5 -20.166 18.5 -35.499z" />
    <glyph glyph-name="ocircumflex" unicode="&#xf4;" horiz-adv-x="559" 
d="M526 257c0 -86 -26.6689 -153.168 -80.002 -201.501s-112 -72.5 -176 -72.5c-69.333 0 -126.166 21.333 -170.499 64s-66.5 99.334 -66.5 170.001c0 80 25.667 145.333 77 196s112 76 182 76c68.667 0 124.834 -21.333 168.501 -64s65.5 -98.667 65.5 -168z
M392.998 248.999c0 56 -11.168 97.833 -33.501 125.5s-47.833 41.5 -76.5 41.5c-28 0 -54.5 -15.333 -79.5 -46s-37.5 -79 -37.5 -145c0 -55.333 11.5 -97.333 34.5 -126s48.167 -43 75.5 -43c26.667 0 52.834 14.833 78.501 44.5s38.5 79.167 38.5 148.5zM258.997 699.999
l45.001 8l144 -161l-16 -17c-20.667 0 -39.5 3.33301 -56.5 10s-33.5 18 -49.5 34c-9.33301 8.66699 -18 18.5 -26 29.5s-15 22.167 -21 33.5l-113 -108c-10.667 4.66699 -19.834 10.667 -27.501 18s-14.167 15.333 -19.5 24z" />
    <glyph glyph-name="otilde" unicode="&#xf5;" horiz-adv-x="559" 
d="M526 257c0 -86 -26.6689 -153.168 -80.002 -201.501s-112 -72.5 -176 -72.5c-69.333 0 -126.166 21.333 -170.499 64s-66.5 99.334 -66.5 170.001c0 80 25.667 145.333 77 196s112 76 182 76c68.667 0 124.834 -21.333 168.501 -64s65.5 -98.667 65.5 -168z
M392.998 248.999c0 56 -11.168 97.833 -33.501 125.5s-47.833 41.5 -76.5 41.5c-28 0 -54.5 -15.333 -79.5 -46s-37.5 -79 -37.5 -145c0 -55.333 11.5 -97.333 34.5 -126s48.167 -43 75.5 -43c26.667 0 52.834 14.833 78.501 44.5s38.5 79.167 38.5 148.5zM189.997 660.999
c10.667 0 21.833 -1.00098 33.5 -3.00098s23.834 -4.66699 36.501 -8l61 -15c7.33301 -2.66699 15.333 -4.66699 24 -6s16.667 -2 24 -2c11.333 0 22.166 5.16699 32.499 15.5s15.5 21.5 15.5 33.5c9.33301 -8.66699 16.833 -18.5 22.5 -29.5s8.5 -22.833 8.5 -35.5
c0 -18.667 -7.66699 -34 -23 -46s-32.666 -18 -51.999 -18c-11.333 0 -23 0.833008 -35 2.5s-23 3.83398 -33 6.50098l-62 17c-9.33301 2.66699 -18.333 4.66699 -27 6s-16.334 2 -23.001 2c-12 0 -22.5 -4.33301 -31.5 -13s-13.5 -18.334 -13.5 -29.001
c-8.66699 8 -15.834 17.333 -21.501 28s-8.5 22 -8.5 34c0 18.667 6.33301 33.334 19 44.001s30.334 16 53.001 16z" />
    <glyph glyph-name="odieresis" unicode="&#xf6;" horiz-adv-x="559" 
d="M526 257c0 -86 -26.6689 -153.168 -80.002 -201.501s-112 -72.5 -176 -72.5c-69.333 0 -126.166 21.333 -170.499 64s-66.5 99.334 -66.5 170.001c0 80 25.667 145.333 77 196s112 76 182 76c68.667 0 124.834 -21.333 168.501 -64s65.5 -98.667 65.5 -168z
M392.998 248.999c0 56 -11.168 97.833 -33.501 125.5s-47.833 41.5 -76.5 41.5c-28 0 -54.5 -15.333 -79.5 -46s-37.5 -79 -37.5 -145c0 -55.333 11.5 -97.333 34.5 -126s48.167 -43 75.5 -43c26.667 0 52.834 14.833 78.501 44.5s38.5 79.167 38.5 148.5zM425.997 606.999
c0 -16 -5.33301 -29.333 -16 -40s-23.334 -16 -38.001 -16c-16 0 -28.667 5 -38 15s-14 22.667 -14 38s5.16699 28.833 15.5 40.5s23.5 17.5 39.5 17.5c14.667 0 26.834 -5 36.501 -15s14.5 -23.333 14.5 -40zM253.997 606.999c0 -16 -5.33301 -29.333 -16 -40
s-23.334 -16 -38.001 -16c-16 0 -28.667 5 -38 15s-14 22.667 -14 38s5.16699 28.833 15.5 40.5s23.5 17.5 39.5 17.5c14.667 0 26.834 -5 36.501 -15s14.5 -23.333 14.5 -40z" />
    <glyph glyph-name="divide" unicode="&#xf7;" 
d="M313 403c0 -14 -5.66699 -26.833 -17 -38.5s-24 -17.5 -38 -17.5c-16 0 -28.667 5 -38 15s-14 22.667 -14 38c0 14.667 5.5 28 16.5 40s24.5 18 40.5 18c14.667 0 26.667 -5.33301 36 -16s14 -23.667 14 -39zM51 258h418v-65h-418v65zM313 47
c0 -14.667 -5.66699 -27.667 -17 -39s-24 -17 -38 -17c-16 0 -28.667 5 -38 15s-14 22.667 -14 38c0 14 5.5 27.167 16.5 39.5s24.5 18.5 40.5 18.5c14.667 0 26.667 -5.33301 36 -16s14 -23.667 14 -39z" />
    <glyph glyph-name="oslash" unicode="&#xf8;" horiz-adv-x="559" 
d="M166 225c0 -22 1.99805 -41.833 5.99805 -59.5s9.33301 -33.167 16 -46.5l160 269c-9.33301 8.66699 -19.666 15.5 -30.999 20.5s-22.666 7.5 -33.999 7.5c-28 0 -54.5 -15.333 -79.5 -46s-37.5 -79 -37.5 -145zM392.998 249c0 20.667 -1.83398 39.667 -5.50098 57
s-8.5 32.333 -14.5 45l-161 -267c9.33301 -9.33301 19.5 -16.333 30.5 -21s22.167 -7 33.5 -7c26.667 0 52.834 14.833 78.501 44.5s38.5 79.167 38.5 148.5zM525.997 257c0 -86 -26.667 -153.167 -80 -201.5s-112 -72.5 -176 -72.5c-18.667 0 -36.667 1.66699 -54 5
s-33.333 8 -48 14l-56 -95l-41 22l57 94c-30 20 -53.333 46.667 -70 80s-25 71.333 -25 114c0 80 25.667 145.333 77 196s112 76 182 76c18.667 0 36.5 -1.66699 53.5 -5s32.833 -8.33301 47.5 -15l58 97l41 -21l-58 -98c28.667 -20 51.167 -46.333 67.5 -79
s24.5 -69.667 24.5 -111z" />
    <glyph glyph-name="ugrave" unicode="&#xf9;" horiz-adv-x="560" 
d="M360 405l-54.999 28.999v24c23.333 8 47 14 71 18s45.333 6 64 6h51l-8 -73v-318c4.66699 -8.66699 10.5 -18 17.5 -28s14.5 -19 22.5 -27c-9.33301 -8.66699 -24.166 -18.334 -44.499 -29.001s-39.833 -19 -58.5 -25c-10 6.66699 -19.833 15.334 -29.5 26.001
s-17.5 21.334 -23.5 32.001c-14.667 -14.667 -35.334 -27.167 -62.001 -37.5s-54.334 -15.5 -83.001 -15.5c-48 0 -84.833 12.833 -110.5 38.5s-38.5 68.5 -38.5 128.5v251l-57 29v24c23.333 8 47.333 14 72 18s46.334 6 65.001 6h51l-8 -73v-213
c0 -46.667 7.83301 -79.667 23.5 -99s37.5 -29 65.5 -29c14 0 27.667 2 41 6s24.666 8.33301 33.999 13v318zM189.001 657.999c0 15.333 6.16602 27.167 18.499 35.5s34.833 12.5 67.5 12.5c4.66699 -30 15.167 -62.167 31.5 -96.5s32.833 -61.833 49.5 -82.5l-14 -8
c-23.333 0 -54.666 16.5 -93.999 49.5s-59 62.833 -59 89.5z" />
    <glyph glyph-name="uacute" unicode="&#xfa;" horiz-adv-x="560" 
d="M360 405l-54.999 28.999v24c23.333 8 47 14 71 18s45.333 6 64 6h51l-8 -73v-318c4.66699 -8.66699 10.5 -18 17.5 -28s14.5 -19 22.5 -27c-9.33301 -8.66699 -24.166 -18.334 -44.499 -29.001s-39.833 -19 -58.5 -25c-10 6.66699 -19.833 15.334 -29.5 26.001
s-17.5 21.334 -23.5 32.001c-14.667 -14.667 -35.334 -27.167 -62.001 -37.5s-54.334 -15.5 -83.001 -15.5c-48 0 -84.833 12.833 -110.5 38.5s-38.5 68.5 -38.5 128.5v251l-57 29v24c23.333 8 47.333 14 72 18s46.334 6 65.001 6h51l-8 -73v-213
c0 -46.667 7.83301 -79.667 23.5 -99s37.5 -29 65.5 -29c14 0 27.667 2 41 6s24.666 8.33301 33.999 13v318zM376.001 657.999c0 -26.667 -19.668 -56.501 -59.001 -89.501s-70.666 -49.5 -93.999 -49.5l-13 8c16.667 20.667 33 48.167 49 82.5s26.333 66.5 31 96.5
c32.667 0 55.167 -4.16699 67.5 -12.5s18.5 -20.166 18.5 -35.499z" />
    <glyph glyph-name="ucircumflex" unicode="&#xfb;" horiz-adv-x="560" 
d="M360 405l-54.999 28.999v24c23.333 8 47 14 71 18s45.333 6 64 6h51l-8 -73v-318c4.66699 -8.66699 10.5 -18 17.5 -28s14.5 -19 22.5 -27c-9.33301 -8.66699 -24.166 -18.334 -44.499 -29.001s-39.833 -19 -58.5 -25c-10 6.66699 -19.833 15.334 -29.5 26.001
s-17.5 21.334 -23.5 32.001c-14.667 -14.667 -35.334 -27.167 -62.001 -37.5s-54.334 -15.5 -83.001 -15.5c-48 0 -84.833 12.833 -110.5 38.5s-38.5 68.5 -38.5 128.5v251l-57 29v24c23.333 8 47.333 14 72 18s46.334 6 65.001 6h51l-8 -73v-213
c0 -46.667 7.83301 -79.667 23.5 -99s37.5 -29 65.5 -29c14 0 27.667 2 41 6s24.666 8.33301 33.999 13v318zM261.001 699.999l45.001 8l144 -161l-16 -17c-20.667 0 -39.5 3.33301 -56.5 10s-33.5 18 -49.5 34c-9.33301 8.66699 -18 18.5 -26 29.5s-15 22.167 -21 33.5
l-113 -108c-10.667 4.66699 -19.834 10.667 -27.501 18s-14.167 15.333 -19.5 24z" />
    <glyph glyph-name="udieresis" unicode="&#xfc;" horiz-adv-x="560" 
d="M360 405l-54.999 28.999v24c23.333 8 47 14 71 18s45.333 6 64 6h51l-8 -73v-318c4.66699 -8.66699 10.5 -18 17.5 -28s14.5 -19 22.5 -27c-9.33301 -8.66699 -24.166 -18.334 -44.499 -29.001s-39.833 -19 -58.5 -25c-10 6.66699 -19.833 15.334 -29.5 26.001
s-17.5 21.334 -23.5 32.001c-14.667 -14.667 -35.334 -27.167 -62.001 -37.5s-54.334 -15.5 -83.001 -15.5c-48 0 -84.833 12.833 -110.5 38.5s-38.5 68.5 -38.5 128.5v251l-57 29v24c23.333 8 47.333 14 72 18s46.334 6 65.001 6h51l-8 -73v-213
c0 -46.667 7.83301 -79.667 23.5 -99s37.5 -29 65.5 -29c14 0 27.667 2 41 6s24.666 8.33301 33.999 13v318zM419.001 606.999c0 -16 -5.33301 -29.333 -16 -40s-23.334 -16 -38.001 -16c-16 0 -28.667 5 -38 15s-14 22.667 -14 38s5.16699 28.833 15.5 40.5
s23.5 17.5 39.5 17.5c14.667 0 26.834 -5 36.501 -15s14.5 -23.333 14.5 -40zM247.001 606.999c0 -16 -5.33301 -29.333 -16 -40s-23.334 -16 -38.001 -16c-16 0 -28.667 5 -38 15s-14 22.667 -14 38s5.16699 28.833 15.5 40.5s23.5 17.5 39.5 17.5
c14.667 0 26.834 -5 36.501 -15s14.5 -23.333 14.5 -40z" />
    <glyph glyph-name="yacute" unicode="&#xfd;" horiz-adv-x="418" 
d="M-29 480l228.001 0.00195312v-30l-47 -26l96 -269h1l82 267l-50 26v32h162v-30l-27 -25l-143 -386c-42 -114.667 -82 -190.834 -120 -228.501s-70.667 -56.5 -98 -56.5c-24.667 0 -42.834 7.16699 -54.501 21.5s-17.5 39.166 -17.5 74.499
c8.66699 -2 17.5 -3.5 26.5 -4.5s18.167 -1.5 27.5 -1.5c18.667 0 42 12.333 70 37s50.333 61.667 67 111l12 35l-171 392l-44 29v32zM322.001 658.002c0 -26.667 -19.668 -56.501 -59.001 -89.501s-70.666 -49.5 -93.999 -49.5l-13 8c16.667 20.667 33 48.167 49 82.5
s26.333 66.5 31 96.5c32.667 0 55.167 -4.16699 67.5 -12.5s18.5 -20.166 18.5 -35.499z" />
    <glyph glyph-name="thorn" unicode="&#xfe;" horiz-adv-x="553" 
d="M207 387l-0.000976562 -322.998c8.66699 -2.66699 17.5 -4.83398 26.5 -6.50098s18.833 -2.5 29.5 -2.5c32.667 0 62.167 15.333 88.5 46s39.5 78.667 39.5 144c0 54 -11.667 93.667 -35 119s-50 38 -80 38c-13.333 0 -25.666 -1.33301 -36.999 -4
s-22 -6.33398 -32 -11.001zM208.999 646.002l-0.000976562 -213.999c16.667 16 36 28.667 58 38s44.667 14 68 14c54 0 98.333 -17.833 133 -53.5s52 -89.834 52 -162.501c0 -90.667 -25 -159.834 -75 -207.501s-108 -71.5 -174 -71.5c-11.333 0 -22.5 1.16699 -33.5 3.5
s-20.833 4.83301 -29.5 7.5v-190l65 -17v-23c-18.667 -6 -39.5 -10.333 -62.5 -13s-51.5 -4 -85.5 -4c-14.667 0 -30.5 0.833008 -47.5 2.5s-31.833 3.83398 -44.5 6.50098v20c12.667 5.33301 24.5 13.5 35.5 24.5s16.5 23.167 16.5 36.5v799l-63 29v25
c23.333 8 48.333 13.833 75 17.5s49.334 5.5 68.001 5.5h51z" />
    <glyph glyph-name="ydieresis" unicode="&#xff;" horiz-adv-x="418" 
d="M-29 480l228.001 0.00195312v-30l-47 -26l96 -269h1l82 267l-50 26v32h162v-30l-27 -25l-143 -386c-42 -114.667 -82 -190.834 -120 -228.501s-70.667 -56.5 -98 -56.5c-24.667 0 -42.834 7.16699 -54.501 21.5s-17.5 39.166 -17.5 74.499
c8.66699 -2 17.5 -3.5 26.5 -4.5s18.167 -1.5 27.5 -1.5c18.667 0 42 12.333 70 37s50.333 61.667 67 111l12 35l-171 392l-44 29v32zM366.001 607.002c0 -16 -5.33301 -29.333 -16 -40s-23.334 -16 -38.001 -16c-16 0 -28.667 5 -38 15s-14 22.667 -14 38
s5.16699 28.833 15.5 40.5s23.5 17.5 39.5 17.5c14.667 0 26.834 -5 36.501 -15s14.5 -23.333 14.5 -40zM194.001 607.002c0 -16 -5.33301 -29.333 -16 -40s-23.334 -16 -38.001 -16c-16 0 -28.667 5 -38 15s-14 22.667 -14 38s5.16699 28.833 15.5 40.5
s23.5 17.5 39.5 17.5c14.667 0 26.834 -5 36.501 -15s14.5 -23.333 14.5 -40z" />
    <glyph glyph-name="Amacron" unicode="&#x100;" horiz-adv-x="591" 
d="M48 87l194 550l131 13l170 -598l53 -19v-26c-16.667 -5.33301 -35.5 -9.5 -56.5 -12.5s-41.833 -4.5 -62.5 -4.5c-20 0 -40 0.666992 -60 2s-39.333 4 -58 8v23c16 5.33301 26.833 13.166 32.5 23.499s6.83398 22.166 3.50098 35.499l-29 106h-189l-37 -137l60 -18v-26
c-18.667 -6 -38.334 -10.333 -59.001 -13s-43.334 -4 -68.001 -4c-13.333 0 -27.166 0.833008 -41.499 2.5s-28.5 4.16699 -42.5 7.5v23c16 6.66699 28.333 14.334 37 23.001s16 22.334 22 41.001zM351 254l-69 279h-1l-86 -279h156zM435 720h-266v74h266v-74z" />
    <glyph glyph-name="amacron" unicode="&#x101;" horiz-adv-x="483" 
d="M455 39c-8.66699 -10 -22.501 -20.501 -41.501 -31.501s-37.167 -19.5 -54.5 -25.5c-10.667 6 -20.834 13.333 -30.501 22s-18.167 18 -25.5 28c-12 -10.667 -31.167 -21 -57.5 -31s-51.5 -15 -75.5 -15c-42 0 -75.5 10.667 -100.5 32s-37.5 49 -37.5 83
c0 44 23 81.5 69 112.5s111.667 46.5 197 46.5v25c0 48.667 -7 81.667 -21 99s-34.333 26 -61 26c-24 0 -50 -6.83301 -78 -20.5s-53 -31.5 -75 -53.5c-2 8 -3.83301 16.333 -5.5 25s-2.5 17.334 -2.5 26.001c0 31.333 13 55.833 39 73.5s72.333 26.5 139 26.5
c61.333 0 107.833 -12.667 139.5 -38s47.5 -59 47.5 -101c0 -12 -0.5 -28.5 -1.5 -49.5l-2.5 -53.5l-4 -155c4.66699 -8.66699 10.834 -17.667 18.501 -27s15.834 -17.333 24.501 -24zM298.999 72.999l0.000976562 134.001c-46.667 0 -82.834 -9 -108.501 -27
s-38.5 -39.333 -38.5 -64c0 -18.667 6.33301 -33.5 19 -44.5s30 -16.5 52 -16.5c12.667 0 26 1.66699 40 5s26 7.66602 36 12.999zM375 570h-266v74h266v-74z" />
    <glyph glyph-name="Abreve" unicode="&#x102;" horiz-adv-x="591" 
d="M48 87l194 550l131 13l170 -598l53 -19v-26c-16.667 -5.33301 -35.5 -9.5 -56.5 -12.5s-41.833 -4.5 -62.5 -4.5c-20 0 -40 0.666992 -60 2s-39.333 4 -58 8v23c16 5.33301 26.833 13.166 32.5 23.499s6.83398 22.166 3.50098 35.499l-29 106h-189l-37 -137l60 -18v-26
c-18.667 -6 -38.334 -10.333 -59.001 -13s-43.334 -4 -68.001 -4c-13.333 0 -27.166 0.833008 -41.499 2.5s-28.5 4.16699 -42.5 7.5v23c16 6.66699 28.333 14.334 37 23.001s16 22.334 22 41.001zM351 254l-69 279h-1l-86 -279h156zM296 679c-33.333 0 -65 12.5 -95 37.5
s-55.333 60.167 -76 105.5c12 7.33301 22.5 13.333 31.5 18s21.5 8.66699 37.5 12c14.667 -36 31.667 -63 51 -81s39 -27 59 -27c20.667 0 40.167 9.33301 58.5 28s34.833 46 49.5 82c10.667 -4.66699 20 -10.5 28 -17.5s14.667 -15.167 20 -24.5
c-14.667 -38 -37.167 -69.667 -67.5 -95s-62.5 -38 -96.5 -38z" />
    <glyph glyph-name="abreve" unicode="&#x103;" horiz-adv-x="483" 
d="M455 39c-8.66699 -10 -22.501 -20.501 -41.501 -31.501s-37.167 -19.5 -54.5 -25.5c-10.667 6 -20.834 13.333 -30.501 22s-18.167 18 -25.5 28c-12 -10.667 -31.167 -21 -57.5 -31s-51.5 -15 -75.5 -15c-42 0 -75.5 10.667 -100.5 32s-37.5 49 -37.5 83
c0 44 23 81.5 69 112.5s111.667 46.5 197 46.5v25c0 48.667 -7 81.667 -21 99s-34.333 26 -61 26c-24 0 -50 -6.83301 -78 -20.5s-53 -31.5 -75 -53.5c-2 8 -3.83301 16.333 -5.5 25s-2.5 17.334 -2.5 26.001c0 31.333 13 55.833 39 73.5s72.333 26.5 139 26.5
c61.333 0 107.833 -12.667 139.5 -38s47.5 -59 47.5 -101c0 -12 -0.5 -28.5 -1.5 -49.5l-2.5 -53.5l-4 -155c4.66699 -8.66699 10.834 -17.667 18.501 -27s15.834 -17.333 24.501 -24zM298.999 72.999l0.000976562 134.001c-46.667 0 -82.834 -9 -108.501 -27
s-38.5 -39.333 -38.5 -64c0 -18.667 6.33301 -33.5 19 -44.5s30 -16.5 52 -16.5c12.667 0 26 1.66699 40 5s26 7.66602 36 12.999zM245 529c-33.333 0 -65 12.5 -95 37.5s-55.333 60.167 -76 105.5c12 7.33301 22.5 13.333 31.5 18s21.5 8.66699 37.5 12
c14.667 -36 31.667 -63 51 -81s39 -27 59 -27c20.667 0 40.167 9.33301 58.5 28s34.833 46 49.5 82c10.667 -4.66699 20 -10.5 28 -17.5s14.667 -15.167 20 -24.5c-14.667 -38 -37.167 -69.667 -67.5 -95s-62.5 -38 -96.5 -38z" />
    <glyph glyph-name="Aogonek" unicode="&#x104;" horiz-adv-x="591" 
d="M48 87l194.001 550.001l131 13l170 -598l53 -19v-26c-11.333 -3.33301 -24 -6.5 -38 -9.5s-28.333 -4.83301 -43 -5.5l-37 -48c-6.66699 -8 -12.5 -17.5 -17.5 -28.5s-7.5 -21.5 -7.5 -31.5c0 -15.333 4.5 -27.333 13.5 -36s20.833 -13 35.5 -13
c13.333 0 26.666 1.66699 39.999 5s26.333 7.66602 39 12.999c0 -21.333 -8.5 -39 -25.5 -53s-41.167 -21 -72.5 -21c-32.667 0 -58.667 7.83301 -78 23.5s-29 37.834 -29 66.501c0 16.667 4.83301 32.667 14.5 48s22.5 29.333 38.5 42l36 31
c-18 0.666992 -36 1.66699 -54 3s-35.333 3.66602 -52 6.99902v23c16 5.33301 26.833 13.166 32.5 23.499s6.83398 22.166 3.50098 35.499l-29 106h-189l-37 -137l60 -18v-26c-18.667 -6 -38.334 -10.333 -59.001 -13s-43.334 -4 -68.001 -4
c-13.333 0 -27.166 0.833008 -41.499 2.5s-28.5 4.16699 -42.5 7.5v23c16 6.66699 28.333 14.334 37 23.001s16 22.334 22 41.001zM351.001 254.001l-69 279h-1l-86 -279h156z" />
    <glyph glyph-name="aogonek" unicode="&#x105;" horiz-adv-x="483" 
d="M455 39c-5.33301 -6 -12.501 -12.333 -21.501 -19s-18.833 -12.667 -29.5 -18l-45 -58c-6.66699 -8 -12.5 -17.5 -17.5 -28.5s-7.5 -21.5 -7.5 -31.5c0 -15.333 4.5 -27.333 13.5 -36s20.833 -13 35.5 -13c13.333 0 26.666 1.66699 39.999 5s26.333 7.66602 39 12.999
c0 -21.333 -8.5 -39 -25.5 -53s-41.167 -21 -72.5 -21c-32.667 0 -58.667 7.83301 -78 23.5s-29 37.834 -29 66.501c0 16.667 4.83301 32.667 14.5 48s22.5 29.333 38.5 42l36 31c-8 5.33301 -15.667 11.666 -23 18.999s-14 15 -20 23c-12 -10.667 -31.167 -21 -57.5 -31
s-51.5 -15 -75.5 -15c-42 0 -75.5 10.667 -100.5 32s-37.5 49 -37.5 83c0 44 23 81.5 69 112.5s111.667 46.5 197 46.5v25c0 48.667 -7 81.667 -21 99s-34.333 26 -61 26c-24 0 -50 -6.83301 -78 -20.5s-53 -31.5 -75 -53.5c-2 8 -3.83301 16.333 -5.5 25
s-2.5 17.334 -2.5 26.001c0 31.333 13 55.833 39 73.5s72.333 26.5 139 26.5c61.333 0 107.833 -12.667 139.5 -38s47.5 -59 47.5 -101c0 -12 -0.5 -28.5 -1.5 -49.5l-2.5 -53.5l-4 -155c4.66699 -8.66699 10.834 -17.667 18.501 -27s15.834 -17.333 24.501 -24zM298.999 73
l0.000976562 134.001c-46.667 0 -82.834 -9 -108.501 -27s-38.5 -39.333 -38.5 -64c0 -18.667 6.33301 -33.5 19 -44.5s30 -16.5 52 -16.5c12.667 0 26 1.66699 40 5s26 7.66602 36 12.999z" />
    <glyph glyph-name="Cacute" unicode="&#x106;" horiz-adv-x="559" 
d="M520 623l-8.99902 -159.999h-34l-5 24c-6.66699 28.667 -19 50.5 -37 65.5s-45 22.5 -81 22.5c-42.667 0 -81.5 -21.333 -116.5 -64s-52.5 -107.334 -52.5 -194.001c0 -89.333 17.5 -154.5 52.5 -195.5s73.167 -61.5 114.5 -61.5c36 0 63.167 6 81.5 18
s33.166 31.333 44.499 58l11 25h34l-10 -146c-19.333 -9.33301 -45.5 -17 -78.5 -23s-70.5 -9 -112.5 -9c-79.333 0 -146.5 27.167 -201.5 81.5s-82.5 133.833 -82.5 238.5s31.5 189 94.5 253s137.833 96 224.5 96c38 0 69.833 -2.33301 95.5 -7s48.167 -12 67.5 -22z
M432.001 808.001c0 -26.667 -19.668 -56.501 -59.001 -89.501s-70.666 -49.5 -93.999 -49.5l-13 8c16.667 20.667 33 48.167 49 82.5s26.333 66.5 31 96.5c32.667 0 55.167 -4.16699 67.5 -12.5s18.5 -20.166 18.5 -35.499z" />
    <glyph glyph-name="cacute" unicode="&#x107;" horiz-adv-x="416" 
d="M404 71c0 -24.667 -12.832 -45.166 -38.499 -61.499s-64.167 -24.5 -115.5 -24.5c-61.333 0 -112.833 20.833 -154.5 62.5s-62.5 97.834 -62.5 168.501c0 82.667 24.167 148.167 72.5 196.5s108.833 72.5 181.5 72.5c44 0 74.5 -6 91.5 -18s25.5 -29 25.5 -51
c0 -14 -2.5 -27.167 -7.5 -39.5s-11.5 -23.5 -19.5 -33.5c-16.667 19.333 -34.667 34.666 -54 45.999s-39.333 17 -60 17c-26.667 0 -50.167 -14 -70.5 -42s-30.5 -71 -30.5 -129c0 -52 12.167 -92.167 36.5 -120.5s53.5 -42.5 87.5 -42.5c19.333 0 38.666 3 57.999 9
s37.333 13.667 54 23c2 -4.66699 3.5 -9.83398 4.5 -15.501s1.5 -11.5 1.5 -17.5zM358.001 658.001c0 -26.667 -19.668 -56.501 -59.001 -89.501s-70.666 -49.5 -93.999 -49.5l-13 8c16.667 20.667 33 48.167 49 82.5s26.333 66.5 31 96.5
c32.667 0 55.167 -4.16699 67.5 -12.5s18.5 -20.166 18.5 -35.499z" />
    <glyph glyph-name="Ccircumflex" unicode="&#x108;" horiz-adv-x="559" 
d="M520 623l-8.99902 -159.999h-34l-5 24c-6.66699 28.667 -19 50.5 -37 65.5s-45 22.5 -81 22.5c-42.667 0 -81.5 -21.333 -116.5 -64s-52.5 -107.334 -52.5 -194.001c0 -89.333 17.5 -154.5 52.5 -195.5s73.167 -61.5 114.5 -61.5c36 0 63.167 6 81.5 18
s33.166 31.333 44.499 58l11 25h34l-10 -146c-19.333 -9.33301 -45.5 -17 -78.5 -23s-70.5 -9 -112.5 -9c-79.333 0 -146.5 27.167 -201.5 81.5s-82.5 133.833 -82.5 238.5s31.5 189 94.5 253s137.833 96 224.5 96c38 0 69.833 -2.33301 95.5 -7s48.167 -12 67.5 -22z
M323.001 850.001l45.001 8l144 -161l-16 -17c-20.667 0 -39.5 3.33301 -56.5 10s-33.5 18 -49.5 34c-9.33301 8.66699 -18 18.5 -26 29.5s-15 22.167 -21 33.5l-113 -108c-10.667 4.66699 -19.834 10.667 -27.501 18s-14.167 15.333 -19.5 24z" />
    <glyph glyph-name="ccircumflex" unicode="&#x109;" horiz-adv-x="416" 
d="M404 71c0 -24.667 -12.832 -45.166 -38.499 -61.499s-64.167 -24.5 -115.5 -24.5c-61.333 0 -112.833 20.833 -154.5 62.5s-62.5 97.834 -62.5 168.501c0 82.667 24.167 148.167 72.5 196.5s108.833 72.5 181.5 72.5c44 0 74.5 -6 91.5 -18s25.5 -29 25.5 -51
c0 -14 -2.5 -27.167 -7.5 -39.5s-11.5 -23.5 -19.5 -33.5c-16.667 19.333 -34.667 34.666 -54 45.999s-39.333 17 -60 17c-26.667 0 -50.167 -14 -70.5 -42s-30.5 -71 -30.5 -129c0 -52 12.167 -92.167 36.5 -120.5s53.5 -42.5 87.5 -42.5c19.333 0 38.666 3 57.999 9
s37.333 13.667 54 23c2 -4.66699 3.5 -9.83398 4.5 -15.501s1.5 -11.5 1.5 -17.5zM236.001 700.001l45.001 8l144 -161l-16 -17c-20.667 0 -39.5 3.33301 -56.5 10s-33.5 18 -49.5 34c-9.33301 8.66699 -18 18.5 -26 29.5s-15 22.167 -21 33.5l-113 -108
c-10.667 4.66699 -19.834 10.667 -27.501 18s-14.167 15.333 -19.5 24z" />
    <glyph glyph-name="Cdotaccent" unicode="&#x10a;" horiz-adv-x="559" 
d="M520 623l-8.99902 -159.999h-34l-5 24c-6.66699 28.667 -19 50.5 -37 65.5s-45 22.5 -81 22.5c-42.667 0 -81.5 -21.333 -116.5 -64s-52.5 -107.334 -52.5 -194.001c0 -89.333 17.5 -154.5 52.5 -195.5s73.167 -61.5 114.5 -61.5c36 0 63.167 6 81.5 18
s33.166 31.333 44.499 58l11 25h34l-10 -146c-19.333 -9.33301 -45.5 -17 -78.5 -23s-70.5 -9 -112.5 -9c-79.333 0 -146.5 27.167 -201.5 81.5s-82.5 133.833 -82.5 238.5s31.5 189 94.5 253s137.833 96 224.5 96c38 0 69.833 -2.33301 95.5 -7s48.167 -12 67.5 -22z
M403.001 764.001c0 -14 -5.66699 -26.833 -17 -38.5s-24 -17.5 -38 -17.5c-16 0 -28.667 5 -38 15s-14 22.667 -14 38c0 14 5.5 27.167 16.5 39.5s24.5 18.5 40.5 18.5c14.667 0 26.667 -5.33301 36 -16s14 -23.667 14 -39z" />
    <glyph glyph-name="cdotaccent" unicode="&#x10b;" horiz-adv-x="416" 
d="M404 71c0 -24.667 -12.832 -45.166 -38.499 -61.499s-64.167 -24.5 -115.5 -24.5c-61.333 0 -112.833 20.833 -154.5 62.5s-62.5 97.834 -62.5 168.501c0 82.667 24.167 148.167 72.5 196.5s108.833 72.5 181.5 72.5c44 0 74.5 -6 91.5 -18s25.5 -29 25.5 -51
c0 -14 -2.5 -27.167 -7.5 -39.5s-11.5 -23.5 -19.5 -33.5c-16.667 19.333 -34.667 34.666 -54 45.999s-39.333 17 -60 17c-26.667 0 -50.167 -14 -70.5 -42s-30.5 -71 -30.5 -129c0 -52 12.167 -92.167 36.5 -120.5s53.5 -42.5 87.5 -42.5c19.333 0 38.666 3 57.999 9
s37.333 13.667 54 23c2 -4.66699 3.5 -9.83398 4.5 -15.501s1.5 -11.5 1.5 -17.5zM321.001 607.001c0 -14 -5.66699 -26.833 -17 -38.5s-24 -17.5 -38 -17.5c-16 0 -28.667 5 -38 15s-14 22.667 -14 38c0 14 5.5 27.167 16.5 39.5s24.5 18.5 40.5 18.5
c14.667 0 26.667 -5.33301 36 -16s14 -23.667 14 -39z" />
    <glyph glyph-name="Ccaron" unicode="&#x10c;" horiz-adv-x="559" 
d="M520 623l-8.99902 -159.999h-34l-5 24c-6.66699 28.667 -19 50.5 -37 65.5s-45 22.5 -81 22.5c-42.667 0 -81.5 -21.333 -116.5 -64s-52.5 -107.334 -52.5 -194.001c0 -89.333 17.5 -154.5 52.5 -195.5s73.167 -61.5 114.5 -61.5c36 0 63.167 6 81.5 18
s33.166 31.333 44.499 58l11 25h34l-10 -146c-19.333 -9.33301 -45.5 -17 -78.5 -23s-70.5 -9 -112.5 -9c-79.333 0 -146.5 27.167 -201.5 81.5s-82.5 133.833 -82.5 238.5s31.5 189 94.5 253s137.833 96 224.5 96c38 0 69.833 -2.33301 95.5 -7s48.167 -12 67.5 -22z
M319.001 679.001l-143 155.999c12 8 23.667 14.333 35 19s25.333 9.33398 42 14.001l97 -117l112 117c10.667 -4.66699 20 -10.667 28 -18s14.667 -15.333 20 -24l-144 -141z" />
    <glyph glyph-name="ccaron" unicode="&#x10d;" horiz-adv-x="416" 
d="M404 71c0 -24.667 -12.832 -45.166 -38.499 -61.499s-64.167 -24.5 -115.5 -24.5c-61.333 0 -112.833 20.833 -154.5 62.5s-62.5 97.834 -62.5 168.501c0 82.667 24.167 148.167 72.5 196.5s108.833 72.5 181.5 72.5c44 0 74.5 -6 91.5 -18s25.5 -29 25.5 -51
c0 -14 -2.5 -27.167 -7.5 -39.5s-11.5 -23.5 -19.5 -33.5c-16.667 19.333 -34.667 34.666 -54 45.999s-39.333 17 -60 17c-26.667 0 -50.167 -14 -70.5 -42s-30.5 -71 -30.5 -129c0 -52 12.167 -92.167 36.5 -120.5s53.5 -42.5 87.5 -42.5c19.333 0 38.666 3 57.999 9
s37.333 13.667 54 23c2 -4.66699 3.5 -9.83398 4.5 -15.501s1.5 -11.5 1.5 -17.5zM235.001 526.001l-143 155.999c12 8 23.667 14.333 35 19s25.333 9.33398 42 14.001l97 -117l112 117c10.667 -4.66699 20 -10.667 28 -18s14.667 -15.333 20 -24l-144 -141z" />
    <glyph glyph-name="Dcaron" unicode="&#x10e;" horiz-adv-x="682" 
d="M644 349c0 -110.667 -38.335 -198.166 -115.002 -262.499s-167.334 -96.5 -272.001 -96.5c-44 0 -82.5 0.5 -115.5 1.5s-67.167 3.83301 -102.5 8.5v23c18.667 7.33301 32.834 17.5 42.501 30.5s14.5 33.167 14.5 60.5v466l-63 23v29
c39.333 5.33301 77.333 9.16602 114 11.499s79.334 3.5 128.001 3.5c114.667 0 204.834 -25.833 270.501 -77.5s98.5 -125.167 98.5 -220.5zM499.998 330.001c0 79.333 -22.5 139.833 -67.5 181.5s-98.5 62.5 -160.5 62.5c-6.66699 0 -14 -0.166992 -22 -0.5
s-16 -0.833008 -24 -1.5v-506c8.66699 -1.33301 16.5 -2.33301 23.5 -3s14.167 -1 21.5 -1c61.333 0 114.833 21.833 160.5 65.5s68.5 111.167 68.5 202.5zM316.998 679.001l-143 155.999c12 8 23.667 14.333 35 19s25.333 9.33398 42 14.001l97 -117l112 117
c10.667 -4.66699 20 -10.667 28 -18s14.667 -15.333 20 -24l-144 -141z" />
    <glyph glyph-name="dcaron" unicode="&#x10f;" horiz-adv-x="542" 
d="M347 642l-67.002 29v25c23.333 8 48.833 14 76.5 18s50.834 5.66699 69.501 5h51l-7 -73v-552c4.66699 -10 10.334 -20.167 17.001 -30.5s14.667 -19.833 24 -28.5c-12.667 -10 -28 -19.667 -46 -29s-36.333 -17.333 -55 -24c-10.667 7.33301 -21.334 16.5 -32.001 27.5
s-19 21.167 -25 30.5c-16 -15.333 -35.667 -28 -59 -38s-45.666 -15 -66.999 -15c-56 0 -102.333 19.333 -139 58s-55 92.667 -55 162c0 89.333 24.333 157.833 73 205.5s107 71.5 175 71.5c10.667 0 22.667 -0.5 36 -1.5s23.333 -2.5 30 -4.5v164zM347.998 85v325
c-7.33301 2 -16.833 3.66699 -28.5 5s-23.167 2 -34.5 2c-32.667 0 -61.334 -15.333 -86.001 -46s-37 -79.667 -37 -147c0 -54 11 -94.5 33 -121.5s46.333 -40.5 73 -40.5c14.667 0 29.334 2.16699 44.001 6.5s26.667 9.83301 36 16.5zM632.998 646
c0 -28.667 -11.5 -57.168 -34.5 -85.501s-41.833 -42.5 -56.5 -42.5c-4 0 -7.33301 0.5 -10 1.5s-5.33398 2.83301 -8.00098 5.5c8 14 14.167 29 18.5 45s6.5 32.333 6.5 49l-34 41c8 12.667 17.5 22.834 28.5 30.501s22.833 11.5 35.5 11.5c14.667 0 27.334 -5 38.001 -15
s16 -23.667 16 -41z" />
    <glyph glyph-name="Dcroat" unicode="&#x110;" horiz-adv-x="680" 
d="M642 349c0 -110.667 -38.335 -198.166 -115.002 -262.499s-167.334 -96.5 -272.001 -96.5c-44 0 -82.167 0.5 -114.5 1.5s-66.166 3.83301 -101.499 8.5v23c18.667 7.33301 32.834 17.5 42.501 30.5s14.5 33.167 14.5 60.5v184h-77v58h77v224l-63 23v29
c39.333 5.33301 77 9.16602 113 11.499s78.333 3.5 127 3.5c114.667 0 204.834 -25.833 270.501 -77.5s98.5 -125.167 98.5 -220.5zM497.998 330.001c0 79.333 -22.5 139.833 -67.5 181.5s-98.5 62.5 -160.5 62.5c-6.66699 0 -14 -0.166992 -22 -0.5s-16 -0.833008 -24 -1.5
v-216h129v-58h-129v-232c8.66699 -1.33301 16.5 -2.33301 23.5 -3s14.167 -1 21.5 -1c61.333 0 114.833 21.833 160.5 65.5s68.5 111.167 68.5 202.5z" />
    <glyph glyph-name="dcroat" unicode="&#x111;" horiz-adv-x="542" 
d="M347 642l-67.0029 29v25c23.333 8 48.833 14 76.5 18s50.834 5.66699 69.501 5h51l-7 -73v-23l34.5 2c11.667 0.666992 23.5 1.66699 35.5 3c0 -21.333 -3.66699 -38 -11 -50s-22 -18.333 -44 -19l-15 -1v-464c4.66699 -10 10.334 -20.167 17.001 -30.5
s14.667 -19.833 24 -28.5c-12.667 -10 -28 -19.667 -46 -29s-36.333 -17.333 -55 -24c-10.667 7.33301 -21.334 16.5 -32.001 27.5s-19 21.167 -25 30.5c-16 -15.333 -35.667 -28 -59 -38s-45.666 -15 -66.999 -15c-56 0 -102.333 19.333 -139 58s-55 92.667 -55 162
c0 89.333 24.333 157.833 73 205.5s107 71.5 175 71.5c10.667 0 22.667 -0.5 36 -1.5s23.333 -2.5 30 -4.5v78c-23.333 -0.666992 -46 -1.66699 -68 -3s-41.333 -3 -58 -5c0 22.667 3.83301 40.167 11.5 52.5s24.834 18.5 51.501 18.5l63 1v22zM347.997 85v325
c-7.33301 2 -16.833 3.66699 -28.5 5s-23.167 2 -34.5 2c-32.667 0 -61.334 -15.333 -86.001 -46s-37 -79.667 -37 -147c0 -54 11 -94.5 33 -121.5s46.333 -40.5 73 -40.5c14.667 0 29.334 2.16699 44.001 6.5s26.667 9.83301 36 16.5z" />
    <glyph glyph-name="Emacron" unicode="&#x112;" horiz-adv-x="489" 
d="M472 141l-18 -141.002h-415v27c20 7.33301 34.5 17.333 43.5 30s13.5 31.334 13.5 56.001v468l-63 27v32h417l-8 -162h-37l-3 19c-4 26.667 -12.167 45.167 -24.5 55.5s-32.833 15.5 -61.5 15.5h-90v-216h94c20.667 0 36.167 2.83301 46.5 8.5s17.5 14.834 21.5 27.501
l7 22h34v-196h-34l-4 22c-3.33301 16.667 -9 29 -17 37s-20 12 -36 12h-112v-215h111c26.667 0 46.167 4.16699 58.5 12.5s22.5 20.833 30.5 37.5l10 21h36zM396 719.998h-266v74h266v-74z" />
    <glyph glyph-name="emacron" unicode="&#x113;" horiz-adv-x="478" 
d="M450 298c0 -10.667 -0.168945 -21.5 -0.501953 -32.5s-0.833008 -23.833 -1.5 -38.5h-289c0 -46 14 -83 42 -111s62.333 -42 103 -42c21.333 0 44.833 3.66699 70.5 11s47.834 15.666 66.501 24.999c0.666992 -4 1.33398 -8.66699 2.00098 -14s1 -10.666 1 -15.999
c0 -24 -15.833 -45.833 -47.5 -65.5s-77.167 -29.5 -136.5 -29.5c-66 0 -120.333 20.667 -163 62s-64 97.333 -64 168c0 88.667 22.5 156.167 67.5 202.5s98.5 69.5 160.5 69.5c58 0 104 -17 138 -51s51 -80 51 -138zM334.998 289c0 48 -8 82.499 -24 103.499
s-36.667 31.5 -62 31.5c-22.667 0 -43.667 -12.667 -63 -38s-29 -57.666 -29 -96.999h178zM394.998 569.999h-266v74h266v-74z" />
    <glyph glyph-name="Ebreve" unicode="&#x114;" horiz-adv-x="489" 
d="M472 141l-18 -141.002h-415v27c20 7.33301 34.5 17.333 43.5 30s13.5 31.334 13.5 56.001v468l-63 27v32h417l-8 -162h-37l-3 19c-4 26.667 -12.167 45.167 -24.5 55.5s-32.833 15.5 -61.5 15.5h-90v-216h94c20.667 0 36.167 2.83301 46.5 8.5s17.5 14.834 21.5 27.501
l7 22h34v-196h-34l-4 22c-3.33301 16.667 -9 29 -17 37s-20 12 -36 12h-112v-215h111c26.667 0 46.167 4.16699 58.5 12.5s22.5 20.833 30.5 37.5l10 21h36zM265 678.998c-33.333 0 -65 12.5 -95 37.5s-55.333 60.167 -76 105.5c12 7.33301 22.5 13.333 31.5 18
s21.5 8.66699 37.5 12c14.667 -36 31.667 -63 51 -81s39 -27 59 -27c20.667 0 40.167 9.33301 58.5 28s34.833 46 49.5 82c10.667 -4.66699 20 -10.5 28 -17.5s14.667 -15.167 20 -24.5c-14.667 -38 -37.167 -69.667 -67.5 -95s-62.5 -38 -96.5 -38z" />
    <glyph glyph-name="ebreve" unicode="&#x115;" horiz-adv-x="478" 
d="M450 298c0 -10.667 -0.168945 -21.5 -0.501953 -32.5s-0.833008 -23.833 -1.5 -38.5h-289c0 -46 14 -83 42 -111s62.333 -42 103 -42c21.333 0 44.833 3.66699 70.5 11s47.834 15.666 66.501 24.999c0.666992 -4 1.33398 -8.66699 2.00098 -14s1 -10.666 1 -15.999
c0 -24 -15.833 -45.833 -47.5 -65.5s-77.167 -29.5 -136.5 -29.5c-66 0 -120.333 20.667 -163 62s-64 97.333 -64 168c0 88.667 22.5 156.167 67.5 202.5s98.5 69.5 160.5 69.5c58 0 104 -17 138 -51s51 -80 51 -138zM334.998 289c0 48 -8 82.499 -24 103.499
s-36.667 31.5 -62 31.5c-22.667 0 -43.667 -12.667 -63 -38s-29 -57.666 -29 -96.999h178zM263.998 528.999c-33.333 0 -65 12.5 -95 37.5s-55.333 60.167 -76 105.5c12 7.33301 22.5 13.333 31.5 18s21.5 8.66699 37.5 12c14.667 -36 31.667 -63 51 -81s39 -27 59 -27
c20.667 0 40.167 9.33301 58.5 28s34.833 46 49.5 82c10.667 -4.66699 20 -10.5 28 -17.5s14.667 -15.167 20 -24.5c-14.667 -38 -37.167 -69.667 -67.5 -95s-62.5 -38 -96.5 -38z" />
    <glyph glyph-name="Edotaccent" unicode="&#x116;" horiz-adv-x="489" 
d="M472 141l-18 -141.002h-415v27c20 7.33301 34.5 17.333 43.5 30s13.5 31.334 13.5 56.001v468l-63 27v32h417l-8 -162h-37l-3 19c-4 26.667 -12.167 45.167 -24.5 55.5s-32.833 15.5 -61.5 15.5h-90v-216h94c20.667 0 36.167 2.83301 46.5 8.5s17.5 14.834 21.5 27.501
l7 22h34v-196h-34l-4 22c-3.33301 16.667 -9 29 -17 37s-20 12 -36 12h-112v-215h111c26.667 0 46.167 4.16699 58.5 12.5s22.5 20.833 30.5 37.5l10 21h36zM327 758.998c0 -14 -5.66699 -26.833 -17 -38.5s-24 -17.5 -38 -17.5c-16 0 -28.667 5 -38 15s-14 22.667 -14 38
c0 14 5.5 27.167 16.5 39.5s24.5 18.5 40.5 18.5c14.667 0 26.667 -5.33301 36 -16s14 -23.667 14 -39z" />
    <glyph glyph-name="edotaccent" unicode="&#x117;" horiz-adv-x="478" 
d="M450 298c0 -10.667 -0.168945 -21.5 -0.501953 -32.5s-0.833008 -23.833 -1.5 -38.5h-289c0 -46 14 -83 42 -111s62.333 -42 103 -42c21.333 0 44.833 3.66699 70.5 11s47.834 15.666 66.501 24.999c0.666992 -4 1.33398 -8.66699 2.00098 -14s1 -10.666 1 -15.999
c0 -24 -15.833 -45.833 -47.5 -65.5s-77.167 -29.5 -136.5 -29.5c-66 0 -120.333 20.667 -163 62s-64 97.333 -64 168c0 88.667 22.5 156.167 67.5 202.5s98.5 69.5 160.5 69.5c58 0 104 -17 138 -51s51 -80 51 -138zM334.998 289c0 48 -8 82.499 -24 103.499
s-36.667 31.5 -62 31.5c-22.667 0 -43.667 -12.667 -63 -38s-29 -57.666 -29 -96.999h178zM317.998 606.999c0 -14 -5.66699 -26.833 -17 -38.5s-24 -17.5 -38 -17.5c-16 0 -28.667 5 -38 15s-14 22.667 -14 38c0 14 5.5 27.167 16.5 39.5s24.5 18.5 40.5 18.5
c14.667 0 26.667 -5.33301 36 -16s14 -23.667 14 -39z" />
    <glyph glyph-name="Eogonek" unicode="&#x118;" horiz-adv-x="489" 
d="M472 141l-17.999 -141.002h-54l-43 -56c-6.66699 -8 -12.5 -17.5 -17.5 -28.5s-7.5 -21.5 -7.5 -31.5c0 -15.333 4.5 -27.333 13.5 -36s20.833 -13 35.5 -13c13.333 0 26.666 1.66699 39.999 5s26.333 7.66602 39 12.999c0 -21.333 -8.5 -39 -25.5 -53
s-41.167 -21 -72.5 -21c-32.667 0 -58.667 7.83301 -78 23.5s-29 37.834 -29 66.501c0 16.667 4.83301 32.667 14.5 48s22.5 29.333 38.5 42l48 41h-317v27c20 7.33301 34.5 17.333 43.5 30s13.5 31.334 13.5 56.001v468l-63 27v32h417l-8 -162h-37l-3 19
c-4 26.667 -12.167 45.167 -24.5 55.5s-32.833 15.5 -61.5 15.5h-90v-216h94c20.667 0 36.167 2.83301 46.5 8.5s17.5 14.834 21.5 27.501l7 22h34v-196h-34l-4 22c-3.33301 16.667 -9 29 -17 37s-20 12 -36 12h-112v-215h111c26.667 0 46.167 4.16699 58.5 12.5
s22.5 20.833 30.5 37.5l10 21h36z" />
    <glyph glyph-name="eogonek" unicode="&#x119;" horiz-adv-x="478" 
d="M450 298c0 -10.667 -0.170898 -21.5 -0.503906 -32.5s-0.833008 -23.833 -1.5 -38.5h-289c0 -46 14 -83 42 -111s62.333 -42 103 -42c21.333 0 44.833 3.66699 70.5 11s47.834 15.666 66.501 24.999c0.666992 -4 1.33398 -8.66699 2.00098 -14s1 -10.666 1 -15.999
c0 -16.667 -7.5 -32.5 -22.5 -47.5s-36.833 -26.833 -65.5 -35.5l-41 -53c-6.66699 -8 -12.5 -17.5 -17.5 -28.5s-7.5 -21.5 -7.5 -31.5c0 -15.333 4.5 -27.333 13.5 -36s20.833 -13 35.5 -13c12.667 0 25.834 1.66699 39.501 5s26.834 7.66602 39.501 12.999
c0 -21.333 -8.5 -39 -25.5 -53s-41.167 -21 -72.5 -21c-33.333 0 -59.5 7.83301 -78.5 23.5s-28.5 37.834 -28.5 66.501c0 16.667 4.83301 32.667 14.5 48s22.167 29.333 37.5 42l32 28c-6 -0.666992 -12.167 -1.16699 -18.5 -1.5s-12.5 -0.5 -18.5 -0.5
c-66 0 -120.333 20.667 -163 62s-64 97.333 -64 168c0 88.667 22.5 156.167 67.5 202.5s98.5 69.5 160.5 69.5c58 0 104 -17 138 -51s51 -80 51 -138zM334.996 289c0 48 -8 82.499 -24 103.499s-36.667 31.5 -62 31.5c-22.667 0 -43.667 -12.667 -63 -38
s-29 -57.666 -29 -96.999h178z" />
    <glyph glyph-name="Ecaron" unicode="&#x11a;" horiz-adv-x="489" 
d="M472 141l-18 -141.002h-415v27c20 7.33301 34.5 17.333 43.5 30s13.5 31.334 13.5 56.001v468l-63 27v32h417l-8 -162h-37l-3 19c-4 26.667 -12.167 45.167 -24.5 55.5s-32.833 15.5 -61.5 15.5h-90v-216h94c20.667 0 36.167 2.83301 46.5 8.5s17.5 14.834 21.5 27.501
l7 22h34v-196h-34l-4 22c-3.33301 16.667 -9 29 -17 37s-20 12 -36 12h-112v-215h111c26.667 0 46.167 4.16699 58.5 12.5s22.5 20.833 30.5 37.5l10 21h36zM247 678.998l-143 155.999c12 8 23.667 14.333 35 19s25.333 9.33398 42 14.001l97 -117l112 117
c10.667 -4.66699 20 -10.667 28 -18s14.667 -15.333 20 -24l-144 -141z" />
    <glyph glyph-name="ecaron" unicode="&#x11b;" horiz-adv-x="478" 
d="M450 298c0 -10.667 -0.168945 -21.5 -0.501953 -32.5s-0.833008 -23.833 -1.5 -38.5h-289c0 -46 14 -83 42 -111s62.333 -42 103 -42c21.333 0 44.833 3.66699 70.5 11s47.834 15.666 66.501 24.999c0.666992 -4 1.33398 -8.66699 2.00098 -14s1 -10.666 1 -15.999
c0 -24 -15.833 -45.833 -47.5 -65.5s-77.167 -29.5 -136.5 -29.5c-66 0 -120.333 20.667 -163 62s-64 97.333 -64 168c0 88.667 22.5 156.167 67.5 202.5s98.5 69.5 160.5 69.5c58 0 104 -17 138 -51s51 -80 51 -138zM334.998 289c0 48 -8 82.499 -24 103.499
s-36.667 31.5 -62 31.5c-22.667 0 -43.667 -12.667 -63 -38s-29 -57.666 -29 -96.999h178zM238.998 525.999l-143 155.999c12 8 23.667 14.333 35 19s25.333 9.33398 42 14.001l97 -117l112 117c10.667 -4.66699 20 -10.667 28 -18s14.667 -15.333 20 -24l-144 -141z" />
    <glyph glyph-name="Gcircumflex" unicode="&#x11c;" horiz-adv-x="622" 
d="M561 206l0.00390625 -218.997c-28.667 0 -51.334 2.5 -68.001 7.5s-30.667 13.833 -42 26.5c-14 -10.667 -33.5 -19.667 -58.5 -27s-51.5 -11 -79.5 -11c-77.333 0 -142.5 27.167 -195.5 81.5s-79.5 131.166 -79.5 230.499c0 110 32.167 197 96.5 261
s146.166 96 245.499 96c35.333 0 67 -2.33301 95 -7s53.333 -12.334 76 -23.001l-12 -159h-34l-6 26c-6.66699 30 -20.167 51.833 -40.5 65.5s-49.5 20.5 -87.5 20.5c-52 0 -96 -21.5 -132 -64.5s-54 -108.833 -54 -197.5c0 -84.667 16.167 -147.834 48.5 -189.501
s71.166 -62.5 116.499 -62.5c15.333 0 30.666 1.66699 45.999 5s28.666 7.33301 39.999 12v181l-59 18v27c23.333 6 45 10.167 65 12.5s41.333 3.5 64 3.5c24.667 0 45 -0.666992 61 -2s33 -4 51 -8v-22c-19.333 -8 -33.666 -18.833 -42.999 -32.5s-14 -30.167 -14 -49.5z
M337.004 852.003l45.001 8l144 -161l-16 -17c-20.667 0 -39.5 3.33301 -56.5 10s-33.5 18 -49.5 34c-9.33301 8.66699 -18 18.5 -26 29.5s-15 22.167 -21 33.5l-113 -108c-10.667 4.66699 -19.834 10.667 -27.501 18s-14.167 15.333 -19.5 24z" />
    <glyph glyph-name="gcircumflex" unicode="&#x11d;" horiz-adv-x="495" 
d="M327 315c0 38.667 -8.16797 67.333 -24.501 86s-34.833 28 -55.5 28c-23.333 0 -43.666 -11.167 -60.999 -33.5s-26 -55.5 -26 -99.5c0 -38 8.16699 -67.167 24.5 -87.5s34.5 -30.5 54.5 -30.5c24 0 44.667 10.833 62 32.5s26 56.5 26 104.5zM111.999 -23.001v1
c-19.333 7.33301 -33.833 17.333 -43.5 30s-14.5 28.667 -14.5 48s7.66699 38 23 56s34 30.333 56 37v1c-25.333 8.66699 -48 25.334 -68 50.001s-30 55.667 -30 93c0 54.667 21 100.667 63 138s93.667 56 155 56c21.333 0 42.666 -3.33301 63.999 -10s37 -14.667 47 -24
c9.33301 10 22.5 18.667 39.5 26s34.5 11 52.5 11c9.33301 0 17.833 -0.666992 25.5 -2s14.5 -3.33301 20.5 -6l-7 -78c-18 4.66699 -36.167 7.83398 -54.5 9.50098s-37.833 2.5 -58.5 2.5v-1c18.667 -10.667 35 -26 49 -46s21 -41 21 -63
c0 -54.667 -20.667 -98.834 -62 -132.501s-93.666 -50.5 -156.999 -50.5c-10.667 0 -21.834 1 -33.501 3s-21.167 4.33301 -28.5 7c-6 -3.33301 -11.5 -8.83301 -16.5 -16.5s-7.5 -15.167 -7.5 -22.5c0 -13.333 5.66699 -23.5 17 -30.5s28.333 -10.167 51 -9.5l127 4
c51.333 1.33301 88.833 -8.33398 112.5 -29.001s35.5 -51.667 35.5 -93c0 -50 -25.333 -93.667 -76 -131s-113.667 -56 -189 -56c-69.333 0 -121.166 11 -155.499 33s-51.5 51 -51.5 87c0 25.333 9 48 27 68s40.333 33.333 67 40zM152.999 -49.001
c-11.333 -6 -20.5 -14.5 -27.5 -25.5s-10.5 -22.833 -10.5 -35.5c0 -18.667 10.667 -34.667 32 -48s52.333 -20 93 -20c48 0 85.333 8.16699 112 24.5s40 35.166 40 56.499c0 14.667 -5.5 26.334 -16.5 35.001s-29.5 13 -55.5 13h-167zM228.999 699.999l45.001 8l144 -161
l-16 -17c-20.667 0 -39.5 3.33301 -56.5 10s-33.5 18 -49.5 34c-9.33301 8.66699 -18 18.5 -26 29.5s-15 22.167 -21 33.5l-113 -108c-10.667 4.66699 -19.834 10.667 -27.501 18s-14.167 15.333 -19.5 24z" />
    <glyph glyph-name="Gbreve" unicode="&#x11e;" horiz-adv-x="622" 
d="M561 206l0.00390625 -218.997c-28.667 0 -51.334 2.5 -68.001 7.5s-30.667 13.833 -42 26.5c-14 -10.667 -33.5 -19.667 -58.5 -27s-51.5 -11 -79.5 -11c-77.333 0 -142.5 27.167 -195.5 81.5s-79.5 131.166 -79.5 230.499c0 110 32.167 197 96.5 261
s146.166 96 245.499 96c35.333 0 67 -2.33301 95 -7s53.333 -12.334 76 -23.001l-12 -159h-34l-6 26c-6.66699 30 -20.167 51.833 -40.5 65.5s-49.5 20.5 -87.5 20.5c-52 0 -96 -21.5 -132 -64.5s-54 -108.833 -54 -197.5c0 -84.667 16.167 -147.834 48.5 -189.501
s71.166 -62.5 116.499 -62.5c15.333 0 30.666 1.66699 45.999 5s28.666 7.33301 39.999 12v181l-59 18v27c23.333 6 45 10.167 65 12.5s41.333 3.5 64 3.5c24.667 0 45 -0.666992 61 -2s33 -4 51 -8v-22c-19.333 -8 -33.666 -18.833 -42.999 -32.5s-14 -30.167 -14 -49.5z
M365.004 681.003c-33.333 0 -65 12.5 -95 37.5s-55.333 60.167 -76 105.5c12 7.33301 22.5 13.333 31.5 18s21.5 8.66699 37.5 12c14.667 -36 31.667 -63 51 -81s39 -27 59 -27c20.667 0 40.167 9.33301 58.5 28s34.833 46 49.5 82c10.667 -4.66699 20 -10.5 28 -17.5
s14.667 -15.167 20 -24.5c-14.667 -38 -37.167 -69.667 -67.5 -95s-62.5 -38 -96.5 -38z" />
    <glyph glyph-name="gbreve" unicode="&#x11f;" horiz-adv-x="495" 
d="M327 315c0 38.667 -8.16797 67.333 -24.501 86s-34.833 28 -55.5 28c-23.333 0 -43.666 -11.167 -60.999 -33.5s-26 -55.5 -26 -99.5c0 -38 8.16699 -67.167 24.5 -87.5s34.5 -30.5 54.5 -30.5c24 0 44.667 10.833 62 32.5s26 56.5 26 104.5zM111.999 -23.001v1
c-19.333 7.33301 -33.833 17.333 -43.5 30s-14.5 28.667 -14.5 48s7.66699 38 23 56s34 30.333 56 37v1c-25.333 8.66699 -48 25.334 -68 50.001s-30 55.667 -30 93c0 54.667 21 100.667 63 138s93.667 56 155 56c21.333 0 42.666 -3.33301 63.999 -10s37 -14.667 47 -24
c9.33301 10 22.5 18.667 39.5 26s34.5 11 52.5 11c9.33301 0 17.833 -0.666992 25.5 -2s14.5 -3.33301 20.5 -6l-7 -78c-18 4.66699 -36.167 7.83398 -54.5 9.50098s-37.833 2.5 -58.5 2.5v-1c18.667 -10.667 35 -26 49 -46s21 -41 21 -63
c0 -54.667 -20.667 -98.834 -62 -132.501s-93.666 -50.5 -156.999 -50.5c-10.667 0 -21.834 1 -33.501 3s-21.167 4.33301 -28.5 7c-6 -3.33301 -11.5 -8.83301 -16.5 -16.5s-7.5 -15.167 -7.5 -22.5c0 -13.333 5.66699 -23.5 17 -30.5s28.333 -10.167 51 -9.5l127 4
c51.333 1.33301 88.833 -8.33398 112.5 -29.001s35.5 -51.667 35.5 -93c0 -50 -25.333 -93.667 -76 -131s-113.667 -56 -189 -56c-69.333 0 -121.166 11 -155.499 33s-51.5 51 -51.5 87c0 25.333 9 48 27 68s40.333 33.333 67 40zM152.999 -49.001
c-11.333 -6 -20.5 -14.5 -27.5 -25.5s-10.5 -22.833 -10.5 -35.5c0 -18.667 10.667 -34.667 32 -48s52.333 -20 93 -20c48 0 85.333 8.16699 112 24.5s40 35.166 40 56.499c0 14.667 -5.5 26.334 -16.5 35.001s-29.5 13 -55.5 13h-167zM250.999 528.999
c-33.333 0 -65 12.5 -95 37.5s-55.333 60.167 -76 105.5c12 7.33301 22.5 13.333 31.5 18s21.5 8.66699 37.5 12c14.667 -36 31.667 -63 51 -81s39 -27 59 -27c20.667 0 40.167 9.33301 58.5 28s34.833 46 49.5 82c10.667 -4.66699 20 -10.5 28 -17.5
s14.667 -15.167 20 -24.5c-14.667 -38 -37.167 -69.667 -67.5 -95s-62.5 -38 -96.5 -38z" />
    <glyph glyph-name="Gdotaccent" unicode="&#x120;" horiz-adv-x="622" 
d="M561 206l0.00390625 -218.997c-28.667 0 -51.334 2.5 -68.001 7.5s-30.667 13.833 -42 26.5c-14 -10.667 -33.5 -19.667 -58.5 -27s-51.5 -11 -79.5 -11c-77.333 0 -142.5 27.167 -195.5 81.5s-79.5 131.166 -79.5 230.499c0 110 32.167 197 96.5 261
s146.166 96 245.499 96c35.333 0 67 -2.33301 95 -7s53.333 -12.334 76 -23.001l-12 -159h-34l-6 26c-6.66699 30 -20.167 51.833 -40.5 65.5s-49.5 20.5 -87.5 20.5c-52 0 -96 -21.5 -132 -64.5s-54 -108.833 -54 -197.5c0 -84.667 16.167 -147.834 48.5 -189.501
s71.166 -62.5 116.499 -62.5c15.333 0 30.666 1.66699 45.999 5s28.666 7.33301 39.999 12v181l-59 18v27c23.333 6 45 10.167 65 12.5s41.333 3.5 64 3.5c24.667 0 45 -0.666992 61 -2s33 -4 51 -8v-22c-19.333 -8 -33.666 -18.833 -42.999 -32.5s-14 -30.167 -14 -49.5z
M422.004 764.003c0 -14 -5.66699 -26.833 -17 -38.5s-24 -17.5 -38 -17.5c-16 0 -28.667 5 -38 15s-14 22.667 -14 38c0 14 5.5 27.167 16.5 39.5s24.5 18.5 40.5 18.5c14.667 0 26.667 -5.33301 36 -16s14 -23.667 14 -39z" />
    <glyph glyph-name="gdotaccent" unicode="&#x121;" horiz-adv-x="495" 
d="M327 315c0 38.667 -8.16797 67.333 -24.501 86s-34.833 28 -55.5 28c-23.333 0 -43.666 -11.167 -60.999 -33.5s-26 -55.5 -26 -99.5c0 -38 8.16699 -67.167 24.5 -87.5s34.5 -30.5 54.5 -30.5c24 0 44.667 10.833 62 32.5s26 56.5 26 104.5zM111.999 -23.001v1
c-19.333 7.33301 -33.833 17.333 -43.5 30s-14.5 28.667 -14.5 48s7.66699 38 23 56s34 30.333 56 37v1c-25.333 8.66699 -48 25.334 -68 50.001s-30 55.667 -30 93c0 54.667 21 100.667 63 138s93.667 56 155 56c21.333 0 42.666 -3.33301 63.999 -10s37 -14.667 47 -24
c9.33301 10 22.5 18.667 39.5 26s34.5 11 52.5 11c9.33301 0 17.833 -0.666992 25.5 -2s14.5 -3.33301 20.5 -6l-7 -78c-18 4.66699 -36.167 7.83398 -54.5 9.50098s-37.833 2.5 -58.5 2.5v-1c18.667 -10.667 35 -26 49 -46s21 -41 21 -63
c0 -54.667 -20.667 -98.834 -62 -132.501s-93.666 -50.5 -156.999 -50.5c-10.667 0 -21.834 1 -33.501 3s-21.167 4.33301 -28.5 7c-6 -3.33301 -11.5 -8.83301 -16.5 -16.5s-7.5 -15.167 -7.5 -22.5c0 -13.333 5.66699 -23.5 17 -30.5s28.333 -10.167 51 -9.5l127 4
c51.333 1.33301 88.833 -8.33398 112.5 -29.001s35.5 -51.667 35.5 -93c0 -50 -25.333 -93.667 -76 -131s-113.667 -56 -189 -56c-69.333 0 -121.166 11 -155.499 33s-51.5 51 -51.5 87c0 25.333 9 48 27 68s40.333 33.333 67 40zM152.999 -49.001
c-11.333 -6 -20.5 -14.5 -27.5 -25.5s-10.5 -22.833 -10.5 -35.5c0 -18.667 10.667 -34.667 32 -48s52.333 -20 93 -20c48 0 85.333 8.16699 112 24.5s40 35.166 40 56.499c0 14.667 -5.5 26.334 -16.5 35.001s-29.5 13 -55.5 13h-167zM300.999 606.999
c0 -14 -5.66699 -26.833 -17 -38.5s-24 -17.5 -38 -17.5c-16 0 -28.667 5 -38 15s-14 22.667 -14 38c0 14 5.5 27.167 16.5 39.5s24.5 18.5 40.5 18.5c14.667 0 26.667 -5.33301 36 -16s14 -23.667 14 -39z" />
    <glyph glyph-name="Gcommaaccent" unicode="&#x122;" horiz-adv-x="622" 
d="M561 206l0.00390625 -218.997c-28.667 0 -51.334 2.5 -68.001 7.5s-30.667 13.833 -42 26.5c-14 -10.667 -33.5 -19.667 -58.5 -27s-51.5 -11 -79.5 -11c-77.333 0 -142.5 27.167 -195.5 81.5s-79.5 131.166 -79.5 230.499c0 110 32.167 197 96.5 261
s146.166 96 245.499 96c35.333 0 67 -2.33301 95 -7s53.333 -12.334 76 -23.001l-12 -159h-34l-6 26c-6.66699 30 -20.167 51.833 -40.5 65.5s-49.5 20.5 -87.5 20.5c-52 0 -96 -21.5 -132 -64.5s-54 -108.833 -54 -197.5c0 -84.667 16.167 -147.834 48.5 -189.501
s71.166 -62.5 116.499 -62.5c15.333 0 30.666 1.66699 45.999 5s28.666 7.33301 39.999 12v181l-59 18v27c23.333 6 45 10.167 65 12.5s41.333 3.5 64 3.5c24.667 0 45 -0.666992 61 -2s33 -4 51 -8v-22c-19.333 -8 -33.666 -18.833 -42.999 -32.5s-14 -30.167 -14 -49.5z
M408.004 -102.997c0 -28.667 -11.5 -57.168 -34.5 -85.501s-41.833 -42.5 -56.5 -42.5c-4 0 -7.33301 0.5 -10 1.5s-5.33398 2.83301 -8.00098 5.5c8 14 14.167 29 18.5 45s6.5 32.333 6.5 49l-34 41c8 12.667 17.5 22.834 28.5 30.501s22.833 11.5 35.5 11.5
c14.667 0 27.334 -5 38.001 -15s16 -23.667 16 -41z" />
    <glyph glyph-name="gcommaaccent" unicode="&#x123;" horiz-adv-x="495" 
d="M327 315c0 38.667 -8.16797 67.333 -24.501 86s-34.833 28 -55.5 28c-23.333 0 -43.666 -11.167 -60.999 -33.5s-26 -55.5 -26 -99.5c0 -38 8.16699 -67.167 24.5 -87.5s34.5 -30.5 54.5 -30.5c24 0 44.667 10.833 62 32.5s26 56.5 26 104.5zM111.999 -23.001v1
c-19.333 7.33301 -33.833 17.333 -43.5 30s-14.5 28.667 -14.5 48s7.66699 38 23 56s34 30.333 56 37v1c-25.333 8.66699 -48 25.334 -68 50.001s-30 55.667 -30 93c0 54.667 21 100.667 63 138s93.667 56 155 56c21.333 0 42.666 -3.33301 63.999 -10s37 -14.667 47 -24
c9.33301 10 22.5 18.667 39.5 26s34.5 11 52.5 11c9.33301 0 17.833 -0.666992 25.5 -2s14.5 -3.33301 20.5 -6l-7 -78c-18 4.66699 -36.167 7.83398 -54.5 9.50098s-37.833 2.5 -58.5 2.5v-1c18.667 -10.667 35 -26 49 -46s21 -41 21 -63
c0 -54.667 -20.667 -98.834 -62 -132.501s-93.666 -50.5 -156.999 -50.5c-10.667 0 -21.834 1 -33.501 3s-21.167 4.33301 -28.5 7c-6 -3.33301 -11.5 -8.83301 -16.5 -16.5s-7.5 -15.167 -7.5 -22.5c0 -13.333 5.66699 -23.5 17 -30.5s28.333 -10.167 51 -9.5l127 4
c51.333 1.33301 88.833 -8.33398 112.5 -29.001s35.5 -51.667 35.5 -93c0 -50 -25.333 -93.667 -76 -131s-113.667 -56 -189 -56c-69.333 0 -121.166 11 -155.499 33s-51.5 51 -51.5 87c0 25.333 9 48 27 68s40.333 33.333 67 40zM152.999 -49.001
c-11.333 -6 -20.5 -14.5 -27.5 -25.5s-10.5 -22.833 -10.5 -35.5c0 -18.667 10.667 -34.667 32 -48s52.333 -20 93 -20c48 0 85.333 8.16699 112 24.5s40 35.166 40 56.499c0 14.667 -5.5 26.334 -16.5 35.001s-29.5 13 -55.5 13h-167zM242.999 518.999
c-14.667 0 -27.334 5 -38.001 15s-16 23.667 -16 41c0 28.667 11.667 57.167 35 85.5s42.333 42.5 57 42.5c3.33301 0 6.5 -0.666992 9.5 -2s5.83301 -3 8.5 -5c-8.66699 -14 -15.167 -29.167 -19.5 -45.5s-6.5 -32.833 -6.5 -49.5l34 -41
c-7.33301 -12.667 -16.666 -22.667 -27.999 -30s-23.333 -11 -36 -11z" />
    <glyph glyph-name="Hcircumflex" unicode="&#x124;" horiz-adv-x="694" 
d="M467 584l-63.002 19.9961v26c20.667 5.33301 42.667 9.5 66 12.5s48.333 4.5 75 4.5c18 0 36.833 -1 56.5 -3s37.167 -4.33301 52.5 -7v-23c-18 -7.33301 -31.833 -17.166 -41.5 -29.499s-14.5 -30.833 -14.5 -55.5v-477l62 -19v-26
c-20.667 -5.33301 -42.5 -9.5 -65.5 -12.5s-47.833 -4.5 -74.5 -4.5c-18 0 -36.833 0.833008 -56.5 2.5s-37.5 4.16699 -53.5 7.5v23c18.667 7.33301 32.834 17.333 42.501 30s14.5 31.334 14.5 56.001v185h-240v-242l62 -19v-26c-20.667 -5.33301 -42.5 -9.5 -65.5 -12.5
s-47.833 -4.5 -74.5 -4.5c-18 0 -36.833 0.833008 -56.5 2.5s-37.5 4.16699 -53.5 7.5v23c18.667 7.33301 32.834 17.333 42.501 30s14.5 31.334 14.5 56.001v475l-63 20v26c20.667 5.33301 42.667 9.5 66 12.5s48.333 4.5 75 4.5c18 0 36.833 -1 56.5 -3
s37.167 -4.33301 52.5 -7v-23c-18 -7.33301 -31.833 -17.166 -41.5 -29.499s-14.5 -30.833 -14.5 -55.5v-157h240v212zM321.998 856.996l45.001 8l144 -161l-16 -17c-20.667 0 -39.5 3.33301 -56.5 10s-33.5 18 -49.5 34c-9.33301 8.66699 -18 18.5 -26 29.5
s-15 22.167 -21 33.5l-113 -108c-10.667 4.66699 -19.834 10.667 -27.501 18s-14.167 15.333 -19.5 24z" />
    <glyph glyph-name="hcircumflex" unicode="&#x125;" horiz-adv-x="580" 
d="M507 47l52.999 -16.002v-23c-16.667 -5.33301 -35.667 -9.5 -57 -12.5s-46.333 -4.5 -75 -4.5c-14 0 -28 0.833008 -42 2.5s-27 3.83398 -39 6.50098v20c12.667 6.66699 22 15.5 28 26.5s9 24.833 9 41.5v187c0 44 -9 75.333 -27 94s-41.333 28 -70 28
c-14 0 -27.833 -2 -41.5 -6s-24.834 -8.66699 -33.501 -14v-330l56 -16v-23c-19.333 -6 -39.5 -10.333 -60.5 -13s-46.833 -4 -77.5 -4c-14.667 0 -30.5 0.833008 -47.5 2.5s-32.167 3.83398 -45.5 6.50098v20c12.667 5.33301 24.5 13.5 35.5 24.5s16.5 23.167 16.5 36.5
v561l-64 29v25c23.333 8 47.833 14 73.5 18s48.834 5.66699 69.501 5h51l-7 -73v-219c18 18 39.333 31.833 64 41.5s51.334 14.5 80.001 14.5c48 0 85.167 -13.333 111.5 -40s39.5 -68 39.5 -124v-272zM260.999 900.998l45.001 8l144 -161l-16 -17
c-20.667 0 -39.5 3.33301 -56.5 10s-33.5 18 -49.5 34c-9.33301 8.66699 -18 18.5 -26 29.5s-15 22.167 -21 33.5l-113 -108c-10.667 4.66699 -19.834 10.667 -27.501 18s-14.167 15.333 -19.5 24z" />
    <glyph glyph-name="Hbar" unicode="&#x126;" horiz-adv-x="694" 
d="M39 0l-0.000976562 22.998c18.667 7.33301 32.834 17.333 42.501 30s14.5 31.334 14.5 56.001v362h-1c-10.667 0 -21.167 -0.333008 -31.5 -1l-32.5 -2c-0.666992 2.66699 -1.5 6.5 -2.5 11.5s-1.5 9.5 -1.5 13.5c0 10 3.83301 17.833 11.5 23.5
s25.834 9.16699 54.501 10.5h3v57l-63 20v26c20.667 5.33301 42.667 9.5 66 12.5s48.333 4.5 75 4.5c18 0 36.833 -1 56.5 -3s37.167 -4.33301 52.5 -7v-23c-18 -7.33301 -31.833 -17.166 -41.5 -29.499s-14.5 -30.833 -14.5 -55.5v-1l240 3v53l-63 20v26
c20.667 5.33301 42.667 9.5 66 12.5s48.333 4.5 75 4.5c18 0 36.833 -1 56.5 -3s37.167 -4.33301 52.5 -7v-23c-17.333 -7.33301 -30.833 -17 -40.5 -29s-14.834 -29.333 -15.501 -52c10.667 0 21.167 0.333008 31.5 1s21.166 1.66699 32.499 3
c0.666992 -2.66699 1.5 -6.66699 2.5 -12s1.5 -10 1.5 -14c0 -13.333 -4.33301 -22.333 -13 -27s-27 -7.33398 -55 -8.00098v-424l62 -19v-26c-20.667 -5.33301 -42.5 -9.5 -65.5 -12.5s-47.833 -4.5 -74.5 -4.5c-18 0 -36.833 0.833008 -56.5 2.5s-37.5 4.16699 -53.5 7.5
v23c18.667 7.33301 32.834 17.333 42.501 30s14.5 31.334 14.5 56.001v185h-240v-242l62 -19v-26c-20.667 -5.33301 -42.5 -9.5 -65.5 -12.5s-47.833 -4.5 -74.5 -4.5c-18 0 -36.833 0.833008 -56.5 2.5s-37.5 4.16699 -53.5 7.5zM226.999 371.998h240v103l-240 -3v-100z
" />
    <glyph glyph-name="hbar" unicode="&#x127;" horiz-adv-x="578" 
d="M506 47l52.998 -16.002v-23c-16.667 -5.33301 -35.667 -9.5 -57 -12.5s-46.333 -4.5 -75 -4.5c-14 0 -28 0.833008 -42 2.5s-27 3.83398 -39 6.50098v20c12.667 6.66699 22 15.5 28 26.5s9 24.833 9 41.5v187c0 44 -9 75.333 -27 94s-41.333 28 -70 28
c-14 0 -27.833 -2 -41.5 -6s-24.834 -8.66699 -33.501 -14v-330l56 -16v-23c-19.333 -6 -39.5 -10.333 -60.5 -13s-46.833 -4 -77.5 -4c-14.667 0 -30.5 0.833008 -47.5 2.5s-32.167 3.83398 -45.5 6.50098v20c12.667 5.33301 24.5 13.5 35.5 24.5s16.5 23.167 16.5 36.5
v458l-73 -6c0 22.667 3.83301 40.167 11.5 52.5s24.834 18.5 51.501 18.5h10v38l-64 29v25c23.333 8 47.833 14 73.5 18s48.834 5.66699 69.501 5h51l-7 -73v-39l53 1l34.5 2c11.667 0.666992 23.5 1.66699 35.5 3c0 -21.333 -3.66699 -38 -11 -50s-22 -18.333 -44 -19
l-68 -2v-115c18 18 39.333 31.833 64 41.5s51.334 14.5 80.001 14.5c48 0 85.167 -13.333 111.5 -40s39.5 -68 39.5 -124v-272z" />
    <glyph glyph-name="Itilde" unicode="&#x128;" horiz-adv-x="323" 
d="M289 33l0.000976562 -25.999c-18.667 -4.66699 -39.834 -8.66699 -63.501 -12s-47.5 -5 -71.5 -5c-26 0 -47.667 0.833008 -65 2.5s-34 4.16699 -50 7.5v23c18 6.66699 32 16.5 42 29.5s15 32.833 15 59.5v472l-63 20v26c22.667 5.33301 45.667 9.5 69 12.5
s47.333 4.5 72 4.5c20 0 38.833 -0.833008 56.5 -2.5s35.167 -4.16699 52.5 -7.5v-23c-20.667 -8.66699 -35.167 -19.334 -43.5 -32.001s-12.5 -31 -12.5 -55v-475zM70.001 818.001c10.667 0 21.833 -1.00098 33.5 -3.00098s23.834 -4.66699 36.501 -8l61 -15
c7.33301 -2.66699 15.333 -4.66699 24 -6s16.667 -2 24 -2c11.333 0 22.166 5.16699 32.499 15.5s15.5 21.5 15.5 33.5c9.33301 -8.66699 16.833 -18.5 22.5 -29.5s8.5 -22.833 8.5 -35.5c0 -18.667 -7.66699 -34 -23 -46s-32.666 -18 -51.999 -18
c-11.333 0 -23 0.833008 -35 2.5s-23 3.83398 -33 6.50098l-62 17c-9.33301 2.66699 -18.333 4.66699 -27 6s-16.334 2 -23.001 2c-12 0 -22.5 -4.33301 -31.5 -13s-13.5 -18.334 -13.5 -29.001c-8.66699 8 -15.834 17.333 -21.501 28s-8.5 22 -8.5 34
c0 18.667 6.33301 33.334 19 44.001s30.334 16 53.001 16z" />
    <glyph glyph-name="itilde" unicode="&#x129;" horiz-adv-x="292" 
d="M89 402l-61.999 28.999v24c24 8 48.833 14 74.5 18s47.834 6 66.501 6l51 -1l-7 -71v-360l56 -16v-23c-18.667 -6 -38.834 -10.333 -60.501 -13s-47.834 -4 -78.501 -4c-14.667 0 -30.5 0.833008 -47.5 2.5s-31.833 3.83398 -44.5 6.50098v20
c12.667 5.33301 24.5 13.5 35.5 24.5s16.5 23.167 16.5 36.5v321zM57.001 660.999c10.667 0 21.833 -1.00098 33.5 -3.00098s23.834 -4.66699 36.501 -8l61 -15c7.33301 -2.66699 15.333 -4.66699 24 -6s16.667 -2 24 -2c11.333 0 22.166 5.16699 32.499 15.5
s15.5 21.5 15.5 33.5c9.33301 -8.66699 16.833 -18.5 22.5 -29.5s8.5 -22.833 8.5 -35.5c0 -18.667 -7.66699 -34 -23 -46s-32.666 -18 -51.999 -18c-11.333 0 -23 0.833008 -35 2.5s-23 3.83398 -33 6.50098l-62 17c-9.33301 2.66699 -18.333 4.66699 -27 6
s-16.334 2 -23.001 2c-12 0 -22.5 -4.33301 -31.5 -13s-13.5 -18.334 -13.5 -29.001c-8.66699 8 -15.834 17.333 -21.501 28s-8.5 22 -8.5 34c0 18.667 6.33301 33.334 19 44.001s30.334 16 53.001 16z" />
    <glyph glyph-name="Imacron" unicode="&#x12a;" horiz-adv-x="323" 
d="M289 33l0.000976562 -25.999c-18.667 -4.66699 -39.834 -8.66699 -63.501 -12s-47.5 -5 -71.5 -5c-26 0 -47.667 0.833008 -65 2.5s-34 4.16699 -50 7.5v23c18 6.66699 32 16.5 42 29.5s15 32.833 15 59.5v472l-63 20v26c22.667 5.33301 45.667 9.5 69 12.5
s47.333 4.5 72 4.5c20 0 38.833 -0.833008 56.5 -2.5s35.167 -4.16699 52.5 -7.5v-23c-20.667 -8.66699 -35.167 -19.334 -43.5 -32.001s-12.5 -31 -12.5 -55v-475zM296.001 723.001h-266v74h266v-74z" />
    <glyph glyph-name="imacron" unicode="&#x12b;" horiz-adv-x="292" 
d="M89 402l-61.999 28.999v24c24 8 48.833 14 74.5 18s47.834 6 66.501 6l51 -1l-7 -71v-360l56 -16v-23c-18.667 -6 -38.834 -10.333 -60.501 -13s-47.834 -4 -78.501 -4c-14.667 0 -30.5 0.833008 -47.5 2.5s-31.833 3.83398 -44.5 6.50098v20
c12.667 5.33301 24.5 13.5 35.5 24.5s16.5 23.167 16.5 36.5v321zM283.001 569.999h-266v74h266v-74z" />
    <glyph glyph-name="Ibreve" unicode="&#x12c;" horiz-adv-x="323" 
d="M289 33l0.000976562 -25.999c-18.667 -4.66699 -39.834 -8.66699 -63.501 -12s-47.5 -5 -71.5 -5c-26 0 -47.667 0.833008 -65 2.5s-34 4.16699 -50 7.5v23c18 6.66699 32 16.5 42 29.5s15 32.833 15 59.5v472l-63 20v26c22.667 5.33301 45.667 9.5 69 12.5
s47.333 4.5 72 4.5c20 0 38.833 -0.833008 56.5 -2.5s35.167 -4.16699 52.5 -7.5v-23c-20.667 -8.66699 -35.167 -19.334 -43.5 -32.001s-12.5 -31 -12.5 -55v-475zM166.001 681.001c-33.333 0 -65 12.5 -95 37.5s-55.333 60.167 -76 105.5c12 7.33301 22.5 13.333 31.5 18
s21.5 8.66699 37.5 12c14.667 -36 31.667 -63 51 -81s39 -27 59 -27c20.667 0 40.167 9.33301 58.5 28s34.833 46 49.5 82c10.667 -4.66699 20 -10.5 28 -17.5s14.667 -15.167 20 -24.5c-14.667 -38 -37.167 -69.667 -67.5 -95s-62.5 -38 -96.5 -38z" />
    <glyph glyph-name="ibreve" unicode="&#x12d;" horiz-adv-x="292" 
d="M89 402l-61.999 28.999v24c24 8 48.833 14 74.5 18s47.834 6 66.501 6l51 -1l-7 -71v-360l56 -16v-23c-18.667 -6 -38.834 -10.333 -60.501 -13s-47.834 -4 -78.501 -4c-14.667 0 -30.5 0.833008 -47.5 2.5s-31.833 3.83398 -44.5 6.50098v20
c12.667 5.33301 24.5 13.5 35.5 24.5s16.5 23.167 16.5 36.5v321zM154.001 528.999c-33.333 0 -65 12.5 -95 37.5s-55.333 60.167 -76 105.5c12 7.33301 22.5 13.333 31.5 18s21.5 8.66699 37.5 12c14.667 -36 31.667 -63 51 -81s39 -27 59 -27
c20.667 0 40.167 9.33301 58.5 28s34.833 46 49.5 82c10.667 -4.66699 20 -10.5 28 -17.5s14.667 -15.167 20 -24.5c-14.667 -38 -37.167 -69.667 -67.5 -95s-62.5 -38 -96.5 -38z" />
    <glyph glyph-name="Iogonek" unicode="&#x12e;" horiz-adv-x="323" 
d="M289 33l0.000976562 -26.001c-15.333 -4 -32.333 -7.5 -51 -10.5s-37.667 -4.83301 -57 -5.5l-36 -47c-6.66699 -8 -12.5 -17.5 -17.5 -28.5s-7.5 -21.5 -7.5 -31.5c0 -15.333 4.5 -27.333 13.5 -36s20.833 -13 35.5 -13c13.333 0 26.666 1.66699 39.999 5
s26.333 7.66602 39 12.999c0 -21.333 -8.5 -39 -25.5 -53s-41.167 -21 -72.5 -21c-32.667 0 -58.667 7.83301 -78 23.5s-29 37.834 -29 66.501c0 16.667 4.83301 32.667 14.5 48s22.5 29.333 38.5 42l36 31c-19.333 0.666992 -36.333 1.83398 -51 3.50098
s-28.667 3.83398 -42 6.50098v23c18 6.66699 32 16.5 42 29.5s15 32.833 15 59.5v472l-63 20v26c22.667 5.33301 45.667 9.5 69 12.5s47.333 4.5 72 4.5c20 0 38.833 -0.833008 56.5 -2.5s35.167 -4.16699 52.5 -7.5v-23c-20.667 -8.66699 -35.167 -19.334 -43.5 -32.001
s-12.5 -31 -12.5 -55v-475z" />
    <glyph glyph-name="iogonek" unicode="&#x12f;" horiz-adv-x="292" 
d="M225 631c0 -22.667 -7 -40.833 -21 -54.5s-31.333 -20.5 -52 -20.5c-20 0 -36.667 6.5 -50 19.5s-20 29.833 -20 50.5c0 20 6.83301 37 20.5 51s31.5 21 53.5 21c20 0 36.5 -6 49.5 -18s19.5 -28.333 19.5 -49zM89 402.001l-61.998 28.999v24c24 8 48.833 14 74.5 18
s47.834 6 66.501 6l51 -1l-7 -71v-360l56 -16v-23c-13.333 -4 -27.333 -7.5 -42 -10.5s-31 -4.83301 -49 -5.5l-37 -48c-6.66699 -8 -12.5 -17.5 -17.5 -28.5s-7.5 -21.5 -7.5 -31.5c0 -15.333 4.5 -27.333 13.5 -36s20.833 -13 35.5 -13c13.333 0 26.666 1.66699 39.999 5
s26.333 7.66602 39 12.999c0 -21.333 -8.5 -39 -25.5 -53s-41.167 -21 -72.5 -21c-32.667 0 -58.667 7.83301 -78 23.5s-29 37.834 -29 66.501c0 16.667 4.83301 32.667 14.5 48s22.5 29.333 38.5 42l37 32c-14.667 0 -30.334 0.833008 -47.001 2.5
s-31.334 3.83398 -44.001 6.50098v20c12.667 5.33301 24.5 13.5 35.5 24.5s16.5 23.167 16.5 36.5v321z" />
    <glyph glyph-name="Idotaccent" unicode="&#x130;" horiz-adv-x="323" 
d="M289 33l0.000976562 -25.999c-18.667 -4.66699 -39.834 -8.66699 -63.501 -12s-47.5 -5 -71.5 -5c-26 0 -47.667 0.833008 -65 2.5s-34 4.16699 -50 7.5v23c18 6.66699 32 16.5 42 29.5s15 32.833 15 59.5v472l-63 20v26c22.667 5.33301 45.667 9.5 69 12.5
s47.333 4.5 72 4.5c20 0 38.833 -0.833008 56.5 -2.5s35.167 -4.16699 52.5 -7.5v-23c-20.667 -8.66699 -35.167 -19.334 -43.5 -32.001s-12.5 -31 -12.5 -55v-475zM216.001 760.001c0 -14 -5.66699 -26.833 -17 -38.5s-24 -17.5 -38 -17.5c-16 0 -28.667 5 -38 15
s-14 22.667 -14 38c0 14 5.5 27.167 16.5 39.5s24.5 18.5 40.5 18.5c14.667 0 26.667 -5.33301 36 -16s14 -23.667 14 -39z" />
    <glyph glyph-name="dotlessi" unicode="&#x131;" horiz-adv-x="292" 
d="M89 402l-61.999 28.999v24c24 8 48.833 14 74.5 18s47.834 6 66.501 6l51 -1l-7 -71v-360l56 -16v-23c-18.667 -6 -38.834 -10.333 -60.501 -13s-47.834 -4 -78.501 -4c-14.667 0 -30.5 0.833008 -47.5 2.5s-31.833 3.83398 -44.5 6.50098v20
c12.667 5.33301 24.5 13.5 35.5 24.5s16.5 23.167 16.5 36.5v321z" />
    <glyph glyph-name="IJ" unicode="&#x132;" horiz-adv-x="646" 
d="M606 637l0.00292969 -23c-19.333 -8 -33.5 -18.5 -42.5 -31.5s-13.5 -31.833 -13.5 -56.5v-433c0 -72.667 -14.333 -127.167 -43 -163.5s-61.334 -54.5 -98.001 -54.5c-12.667 0 -24.834 1.16699 -36.501 3.5s-23.5 5.83301 -35.5 10.5v16c22.667 14 42 36.333 58 67
s24 66 24 106v506l-63 20v26c24.667 6 48.167 10.333 70.5 13s46.166 4 71.499 4c20.667 0 39.5 -0.833008 56.5 -2.5s34.167 -4.16699 51.5 -7.5zM289.003 33l0.000976562 -25.999c-18.667 -4.66699 -39.834 -8.66699 -63.501 -12s-47.5 -5 -71.5 -5
c-26 0 -47.667 0.833008 -65 2.5s-34 4.16699 -50 7.5v23c18 6.66699 32 16.5 42 29.5s15 32.833 15 59.5v472l-63 20v26c22.667 5.33301 45.667 9.5 69 12.5s47.333 4.5 72 4.5c20 0 38.833 -0.833008 56.5 -2.5s35.167 -4.16699 52.5 -7.5v-23
c-20.667 -8.66699 -35.167 -19.334 -43.5 -32.001s-12.5 -31 -12.5 -55v-475z" />
    <glyph glyph-name="ij" unicode="&#x133;" horiz-adv-x="574" 
d="M515 631c0 -22.667 -7 -40.833 -21 -54.5s-31.333 -20.5 -52 -20.5c-20 0 -36.667 6.5 -50 19.5s-20 29.833 -20 50.5c0 20 6.83301 37 20.5 51s31.5 21 53.5 21c20 0 36.5 -6 49.5 -18s19.5 -28.333 19.5 -49zM225 631.001c0 -22.667 -7 -40.833 -21 -54.5
s-31.333 -20.5 -52 -20.5c-20 0 -36.667 6.5 -50 19.5s-20 29.833 -20 50.5c0 20 6.83301 37 20.5 51s31.5 21 53.5 21c20 0 36.5 -6 49.5 -18s19.5 -28.333 19.5 -49zM504 405.002l-0.00195312 -424.001c0 -86 -12.5 -145.333 -37.5 -178s-57.5 -49 -97.5 -49
c-20.667 0 -38.5 3.83301 -53.5 11.5s-25.167 17.834 -30.5 30.501v17c24.667 0 46.834 12 66.501 36s29.5 59.333 29.5 106v447l-61 29v24c23.333 8 47.833 14 73.5 18s47.834 6 66.501 6l51 -1zM88.998 402.001l-61.999 28.999v24c24 8 48.833 14 74.5 18
s47.834 6 66.501 6l51 -1l-7 -71v-360l56 -16v-23c-18.667 -6 -38.834 -10.333 -60.501 -13s-47.834 -4 -78.501 -4c-14.667 0 -30.5 0.833008 -47.5 2.5s-31.833 3.83398 -44.5 6.50098v20c12.667 5.33301 24.5 13.5 35.5 24.5s16.5 23.167 16.5 36.5v321z" />
    <glyph glyph-name="Jcircumflex" unicode="&#x134;" horiz-adv-x="323" 
d="M283 637l0.00292969 -23c-19.333 -8 -33.5 -18.5 -42.5 -31.5s-13.5 -31.833 -13.5 -56.5v-433c0 -72.667 -14.333 -127.167 -43 -163.5s-61.334 -54.5 -98.001 -54.5c-12.667 0 -24.834 1.16699 -36.501 3.5s-23.5 5.83301 -35.5 10.5v16c22.667 14 42 36.333 58 67
s24 66 24 106v506l-63 20v26c24.667 6 48.167 10.333 70.5 13s46.166 4 71.499 4c20.667 0 39.5 -0.833008 56.5 -2.5s34.167 -4.16699 51.5 -7.5zM135.003 852l45.001 8l144 -161l-16 -17c-20.667 0 -39.5 3.33301 -56.5 10s-33.5 18 -49.5 34
c-9.33301 8.66699 -18 18.5 -26 29.5s-15 22.167 -21 33.5l-113 -108c-10.667 4.66699 -19.834 10.667 -27.501 18s-14.167 15.333 -19.5 24z" />
    <glyph glyph-name="jcircumflex" unicode="&#x135;" horiz-adv-x="282" 
d="M119 700l45 8l144 -161l-17 -17c-20.667 0 -39.5 3.33301 -56.5 10s-33.5 18 -49.5 34c-9.33301 8.66699 -18 18.5 -26 29.5s-15 22.167 -21 33.5l-112 -108c-10.667 4.66699 -20 10.667 -28 18s-14.667 15.333 -20 24zM212 405l-0.00195312 -424.001
c0 -86 -12.5 -145.333 -37.5 -178s-57.5 -49 -97.5 -49c-20.667 0 -38.5 3.83301 -53.5 11.5s-25.167 17.834 -30.5 30.501v17c24.667 0 46.834 12 66.501 36s29.5 59.333 29.5 106v447l-61 29v24c23.333 8 47.833 14 73.5 18s47.834 6 66.501 6l51 -1z" />
    <glyph glyph-name="Kcommaaccent" unicode="&#x136;" horiz-adv-x="608" 
d="M287 33l-0.00195312 -25.9971c-19.333 -5.33301 -39.5 -9.5 -60.5 -12.5s-46.167 -4.5 -75.5 -4.5c-22.667 0 -43 0.833008 -61 2.5s-35 4.16699 -51 7.5v23c20.667 8 35.334 18.667 44.001 32s13 32.666 13 57.999v471l-63 20v26c23.333 6 46.5 10.333 69.5 13
s46.167 4 69.5 4c20.667 0 39.834 -0.833008 57.501 -2.5s35.5 -4.16699 53.5 -7.5v-23c-20.667 -8.66699 -35.167 -19.334 -43.5 -32.001s-12.5 -31.334 -12.5 -56.001v-474zM629.998 35.0029l0.000976562 -23.001c-16 -8.66699 -32.167 -15 -48.5 -19s-35.833 -6 -58.5 -6
c-24.667 0 -47 5.83301 -67 17.5s-41.333 34.834 -64 69.501l-161 250v5l218 256v2l-57 17v26c26 6.66699 49.167 11.167 69.5 13.5s42.166 3.5 65.499 3.5c15.333 0 29.666 -0.833008 42.999 -2.5s26.333 -4.16699 39 -7.5v-23
c-16.667 -7.33301 -30.834 -14.833 -42.501 -22.5s-23.5 -18.167 -35.5 -31.5l-174 -197l164 -235c14.667 -21.333 30.334 -39 47.001 -53s37.334 -27.333 62.001 -40zM375.999 -102.998c0 -28.667 -11.5 -57.168 -34.5 -85.501s-41.833 -42.5 -56.5 -42.5
c-4 0 -7.33301 0.5 -10 1.5s-5.33398 2.83301 -8.00098 5.5c8 14 14.167 29 18.5 45s6.5 32.333 6.5 49l-34 41c8 12.667 17.5 22.834 28.5 30.501s22.833 11.5 35.5 11.5c14.667 0 27.334 -5 38.001 -15s16 -23.667 16 -41z" />
    <glyph glyph-name="kcommaaccent" unicode="&#x137;" horiz-adv-x="507" 
d="M217 719l-7.99902 -73v-382l55 50c22.667 19.333 42.667 44.5 60 75.5s26 58.167 26 81.5c10.667 4 22.167 7 34.5 9s24.166 3 35.499 3c8.66699 0 17.5 -0.833008 26.5 -2.5s18.167 -3.83398 27.5 -6.50098c-0.666992 -26.667 -11 -55.5 -31 -86.5s-51 -62.5 -93 -94.5
l-25 -17l133 -172c14.667 -18.667 28 -33 40 -43s24 -17 36 -21v-26c-14.667 -8.66699 -30 -14.667 -46 -18s-33.333 -5 -52 -5s-35.334 3.66699 -50.001 11s-28.334 20.333 -41.001 39l-136 197v-191l51 -16v-23c-19.333 -6 -39 -10.333 -59 -13s-44.667 -4 -74 -4
c-14.667 0 -30.5 0.833008 -47.5 2.5s-31.833 3.83398 -44.5 6.50098v20c12.667 5.33301 24.334 13.5 35.001 24.5s16 23.5 16 37.5v560l-64 29v25c24 8 49.333 14 76 18s49.334 5.66699 68.001 5h51zM334.001 -103c0 -28.667 -11.5 -57.168 -34.5 -85.501
s-41.833 -42.5 -56.5 -42.5c-4 0 -7.33301 0.5 -10 1.5s-5.33398 2.83301 -8.00098 5.5c8 14 14.167 29 18.5 45s6.5 32.333 6.5 49l-34 41c8 12.667 17.5 22.834 28.5 30.501s22.833 11.5 35.5 11.5c14.667 0 27.334 -5 38.001 -15s16 -23.667 16 -41z" />
    <glyph glyph-name="Lacute" unicode="&#x139;" horiz-adv-x="471" 
d="M474 147l-18.002 -147.001h-417v25c18 6.66699 32 16.167 42 28.5s15 29.833 15 52.5v478l-63 20v26c24.667 6 48.167 10.333 70.5 13s44.833 4 67.5 4s42.834 -0.833008 60.501 -2.5s34.834 -4.16699 51.501 -7.5v-23c-20.667 -8.66699 -35.167 -19.667 -43.5 -33
s-12.5 -31.666 -12.5 -54.999v-454h100c31.333 0 54.833 4.33301 70.5 13s27.5 21.667 35.5 39l11 23h30zM277.998 807.999c0 -26.667 -19.668 -56.501 -59.001 -89.501s-70.666 -49.5 -93.999 -49.5l-13 8c16.667 20.667 33 48.167 49 82.5s26.333 66.5 31 96.5
c32.667 0 55.167 -4.16699 67.5 -12.5s18.5 -20.166 18.5 -35.499z" />
    <glyph glyph-name="lacute" unicode="&#x13a;" horiz-adv-x="289" 
d="M86 81l-0.000976562 560.999l-64 29v25c23.333 8 48.333 14 75 18s49.334 5.66699 68.001 5h51l-7 -73v-599l55 -16v-23c-18.667 -6 -38.667 -10.333 -60 -13s-47.333 -4 -78 -4c-14.667 0 -30.5 0.833008 -47.5 2.5s-31.833 3.83398 -44.5 6.50098v20
c12.667 5.33301 24.5 13.5 35.5 24.5s16.5 23.167 16.5 36.5zM233.999 877.999c0 -26.667 -19.668 -56.501 -59.001 -89.501s-70.666 -49.5 -93.999 -49.5l-13 8c16.667 20.667 33 48.167 49 82.5s26.333 66.5 31 96.5c32.667 0 55.167 -4.16699 67.5 -12.5
s18.5 -20.166 18.5 -35.499z" />
    <glyph glyph-name="Lcommaaccent" unicode="&#x13b;" horiz-adv-x="471" 
d="M474 147l-18.002 -147.001h-417v25c18 6.66699 32 16.167 42 28.5s15 29.833 15 52.5v478l-63 20v26c24.667 6 48.167 10.333 70.5 13s44.833 4 67.5 4s42.834 -0.833008 60.501 -2.5s34.834 -4.16699 51.501 -7.5v-23c-20.667 -8.66699 -35.167 -19.667 -43.5 -33
s-12.5 -31.666 -12.5 -54.999v-454h100c31.333 0 54.833 4.33301 70.5 13s27.5 21.667 35.5 39l11 23h30zM315.998 -103.001c0 -28.667 -11.5 -57.168 -34.5 -85.501s-41.833 -42.5 -56.5 -42.5c-4 0 -7.33301 0.5 -10 1.5s-5.33398 2.83301 -8.00098 5.5
c8 14 14.167 29 18.5 45s6.5 32.333 6.5 49l-34 41c8 12.667 17.5 22.834 28.5 30.501s22.833 11.5 35.5 11.5c14.667 0 27.334 -5 38.001 -15s16 -23.667 16 -41z" />
    <glyph glyph-name="lcommaaccent" unicode="&#x13c;" horiz-adv-x="289" 
d="M86 81l-0.000976562 560.999l-64 29v25c23.333 8 48.333 14 75 18s49.334 5.66699 68.001 5h51l-7 -73v-599l55 -16v-23c-18.667 -6 -38.667 -10.333 -60 -13s-47.333 -4 -78 -4c-14.667 0 -30.5 0.833008 -47.5 2.5s-31.833 3.83398 -44.5 6.50098v20
c12.667 5.33301 24.5 13.5 35.5 24.5s16.5 23.167 16.5 36.5zM201.999 -103.001c0 -28.667 -11.5 -57.168 -34.5 -85.501s-41.833 -42.5 -56.5 -42.5c-4 0 -7.33301 0.5 -10 1.5s-5.33398 2.83301 -8.00098 5.5c8 14 14.167 29 18.5 45s6.5 32.333 6.5 49l-34 41
c8 12.667 17.5 22.834 28.5 30.501s22.833 11.5 35.5 11.5c14.667 0 27.334 -5 38.001 -15s16 -23.667 16 -41z" />
    <glyph glyph-name="Lcaron" unicode="&#x13d;" horiz-adv-x="471" 
d="M474 147l-18.002 -147.001h-417v25c18 6.66699 32 16.167 42 28.5s15 29.833 15 52.5v478l-63 20v26c24.667 6 48.167 10.333 70.5 13s44.833 4 67.5 4s42.834 -0.833008 60.501 -2.5s34.834 -4.16699 51.501 -7.5v-23c-20.667 -8.66699 -35.167 -19.667 -43.5 -33
s-12.5 -31.666 -12.5 -54.999v-454h100c31.333 0 54.833 4.33301 70.5 13s27.5 21.667 35.5 39l11 23h30zM446.998 609.999c0 -28.667 -11.5 -57.168 -34.5 -85.501s-41.833 -42.5 -56.5 -42.5c-4 0 -7.33301 0.5 -10 1.5s-5.33398 2.83301 -8.00098 5.5
c8 14 14.167 29 18.5 45s6.5 32.333 6.5 49l-34 41c8 12.667 17.5 22.834 28.5 30.501s22.833 11.5 35.5 11.5c14.667 0 27.334 -5 38.001 -15s16 -23.667 16 -41z" />
    <glyph glyph-name="lcaron" unicode="&#x13e;" horiz-adv-x="296" 
d="M93 81l-0.000976562 560.999l-64 29v25c23.333 8 48.333 14 75 18s49.334 5.66699 68.001 5h51l-7 -73v-599l55 -16v-23c-18.667 -6 -38.667 -10.333 -60 -13s-47.333 -4 -78 -4c-14.667 0 -30.5 0.833008 -47.5 2.5s-31.833 3.83398 -44.5 6.50098v20
c12.667 5.33301 24.5 13.5 35.5 24.5s16.5 23.167 16.5 36.5zM374.999 646.999c0 -28.667 -11.5 -57.168 -34.5 -85.501s-41.833 -42.5 -56.5 -42.5c-4 0 -7.33301 0.5 -10 1.5s-5.33398 2.83301 -8.00098 5.5c8 14 14.167 29 18.5 45s6.5 32.333 6.5 49l-34 41
c8 12.667 17.5 22.834 28.5 30.501s22.833 11.5 35.5 11.5c14.667 0 27.334 -5 38.001 -15s16 -23.667 16 -41z" />
    <glyph glyph-name="Ldot" unicode="&#x13f;" horiz-adv-x="471" 
d="M474 147l-18.002 -147.001h-417v25c18 6.66699 32 16.167 42 28.5s15 29.833 15 52.5v478l-63 20v26c24.667 6 48.167 10.333 70.5 13s44.833 4 67.5 4s42.834 -0.833008 60.501 -2.5s34.834 -4.16699 51.501 -7.5v-23c-20.667 -8.66699 -35.167 -19.667 -43.5 -33
s-12.5 -31.666 -12.5 -54.999v-454h100c31.333 0 54.833 4.33301 70.5 13s27.5 21.667 35.5 39l11 23h30zM459.998 281.999c0 -18.667 -6.83203 -35.502 -20.499 -50.502s-30.167 -22.5 -49.5 -22.5s-35.333 6.83301 -48 20.5s-19 29.834 -19 48.501
s7.16699 35.834 21.5 51.501s31.833 23.5 52.5 23.5c17.333 0 32.166 -6.83301 44.499 -20.5s18.5 -30.5 18.5 -50.5z" />
    <glyph glyph-name="ldot" unicode="&#x140;" horiz-adv-x="328" 
d="M93 81l-0.000976562 560.999l-64 29v25c23.333 8 48.333 14 75 18s49.334 5.66699 68.001 5h51l-7 -73v-599l55 -16v-23c-18.667 -6 -38.667 -10.333 -60 -13s-47.333 -4 -78 -4c-14.667 0 -30.5 0.833008 -47.5 2.5s-31.833 3.83398 -44.5 6.50098v20
c12.667 5.33301 24.5 13.5 35.5 24.5s16.5 23.167 16.5 36.5zM380.999 254.999c0 -18.667 -6.99902 -35.502 -20.999 -50.502s-30.333 -22.5 -49 -22.5c-19.333 0 -35.333 6.83301 -48 20.5s-19 29.834 -19 48.501s7.16699 35.834 21.5 51.501s31.833 23.5 52.5 23.5
c17.333 0 32.166 -6.83301 44.499 -20.5s18.5 -30.5 18.5 -50.5z" />
    <glyph glyph-name="Lslash" unicode="&#x141;" horiz-adv-x="471" 
d="M474 147l-18.002 -147.001h-417v25c18 6.66699 32 16.167 42 28.5s15 29.833 15 52.5v139l-44 -25l-27 50l71 41v273l-63 20v26c24.667 6 48.167 10.333 70.5 13s44.833 4 67.5 4s42.834 -0.833008 60.501 -2.5s34.834 -4.16699 51.501 -7.5v-23
c-20.667 -8.66699 -35.167 -19.667 -43.5 -33s-12.5 -31.666 -12.5 -54.999v-138l117 68l27 -50l-144 -84v-250h100c31.333 0 54.833 4.33301 70.5 13s27.5 21.667 35.5 39l11 23h30z" />
    <glyph glyph-name="lslash" unicode="&#x142;" horiz-adv-x="294" 
d="M92 81l-0.000976562 204.999l-72 -42l-28 50l100 58v290l-64 29v25c23.333 8 48.333 14 75 18s49.334 5.66699 68.001 5h51l-7 -73v-222l75 44l28 -51l-103 -60v-310l55 -16v-23c-18.667 -6 -38.667 -10.333 -60 -13s-47.333 -4 -78 -4
c-14.667 0 -30.5 0.833008 -47.5 2.5s-31.833 3.83398 -44.5 6.50098v20c12.667 5.33301 24.5 13.5 35.5 24.5s16.5 23.167 16.5 36.5z" />
    <glyph glyph-name="Nacute" unicode="&#x143;" horiz-adv-x="645" 
d="M611 638v-22c-20 -8.66699 -34 -19.667 -42 -33s-12 -34.333 -12 -63v-520l-91 -11l-289 486l-1 -1v-422l61 -19v-26c-14.667 -5.33301 -30.334 -9.5 -47.001 -12.5s-34.334 -4.5 -53.001 -4.5c-20 0 -37.833 0.833008 -53.5 2.5s-30.5 4.16699 -44.5 7.5v23
c20 6.66699 34.5 17.167 43.5 31.5s13.5 34.5 13.5 60.5v466l-59 22v33c22.667 2.66699 47.5 4.5 74.5 5.5s51.833 1.5 74.5 1.5h42l248 -417l1 1v359l-63 19v27c18.667 4.66699 36.834 8.5 54.501 11.5s35.834 4.5 54.501 4.5c20 0 36.333 -0.833008 49 -2.5
s25.667 -4.16699 39 -7.5zM454 808c0 -26.667 -19.668 -56.501 -59.001 -89.501s-70.666 -49.5 -93.999 -49.5l-13 8c16.667 20.667 33 48.167 49 82.5s26.333 66.5 31 96.5c32.667 0 55.167 -4.16699 67.5 -12.5s18.5 -20.166 18.5 -35.499z" />
    <glyph glyph-name="nacute" unicode="&#x144;" horiz-adv-x="580" 
d="M28 432v25.001c23.333 7.33301 47.833 13.166 73.5 17.499s47.834 6.16602 66.501 5.49902h39v-56c18 18 40.333 32.333 67 43s54.334 16 83.001 16c46 0 82.5 -13.333 109.5 -40s40.5 -68.334 40.5 -125.001v-271l53 -16v-23c-16.667 -5.33301 -35.667 -9.5 -57 -12.5
s-46 -4.5 -74 -4.5c-14.667 0 -29 0.833008 -43 2.5s-27 3.83398 -39 6.50098v20c12.667 6.66699 22 15.5 28 26.5s9 24.833 9 41.5v188c0 42.667 -9 73.5 -27 92.5s-41 28.5 -69 28.5c-14.667 0 -28.834 -2 -42.501 -6s-24.834 -8.66699 -33.501 -14v-330l56 -16v-23
c-19.333 -6 -39.5 -10.333 -60.5 -13s-46.833 -4 -77.5 -4c-14.667 0 -30.5 0.833008 -47.5 2.5s-32.167 3.83398 -45.5 6.50098v20c12.667 5.33301 24.5 13.5 35.5 24.5s16.5 23.167 16.5 36.5v322zM373 658.001c0 -26.667 -19.668 -56.501 -59.001 -89.501
s-70.666 -49.5 -93.999 -49.5l-13 8c16.667 20.667 33 48.167 49 82.5s26.333 66.5 31 96.5c32.667 0 55.167 -4.16699 67.5 -12.5s18.5 -20.166 18.5 -35.499z" />
    <glyph glyph-name="Ncommaaccent" unicode="&#x145;" horiz-adv-x="645" 
d="M611 638v-22c-20 -8.66699 -34 -19.667 -42 -33s-12 -34.333 -12 -63v-520l-91 -11l-289 486l-1 -1v-422l61 -19v-26c-14.667 -5.33301 -30.334 -9.5 -47.001 -12.5s-34.334 -4.5 -53.001 -4.5c-20 0 -37.833 0.833008 -53.5 2.5s-30.5 4.16699 -44.5 7.5v23
c20 6.66699 34.5 17.167 43.5 31.5s13.5 34.5 13.5 60.5v466l-59 22v33c22.667 2.66699 47.5 4.5 74.5 5.5s51.833 1.5 74.5 1.5h42l248 -417l1 1v359l-63 19v27c18.667 4.66699 36.834 8.5 54.501 11.5s35.834 4.5 54.501 4.5c20 0 36.333 -0.833008 49 -2.5
s25.667 -4.16699 39 -7.5zM381 -103c0 -28.667 -11.5 -57.168 -34.5 -85.501s-41.833 -42.5 -56.5 -42.5c-4 0 -7.33301 0.5 -10 1.5s-5.33398 2.83301 -8.00098 5.5c8 14 14.167 29 18.5 45s6.5 32.333 6.5 49l-34 41c8 12.667 17.5 22.834 28.5 30.501
s22.833 11.5 35.5 11.5c14.667 0 27.334 -5 38.001 -15s16 -23.667 16 -41z" />
    <glyph glyph-name="ncommaaccent" unicode="&#x146;" horiz-adv-x="580" 
d="M28 432v25.001c23.333 7.33301 47.833 13.166 73.5 17.499s47.834 6.16602 66.501 5.49902h39v-56c18 18 40.333 32.333 67 43s54.334 16 83.001 16c46 0 82.5 -13.333 109.5 -40s40.5 -68.334 40.5 -125.001v-271l53 -16v-23c-16.667 -5.33301 -35.667 -9.5 -57 -12.5
s-46 -4.5 -74 -4.5c-14.667 0 -29 0.833008 -43 2.5s-27 3.83398 -39 6.50098v20c12.667 6.66699 22 15.5 28 26.5s9 24.833 9 41.5v188c0 42.667 -9 73.5 -27 92.5s-41 28.5 -69 28.5c-14.667 0 -28.834 -2 -42.501 -6s-24.834 -8.66699 -33.501 -14v-330l56 -16v-23
c-19.333 -6 -39.5 -10.333 -60.5 -13s-46.833 -4 -77.5 -4c-14.667 0 -30.5 0.833008 -47.5 2.5s-32.167 3.83398 -45.5 6.50098v20c12.667 5.33301 24.5 13.5 35.5 24.5s16.5 23.167 16.5 36.5v322zM348 -102.999c0 -28.667 -11.5 -57.168 -34.5 -85.501
s-41.833 -42.5 -56.5 -42.5c-4 0 -7.33301 0.5 -10 1.5s-5.33398 2.83301 -8.00098 5.5c8 14 14.167 29 18.5 45s6.5 32.333 6.5 49l-34 41c8 12.667 17.5 22.834 28.5 30.501s22.833 11.5 35.5 11.5c14.667 0 27.334 -5 38.001 -15s16 -23.667 16 -41z" />
    <glyph glyph-name="Ncaron" unicode="&#x147;" horiz-adv-x="645" 
d="M611 638v-22c-20 -8.66699 -34 -19.667 -42 -33s-12 -34.333 -12 -63v-520l-91 -11l-289 486l-1 -1v-422l61 -19v-26c-14.667 -5.33301 -30.334 -9.5 -47.001 -12.5s-34.334 -4.5 -53.001 -4.5c-20 0 -37.833 0.833008 -53.5 2.5s-30.5 4.16699 -44.5 7.5v23
c20 6.66699 34.5 17.167 43.5 31.5s13.5 34.5 13.5 60.5v466l-59 22v33c22.667 2.66699 47.5 4.5 74.5 5.5s51.833 1.5 74.5 1.5h42l248 -417l1 1v359l-63 19v27c18.667 4.66699 36.834 8.5 54.501 11.5s35.834 4.5 54.501 4.5c20 0 36.333 -0.833008 49 -2.5
s25.667 -4.16699 39 -7.5zM310 679l-143 155.999c12 8 23.667 14.333 35 19s25.333 9.33398 42 14.001l97 -117l112 117c10.667 -4.66699 20 -10.667 28 -18s14.667 -15.333 20 -24l-144 -141z" />
    <glyph glyph-name="ncaron" unicode="&#x148;" horiz-adv-x="580" 
d="M28 432v25.001c23.333 7.33301 47.833 13.166 73.5 17.499s47.834 6.16602 66.501 5.49902h39v-56c18 18 40.333 32.333 67 43s54.334 16 83.001 16c46 0 82.5 -13.333 109.5 -40s40.5 -68.334 40.5 -125.001v-271l53 -16v-23c-16.667 -5.33301 -35.667 -9.5 -57 -12.5
s-46 -4.5 -74 -4.5c-14.667 0 -29 0.833008 -43 2.5s-27 3.83398 -39 6.50098v20c12.667 6.66699 22 15.5 28 26.5s9 24.833 9 41.5v188c0 42.667 -9 73.5 -27 92.5s-41 28.5 -69 28.5c-14.667 0 -28.834 -2 -42.501 -6s-24.834 -8.66699 -33.501 -14v-330l56 -16v-23
c-19.333 -6 -39.5 -10.333 -60.5 -13s-46.833 -4 -77.5 -4c-14.667 0 -30.5 0.833008 -47.5 2.5s-32.167 3.83398 -45.5 6.50098v20c12.667 5.33301 24.5 13.5 35.5 24.5s16.5 23.167 16.5 36.5v322zM265 526.001l-143 155.999c12 8 23.667 14.333 35 19
s25.333 9.33398 42 14.001l97 -117l112 117c10.667 -4.66699 20 -10.667 28 -18s14.667 -15.333 20 -24l-144 -141z" />
    <glyph glyph-name="napostrophe" unicode="&#x149;" horiz-adv-x="580" 
d="M201 647c0 -28.667 -11.498 -57.168 -34.498 -85.501s-41.833 -42.5 -56.5 -42.5c-3.33301 0 -6.5 0.5 -9.5 1.5s-5.83301 2.83301 -8.5 5.5c8 14 14.167 29 18.5 45s6.5 32.333 6.5 49l-33 41c7.33301 12.667 16.666 22.834 27.999 30.501s23 11.5 35 11.5
c15.333 0 28.166 -5 38.499 -15s15.5 -23.667 15.5 -41zM28.002 431.999v25.001c23.333 7.33301 47.833 13.166 73.5 17.499s47.834 6.16602 66.501 5.49902h39v-56c18 18 40.333 32.333 67 43s54.334 16 83.001 16c46 0 82.5 -13.333 109.5 -40s40.5 -68.334 40.5 -125.001
v-271l53 -16v-23c-16.667 -5.33301 -35.667 -9.5 -57 -12.5s-46 -4.5 -74 -4.5c-14.667 0 -29 0.833008 -43 2.5s-27 3.83398 -39 6.50098v20c12.667 6.66699 22 15.5 28 26.5s9 24.833 9 41.5v188c0 42.667 -9 73.5 -27 92.5s-41 28.5 -69 28.5
c-14.667 0 -28.834 -2 -42.501 -6s-24.834 -8.66699 -33.501 -14v-330l56 -16v-23c-19.333 -6 -39.5 -10.333 -60.5 -13s-46.833 -4 -77.5 -4c-14.667 0 -30.5 0.833008 -47.5 2.5s-32.167 3.83398 -45.5 6.50098v20c12.667 5.33301 24.5 13.5 35.5 24.5
s16.5 23.167 16.5 36.5v322z" />
    </font>
</defs>
</svg>
